STARTFONT 2.1
COMMENT
COMMENT Converted from OpenType font "manrope-medium.otf" by "otf2bdf 3.0".
COMMENT
FONT -FreeType-Manrope Medium-Medium-R-Normal--109-790-100-100-P-499-ISO10646-1
SIZE 79 100 100
FONTBOUNDINGBOX 107 139 -4 -28
STARTPROPERTIES 19
FOUNDRY "FreeType"
FAMILY_NAME "Manrope Medium"
WEIGHT_NAME "Medium"
SLANT "R"
SETWIDTH_NAME "Normal"
ADD_STYLE_NAME ""
PIXEL_SIZE 109
POINT_SIZE 790
RESOLUTION_X 100
RESOLUTION_Y 100
SPACING "P"
AVERAGE_WIDTH 499
CHARSET_REGISTRY "ISO10646"
CHARSET_ENCODING "1"
FONT_ASCENT 117
FONT_DESCENT 33
COPYRIGHT "Copyright 2019-2021 The Manrope Project Authors (https://github.com/sharanda/manrope)"
_OTF_FONTFILE "manrope-medium.otf"
_OTF_PSNAME "Manrope-Medium"
ENDPROPERTIES
CHARS 191
STARTCHAR 0020
ENCODING 32
SWIDTH 200 0
DWIDTH 22 0
BBX 0 0 0 0
BITMAP
ENDCHAR
STARTCHAR 0021
ENCODING 33
SWIDTH 328 0
DWIDTH 36 0
BBX 10 79 13 0
BITMAP
FFC0
FFC0
FFC0
FFC0
FFC0
FFC0
FFC0
FFC0
FFC0
FFC0
FFC0
FFC0
FFC0
FFC0
FFC0
FFC0
FFC0
FFC0
FFC0
FFC0
FFC0
FFC0
FFC0
FFC0
FFC0
FFC0
FFC0
FFC0
FFC0
FFC0
FFC0
FFC0
FFC0
FFC0
FFC0
FFC0
FFC0
FFC0
FFC0
FFC0
FFC0
FFC0
FFC0
FFC0
FFC0
FFC0
FFC0
FFC0
FFC0
FFC0
FFC0
FFC0
FFC0
FFC0
FFC0
FFC0
FFC0
FFC0
FFC0
0000
0000
0000
0000
0000
0000
0000
0000
0000
0000
FFC0
FFC0
FFC0
FFC0
FFC0
FFC0
FFC0
FFC0
FFC0
FFC0
ENDCHAR
STARTCHAR 0022
ENCODING 34
SWIDTH 419 0
DWIDTH 46 0
BBX 28 20 7 59
BITMAP
FF803FF0
FF803FF0
FF803FF0
FF803FF0
FF803FF0
FF803FF0
FF803FF0
FF803FF0
FF803FF0
FF803FF0
FF803FF0
FF803FF0
FF803FF0
FF803FF0
FF803FF0
FF803FF0
FF803FF0
FF803FF0
FF803FF0
FF803FF0
ENDCHAR
STARTCHAR 0023
ENCODING 35
SWIDTH 920 0
DWIDTH 101 0
BBX 88 79 7 0
BITMAP
000000000FFC0003FF0000
000000000FF80003FF0000
000000001FF80003FE0000
000000001FF80007FE0000
000000001FF00007FE0000
000000001FF00007FE0000
000000003FF00007FC0000
000000003FF0000FFC0000
000000003FE0000FFC0000
000000007FE0000FF80000
000000007FE0000FF80000
000000007FE0001FF80000
000000007FC0001FF80000
00000000FFC0001FF00000
00000000FFC0003FF00000
00000000FF80003FF00000
00000000FF80003FF00000
00000001FF80003FE00000
00000001FF80007FE00000
00000001FF00007FE00000
00000003FF00007FC00000
007FFFFFFFFFFFFFFFFFFF
00FFFFFFFFFFFFFFFFFFFE
00FFFFFFFFFFFFFFFFFFFE
00FFFFFFFFFFFFFFFFFFFE
00FFFFFFFFFFFFFFFFFFFE
01FFFFFFFFFFFFFFFFFFFC
01FFFFFFFFFFFFFFFFFFFC
01FFFFFFFFFFFFFFFFFFFC
01FFFFFFFFFFFFFFFFFFFC
0000000FF80003FF000000
0000000FF80003FE000000
0000001FF80003FE000000
0000001FF80007FE000000
0000001FF00007FE000000
0000003FF00007FC000000
0000003FF00007FC000000
0000003FF0000FFC000000
0000003FE0000FFC000000
0000007FE0000FF8000000
0000007FE0001FF8000000
0000007FE0001FF8000000
0000007FC0001FF8000000
000000FFC0001FF0000000
000000FFC0003FF0000000
000000FFC0003FF0000000
000000FF80003FF0000000
3FFFFFFFFFFFFFFFFFFF80
3FFFFFFFFFFFFFFFFFFF00
7FFFFFFFFFFFFFFFFFFF00
7FFFFFFFFFFFFFFFFFFF00
7FFFFFFFFFFFFFFFFFFF00
7FFFFFFFFFFFFFFFFFFE00
FFFFFFFFFFFFFFFFFFFE00
FFFFFFFFFFFFFFFFFFFE00
FFFFFFFFFFFFFFFFFFFE00
000007FE0001FF80000000
000007FC0001FF80000000
00000FFC0001FF00000000
00000FFC0003FF00000000
00000FF80003FF00000000
00000FF80003FF00000000
00001FF80003FE00000000
00001FF80007FE00000000
00001FF00007FE00000000
00001FF00007FC00000000
00003FF00007FC00000000
00003FF0000FFC00000000
00003FE0000FFC00000000
00007FE0000FF800000000
00007FE0000FF800000000
00007FE0001FF800000000
00007FC0001FF800000000
0000FFC0001FF000000000
0000FFC0003FF000000000
0000FF80003FF000000000
0000FF80003FF000000000
0001FF80003FE000000000
0001FF80007FE000000000
ENDCHAR
STARTCHAR 0024
ENCODING 36
SWIDTH 601 0
DWIDTH 66 0
BBX 58 101 4 -11
BITMAP
000000FFC0000000
000000FFC0000000
000000FFC0000000
000000FFC0000000
000000FFC0000000
000000FFC0000000
000000FFC0000000
000000FFC0000000
000000FFC0000000
000000FFC0000000
000007FFF8000000
00003FFFFF000000
0001FFFFFFE00000
0007FFFFFFF80000
000FFFFFFFFC0000
003FFFFFFFFF0000
007FFFFFFFFF8000
00FFFFFFFFFFC000
01FFFFFFFFFFE000
03FFFE003FFFF000
03FFF00007FFF800
07FFC00001FFF800
07FF8000007FFC00
0FFF0000003FFC00
0FFE0000001FFE00
0FFC0000000FFE00
1FFC00000007FF00
1FF800000007FF00
1FF800000003FF80
1FF800000003FF80
1FF800000001FF80
1FF800000001FFC0
1FF800000001FFC0
1FF800000000F800
1FF8000000000000
1FFC000000000000
1FFC000000000000
0FFE000000000000
0FFF000000000000
0FFF800000000000
07FFE00000000000
07FFF80000000000
03FFFF0000000000
01FFFFF000000000
00FFFFFE00000000
007FFFFFE0000000
003FFFFFFC000000
001FFFFFFF800000
0007FFFFFFF00000
0001FFFFFFFC0000
00003FFFFFFF0000
000007FFFFFFC000
000000FFFFFFE000
0000001FFFFFF800
00000001FFFFFC00
000000003FFFFC00
0000000007FFFE00
0000000000FFFF00
00000000003FFF00
00000000000FFF80
000000000007FF80
000000000003FF80
000000000001FFC0
000000000000FFC0
000000000000FFC0
000000000000FFC0
008000000000FFC0
3FC0000000007FC0
FFC0000000007FC0
FFC0000000007FC0
FFE000000000FFC0
7FE000000000FFC0
7FF000000000FFC0
7FF800000001FFC0
3FF800000001FF80
3FFC00000003FF80
1FFE00000007FF80
1FFF0000000FFF00
0FFFC000001FFF00
0FFFF000007FFE00
07FFFC0001FFFC00
03FFFF800FFFFC00
01FFFFFFFFFFF800
00FFFFFFFFFFF000
007FFFFFFFFFE000
003FFFFFFFFFC000
000FFFFFFFFF0000
0003FFFFFFFE0000
0000FFFFFFF00000
00003FFFFFC00000
000003FFFC000000
000000FFC0000000
000000FFC0000000
000000FFC0000000
000000FFC0000000
000000FFC0000000
000000FFC0000000
000000FFC0000000
000000FFC0000000
000000FFC0000000
000000FFC0000000
ENDCHAR
STARTCHAR 0025
ENCODING 37
SWIDTH 902 0
DWIDTH 99 0
BBX 85 83 7 -2
BITMAP
0001FF0000000000000000
000FFFE000000000000000
003FFFF800000000001000
00FFFFFE00000000003800
01FFFFFF00000000007C00
03FFFFFF8000000000FE00
07FFFFFFC000000001FF00
0FFFFFFFE000000003FF80
1FFFFFFFF000000007FFC0
1FFE00FFF00000000FFF80
3FF8007FF80000001FFF00
7FF0001FF80000003FFE00
7FE0000FFC0000007FFC00
7FC0000FFC000000FFF800
FFC00007FC000001FFF000
FF800003FE000003FFE000
FF800003FE000007FFC000
FF000003FE00000FFF8000
FF000003FE00001FFF0000
FF000003FE00003FFE0000
FF000003FE00007FFC0000
FF000003FE0000FFF80000
FF000003FE0001FFF00000
FF800003FE0003FFE00000
FF800007FE0007FFC00000
FFC00007FC000FFF800000
7FC0000FFC001FFF000000
7FE0001FFC003FFE000000
3FF0003FF8007FFC000000
3FFC007FF800FFF8000000
1FFF03FFF001FFF0000000
1FFFFFFFE003FFE0000000
0FFFFFFFE007FFC0000000
07FFFFFFC00FFF80000000
03FFFFFF801FFF00000000
01FFFFFE003FFE00000000
007FFFFC007FFC00000000
003FFFF000FFF800000000
0007FFC001FFF000000000
0000380003FFE000000000
0000000007FFC000000000
000000000FFF8000000000
000000001FFF0000000000
000000003FFE0001F00000
000000007FFC001FFF0000
00000000FFF8007FFFC000
00000001FFF001FFFFF000
00000003FFE003FFFFFC00
00000007FFC00FFFFFFE00
0000000FFF801FFFFFFF00
0000001FFF003FFFFFFF80
0000003FFE003FFFFFFF80
0000007FFC007FFC07FFC0
000000FFF800FFF001FFE0
000001FFF000FFE000FFE0
000003FFE001FFC0007FF0
000007FFC001FF80003FF0
00000FFF8001FF00001FF0
00001FFF0003FE00000FF8
00003FFE0003FE00000FF8
00007FFC0003FE00000FF8
0000FFF80003FC00000FF8
0001FFF00003FC000007F8
0003FFE00003FC000007F8
0007FFC00003FC000007F8
000FFF800003FE00000FF8
001FFF000003FE00000FF8
003FFE000003FE00000FF8
007FFC000003FF00001FF8
00FFF8000001FF00001FF0
01FFF0000001FF80003FF0
03FFE0000000FFC0007FE0
07FFC0000000FFE000FFE0
0FFF800000007FF803FFC0
1FFF000000007FFFFFFFC0
0FFE000000003FFFFFFF80
07FC000000001FFFFFFF00
03F8000000000FFFFFFE00
01F00000000007FFFFFC00
00E00000000003FFFFF800
00400000000000FFFFE000
000000000000003FFF8000
0000000000000007FC0000
ENDCHAR
STARTCHAR 0026
ENCODING 38
SWIDTH 656 0
DWIDTH 72 0
BBX 65 83 5 -2
BITMAP
000001FFC000000000
00001FFFFC00000000
0000FFFFFF80000000
0003FFFFFFE0000000
0007FFFFFFF0000000
000FFFFFFFF8000000
001FFFFFFFFC000000
003FFFFFFFFE000000
007FFFFFFFFF000000
00FFFFE1FFFF800000
00FFFC001FFF800000
01FFF00007FFC00000
01FFE00001FFC00000
03FF800000FFE00000
03FF800000FFE00000
03FF0000007E000000
07FF00000060000000
07FE00000000000000
07FE00000000000000
07FE00000000000000
07FE00000000000000
07FE00000000000000
07FE00000000000000
07FE00000000000000
07FE00000000000000
07FE00000000000000
07FF00000000000000
03FF00000000000000
03FF80000000000000
03FFC0000000000000
01FFC0000000000000
01FFE0000000000000
00FFF0000000000000
007FF8000000000000
003FFC000000000000
003FFE000000000000
001FFF800000000000
000FFFC00000000000
001FFFE00000000000
003FFFF00000000000
00FFFFF80000000000
01FFFFFC0000000000
03FFFFFE0000FF8000
07FFFFFF0000FF8000
07FFFFFF8000FF8000
0FFFEFFFC000FF8000
1FFF87FFE000FF8000
1FFE01FFF000FF8000
3FFC00FFF800FF8000
3FF8007FFC00FF8000
3FF8003FFF00FF8000
7FF0001FFF80FF8000
7FF0000FFFC0FF8000
7FE00007FFE0FF8000
7FE00003FFF0FF8000
7FE00001FFF8FF8000
7FE00000FFFCFF8000
FFC000007FFEFF8000
FFC000003FFFFF8000
FFC000001FFFFF8000
7FE0000007FFFF8000
7FE0000003FFFF0000
7FE0000001FFFF0000
7FE0000000FFFF0000
7FF00000007FFF0000
7FF00000003FFF0000
3FF80000001FFF8000
3FF80000000FFFC000
3FFC0000001FFFE000
1FFE0000003FFFF000
1FFF000000FFFFF800
0FFFC00001FFFFFC00
0FFFF8000FFFFFFE00
07FFFFE3FFFFFFFF00
03FFFFFFFFFFFFFF80
01FFFFFFFFFFCFFF80
00FFFFFFFFFF83FF80
007FFFFFFFFE01FF00
001FFFFFFFFC00FE00
000FFFFFFFF0007C00
0001FFFFFFC0003800
00007FFFFE00001000
000003FFE000000000
ENDCHAR
STARTCHAR 0027
ENCODING 39
SWIDTH 227 0
DWIDTH 25 0
BBX 9 20 7 59
BITMAP
FF80
FF80
FF80
FF80
FF80
FF80
FF80
FF80
FF80
FF80
FF80
FF80
FF80
FF80
FF80
FF80
FF80
FF80
FF80
FF80
ENDCHAR
STARTCHAR 0028
ENCODING 40
SWIDTH 437 0
DWIDTH 48 0
BBX 28 112 15 -19
BITMAP
00000C00
00001F00
00003F80
00007FC0
00007FE0
0000FFF0
0001FFE0
0001FFC0
0003FF80
0007FF00
0007FF00
000FFE00
000FFC00
001FFC00
001FF800
003FF000
003FF000
007FE000
007FE000
00FFC000
00FFC000
01FF8000
01FF8000
03FF0000
03FF0000
03FE0000
07FE0000
07FC0000
07FC0000
0FFC0000
0FF80000
0FF80000
1FF80000
1FF00000
1FF00000
1FF00000
3FF00000
3FE00000
3FE00000
3FE00000
3FE00000
7FE00000
7FC00000
7FC00000
7FC00000
7FC00000
7FC00000
7FC00000
7FC00000
FFC00000
FF800000
FF800000
FF800000
FF800000
FF800000
FF800000
FF800000
FF800000
FF800000
FF800000
FF800000
FFC00000
7FC00000
7FC00000
7FC00000
7FC00000
7FC00000
7FC00000
7FC00000
7FE00000
3FE00000
3FE00000
3FE00000
3FE00000
3FF00000
1FF00000
1FF00000
1FF00000
1FF80000
0FF80000
0FF80000
0FFC0000
0FFC0000
07FC0000
07FE0000
07FE0000
03FF0000
03FF0000
01FF8000
01FF8000
01FF8000
00FFC000
00FFC000
007FE000
007FF000
003FF000
003FF800
001FF800
001FFC00
000FFE00
0007FE00
0007FF00
0003FF80
0003FFC0
0001FFC0
0000FFE0
0000FFF0
00007FE0
00003F80
00001F00
00000E00
00000800
ENDCHAR
STARTCHAR 0029
ENCODING 41
SWIDTH 437 0
DWIDTH 48 0
BBX 27 112 5 -19
BITMAP
07000000
0F800000
1F800000
3FC00000
FFE00000
FFF00000
7FF00000
3FF80000
3FFC0000
1FFC0000
0FFE0000
07FE0000
07FF0000
03FF8000
01FF8000
01FFC000
00FFC000
00FFE000
007FE000
007FF000
003FF000
001FF000
001FF800
001FF800
000FFC00
000FFC00
0007FC00
0007FE00
0003FE00
0003FE00
0003FF00
0001FF00
0001FF00
0001FF80
0001FF80
0000FF80
0000FF80
0000FF80
0000FFC0
00007FC0
00007FC0
00007FC0
00007FC0
00007FE0
00003FE0
00003FE0
00003FE0
00003FE0
00003FE0
00003FE0
00003FE0
00003FE0
00003FE0
00003FE0
00003FE0
00003FE0
00003FE0
00003FE0
00003FE0
00003FE0
00003FE0
00003FE0
00003FE0
00003FE0
00003FE0
00003FE0
00003FE0
00003FE0
00007FC0
00007FC0
00007FC0
00007FC0
00007FC0
0000FFC0
0000FF80
0000FF80
0000FF80
0001FF80
0001FF00
0001FF00
0003FF00
0003FF00
0003FE00
0007FE00
0007FE00
000FFC00
000FFC00
000FF800
001FF800
001FF800
003FF000
003FF000
007FE000
007FE000
00FFC000
01FFC000
01FF8000
03FF8000
03FF0000
07FF0000
0FFE0000
0FFE0000
1FFC0000
3FF80000
7FF80000
FFF00000
FFE00000
7FC00000
3FC00000
0F800000
07000000
02000000
ENDCHAR
STARTCHAR 002A
ENCODING 42
SWIDTH 446 0
DWIDTH 49 0
BBX 39 37 3 42
BITMAP
0001FF0000
0001FF0000
0001FF0000
0001FF0000
0000FF0000
0000FF0000
0000FF0000
0000FF0000
0000FF0000
1000FF0018
1E00FF0078
3FC0FF03F8
3FF0FF1FFC
3FFEFFFFFC
7FFFFFFFFC
7FFFFFFFFE
7FFFFFFFFE
FFFFFFFFFE
0FFFFFFFF0
01FFFFFF00
001FFFF800
0007FFC000
000FFFE000
000FFFF000
001FFFF800
003FFFFC00
007FEFFC00
007FE7FE00
00FFC3FF00
01FF83FF80
03FF81FF80
07FF00FFC0
03FE00FFC0
01FE007F80
00FC003E00
0038003C00
0018001000
ENDCHAR
STARTCHAR 002B
ENCODING 43
SWIDTH 574 0
DWIDTH 63 0
BBX 50 50 7 15
BITMAP
000007F8000000
000007F8000000
000007F8000000
000007F8000000
000007F8000000
000007F8000000
000007F8000000
000007F8000000
000007F8000000
000007F8000000
000007F8000000
000007F8000000
000007F8000000
000007F8000000
000007F8000000
000007F8000000
000007F8000000
000007F8000000
000007F8000000
000007F8000000
000007F8000000
FFFFFFFFFFFFC0
FFFFFFFFFFFFC0
FFFFFFFFFFFFC0
FFFFFFFFFFFFC0
FFFFFFFFFFFFC0
FFFFFFFFFFFFC0
FFFFFFFFFFFFC0
FFFFFFFFFFFFC0
000007F8000000
000007F8000000
000007F8000000
000007F8000000
000007F8000000
000007F8000000
000007F8000000
000007F8000000
000007F8000000
000007F8000000
000007F8000000
000007F8000000
000007F8000000
000007F8000000
000007F8000000
000007F8000000
000007F8000000
000007F8000000
000007F8000000
000007F8000000
000007F8000000
ENDCHAR
STARTCHAR 002C
ENCODING 44
SWIDTH 282 0
DWIDTH 31 0
BBX 10 25 7 -14
BITMAP
FFC0
FFC0
FFC0
FFC0
FFC0
FFC0
FFC0
FFC0
FFC0
FFC0
FFC0
FFC0
07C0
07C0
07C0
07C0
07C0
07C0
0FC0
1F80
FF80
FF00
FF00
FC00
F000
ENDCHAR
STARTCHAR 002D
ENCODING 45
SWIDTH 419 0
DWIDTH 46 0
BBX 32 8 7 31
BITMAP
FFFFFFFF
FFFFFFFF
FFFFFFFF
FFFFFFFF
FFFFFFFF
FFFFFFFF
FFFFFFFF
FFFFFFFF
ENDCHAR
STARTCHAR 002E
ENCODING 46
SWIDTH 273 0
DWIDTH 30 0
BBX 11 11 9 0
BITMAP
FFE0
FFE0
FFE0
FFE0
FFE0
FFE0
FFE0
FFE0
FFE0
FFE0
FFE0
ENDCHAR
STARTCHAR 002F
ENCODING 47
SWIDTH 401 0
DWIDTH 44 0
BBX 30 79 7 0
BITMAP
00000FFC
00000FFC
00000FFC
00000FFC
00001FF8
00001FF8
00001FF8
00001FF8
00003FF0
00003FF0
00003FF0
00003FF0
00007FE0
00007FE0
00007FE0
00007FC0
0000FFC0
0000FFC0
0000FFC0
0001FF80
0001FF80
0001FF80
0001FF80
0003FF00
0003FF00
0003FF00
0003FF00
0007FE00
0007FE00
0007FE00
0007FC00
000FFC00
000FFC00
000FFC00
001FF800
001FF800
001FF800
001FF800
003FF000
003FF000
003FF000
003FF000
007FE000
007FE000
007FE000
007FC000
00FFC000
00FFC000
00FFC000
01FF8000
01FF8000
01FF8000
01FF8000
03FF0000
03FF0000
03FF0000
03FF0000
07FE0000
07FE0000
07FE0000
07FC0000
0FFC0000
0FFC0000
0FFC0000
1FF80000
1FF80000
1FF80000
1FF80000
3FF00000
3FF00000
3FF00000
3FF00000
7FE00000
7FE00000
7FE00000
7FC00000
FFC00000
FFC00000
FFC00000
ENDCHAR
STARTCHAR 0030
ENCODING 48
SWIDTH 628 0
DWIDTH 69 0
BBX 53 83 8 -2
BITMAP
000007FF000000
00007FFFF00000
0001FFFFFC0000
0007FFFFFF0000
001FFFFFFFC000
003FFFFFFFE000
00FFFFFFFFF000
01FFFFFFFFF800
03FFFFFFFFFC00
07FFFF8FFFFE00
07FFF000FFFF00
0FFFC0003FFF80
1FFF80000FFF80
1FFE000007FFC0
3FFC000003FFC0
3FF8000001FFE0
7FF8000000FFE0
7FF00000007FE0
7FE00000007FF0
7FE00000003FF0
FFE00000003FF0
FFC00000003FF8
FFC00000001FF8
FFC00000001FF8
FFC00000001FF8
FFC00000001FF8
FFC00000001FF8
FFC00000001FF8
FFC00000001FF8
FFC00000001FF8
FFC00000001FF8
FFC00000001FF8
FFC00000001FF8
FFC00000001FF8
FFC00000001FF8
FFC00000001FF8
FFC00000001FF8
FFC00000001FF8
FFC00000001FF8
FFC00000001FF8
FFC00000001FF8
FFC00000001FF8
FFC00000001FF8
FFC00000001FF8
FFC00000001FF8
FFC00000001FF8
FFC00000001FF8
FFC00000001FF8
FFC00000001FF8
FFC00000001FF8
FFC00000001FF8
FFC00000001FF8
FFC00000001FF8
FFC00000001FF8
FFC00000001FF8
FFC00000001FF8
FFC00000001FF8
FFC00000001FF8
FFC00000001FF8
FFC00000001FF8
FFC00000001FF8
FFC00000003FF0
FFE00000003FF0
7FE00000003FF0
7FE00000007FF0
7FF00000007FE0
7FF8000000FFE0
3FF8000001FFE0
3FFC000003FFC0
1FFE000007FFC0
1FFF80000FFF80
0FFFC0003FFF80
07FFF000FFFF00
07FFFF8FFFFE00
03FFFFFFFFFC00
01FFFFFFFFF800
00FFFFFFFFF000
003FFFFFFFE000
001FFFFFFFC000
0007FFFFFF0000
0003FFFFFC0000
00007FFFF00000
000007FF000000
ENDCHAR
STARTCHAR 0031
ENCODING 49
SWIDTH 410 0
DWIDTH 45 0
BBX 24 79 7 0
BITMAP
0003FF
000FFF
003FFF
007FFF
01FFFF
07FFFF
0FFFFF
3FFFFF
FFFFFF
FFFFFF
FFFFFF
FFFBFF
FFF3FF
FFC3FF
FF03FF
FE03FF
F803FF
E003FF
C003FF
0003FF
0003FF
0003FF
0003FF
0003FF
0003FF
0003FF
0003FF
0003FF
0003FF
0003FF
0003FF
0003FF
0003FF
0003FF
0003FF
0003FF
0003FF
0003FF
0003FF
0003FF
0003FF
0003FF
0003FF
0003FF
0003FF
0003FF
0003FF
0003FF
0003FF
0003FF
0003FF
0003FF
0003FF
0003FF
0003FF
0003FF
0003FF
0003FF
0003FF
0003FF
0003FF
0003FF
0003FF
0003FF
0003FF
0003FF
0003FF
0003FF
0003FF
0003FF
0003FF
0003FF
0003FF
0003FF
0003FF
0003FF
0003FF
0003FF
0003FF
ENDCHAR
STARTCHAR 0032
ENCODING 50
SWIDTH 574 0
DWIDTH 63 0
BBX 53 81 5 0
BITMAP
000003FF000000
00003FFFF00000
0001FFFFFE0000
0007FFFFFF8000
000FFFFFFFC000
003FFFFFFFE000
007FFFFFFFF800
00FFFFFFFFFC00
01FFFFFFFFFE00
03FFFF87FFFE00
07FFF8007FFF00
07FFE0001FFF80
0FFF800007FF80
0FFF000003FFC0
1FFE000001FFE0
1FFC000000FFE0
3FFC000000FFE0
3FF80000007FF0
3FF00000007FF0
7FF00000003FF0
7FF00000003FF0
7FE00000003FF8
7FE00000001FF8
7FE00000001FF8
7FE00000001FF8
7FE00000001FF8
00000000001FF8
00000000001FF8
00000000001FF8
00000000001FF8
00000000003FF8
00000000003FF0
00000000003FF0
00000000007FF0
00000000007FF0
0000000000FFE0
0000000001FFE0
0000000003FFC0
0000000003FFC0
0000000007FF80
000000000FFF80
000000003FFF00
000000007FFE00
00000000FFFC00
00000001FFF800
00000003FFF000
00000007FFE000
0000000FFFC000
0000001FFF8000
0000003FFF0000
0000007FFE0000
000001FFFC0000
000003FFF80000
000007FFF00000
00000FFFE00000
00001FFF800000
00003FFF000000
00007FFE000000
0000FFFC000000
0001FFF8000000
0007FFF0000000
000FFFE0000000
001FFFC0000000
003FFF80000000
007FFE00000000
00FFFC00000000
01FFF800000000
03FFF000000000
07FFE000000000
0FFFC000000000
3FFF8000000000
7FFF0000000000
7FFFFFFFFFFFF8
7FFFFFFFFFFFF8
7FFFFFFFFFFFF8
7FFFFFFFFFFFF8
7FFFFFFFFFFFF8
7FFFFFFFFFFFF8
FFFFFFFFFFFFF8
FFFFFFFFFFFFF8
FFFFFFFFFFFFF8
ENDCHAR
STARTCHAR 0033
ENCODING 51
SWIDTH 565 0
DWIDTH 62 0
BBX 51 81 4 -2
BITMAP
1FFFFFFFFFFFC0
1FFFFFFFFFFFC0
1FFFFFFFFFFFC0
1FFFFFFFFFFFC0
1FFFFFFFFFFFC0
1FFFFFFFFFFFC0
1FFFFFFFFFFFC0
1FFFFFFFFFFFC0
1FFFFFFFFFFFC0
0000000003FFC0
0000000007FF80
000000000FFF00
000000003FFE00
000000007FFC00
00000000FFF800
00000001FFF000
00000003FFE000
00000007FFC000
0000000FFF8000
0000001FFF0000
0000003FFE0000
0000007FFC0000
000001FFF00000
000003FFE00000
000007FFC00000
00000FFF800000
00001FFF000000
00003FFE000000
00007FFC000000
0000FFF8000000
0001FFFF800000
0003FFFFF00000
0007FFFFFC0000
0007FFFFFF0000
0007FFFFFFC000
0003FFFFFFE000
0001FFFFFFF000
0001FFFFFFF800
0000FE1FFFFC00
0000E001FFFE00
000000007FFE00
000000001FFF00
000000000FFF00
0000000007FF80
0000000003FF80
0000000001FFC0
0000000001FFC0
0000000000FFC0
0000000000FFC0
0000000000FFE0
00000000007FE0
00000000007FE0
00000000007FE0
00000000007FE0
00000000007FE0
00000000007FE0
00000000007FE0
00000000007FE0
00000000007FE0
00000000007FE0
0000000000FFE0
03C0000000FFC0
1FE0000000FFC0
FFE0000001FFC0
7FF0000001FFC0
7FF0000003FF80
3FF8000007FF80
3FFC00000FFF00
1FFE00001FFF00
1FFF80007FFE00
0FFFE001FFFC00
07FFFC1FFFFC00
03FFFFFFFFF800
03FFFFFFFFF000
00FFFFFFFFE000
007FFFFFFFC000
003FFFFFFF0000
000FFFFFFE0000
0003FFFFF80000
0000FFFFE00000
00000FFE000000
ENDCHAR
STARTCHAR 0034
ENCODING 52
SWIDTH 592 0
DWIDTH 65 0
BBX 55 79 5 0
BITMAP
0000003FF80000
0000003FF80000
0000007FF00000
0000007FF00000
000000FFE00000
000000FFE00000
000001FFE00000
000001FFC00000
000003FFC00000
000003FF800000
000003FF800000
000007FF000000
000007FF000000
00000FFE000000
00000FFE000000
00001FFC000000
00001FFC000000
00003FF8000000
00003FF8000000
00007FF0000000
00007FF0000000
0000FFE0000000
0000FFE0000000
0001FFC0000000
0001FFC0000000
0003FFC0000000
0003FF80000000
0007FF80000000
0007FF00000000
0007FF00000000
000FFE00000000
000FFE00000000
001FFC00000000
001FFC0007FE00
003FF80007FE00
003FF80007FE00
007FF00007FE00
007FF00007FE00
00FFE00007FE00
00FFE00007FE00
01FFC00007FE00
01FFC00007FE00
03FF800007FE00
03FF800007FE00
07FF800007FE00
07FF000007FE00
07FF000007FE00
0FFE000007FE00
0FFE000007FE00
1FFC000007FE00
1FFC000007FE00
3FF8000007FE00
3FF8000007FE00
7FF0000007FE00
7FF0000007FE00
FFFFFFFFFFFFFE
FFFFFFFFFFFFFE
FFFFFFFFFFFFFE
FFFFFFFFFFFFFE
FFFFFFFFFFFFFE
FFFFFFFFFFFFFE
FFFFFFFFFFFFFE
FFFFFFFFFFFFFE
FFFFFFFFFFFFFE
0000000007FE00
0000000007FE00
0000000007FE00
0000000007FE00
0000000007FE00
0000000007FE00
0000000007FE00
0000000007FE00
0000000007FE00
0000000007FE00
0000000007FE00
0000000007FE00
0000000007FE00
0000000007FE00
0000000007FE00
ENDCHAR
STARTCHAR 0035
ENCODING 53
SWIDTH 583 0
DWIDTH 64 0
BBX 52 81 6 -2
BITMAP
0FFFFFFFFFFE00
0FFFFFFFFFFE00
0FFFFFFFFFFE00
0FFFFFFFFFFE00
0FFFFFFFFFFE00
0FFFFFFFFFFE00
0FFFFFFFFFFE00
0FFFFFFFFFFE00
0FFFFFFFFFFE00
0FF80000000000
0FF80000000000
0FF80000000000
0FF80000000000
0FF80000000000
1FF80000000000
1FF80000000000
1FF80000000000
1FF80000000000
1FF80000000000
1FF00000000000
1FF00000000000
1FF00000000000
1FF00000000000
1FF00000000000
1FF00000000000
1FF00000000000
1FF00000000000
1FF00000000000
1FF003FE000000
1FF03FFFE00000
1FF0FFFFFC0000
3FF3FFFFFF0000
3FFFFFFFFF8000
3FFFFFFFFFE000
3FFFFFFFFFF000
3FFFFFFFFFF800
3FFFFFFFFFFC00
3FFFF807FFFC00
3FFFC000FFFE00
3FFF00003FFF00
3FFC00000FFF80
1FF8000007FF80
07F0000003FFC0
00E0000001FFC0
0020000001FFC0
0000000000FFE0
00000000007FE0
00000000007FE0
00000000007FF0
00000000003FF0
00000000003FF0
00000000003FF0
00000000003FF0
00000000003FF0
00000000003FF0
00000000003FF0
00000000003FF0
00000000003FF0
00000000003FF0
03800000003FF0
3F800000007FE0
FFC00000007FE0
FFC0000000FFE0
FFE0000000FFC0
7FF0000001FFC0
7FF0000003FFC0
7FF8000007FF80
3FFC00000FFF80
1FFF00001FFF00
1FFF80007FFE00
0FFFF001FFFE00
07FFFFFFFFFC00
03FFFFFFFFF800
01FFFFFFFFF000
00FFFFFFFFE000
007FFFFFFF8000
003FFFFFFF0000
000FFFFFFC0000
0003FFFFF00000
0000FFFFC00000
00000FFC000000
ENDCHAR
STARTCHAR 0036
ENCODING 54
SWIDTH 619 0
DWIDTH 68 0
BBX 54 83 8 -2
BITMAP
000003FF800000
00003FFFF80000
0001FFFFFE0000
0007FFFFFF8000
000FFFFFFFE000
003FFFFFFFF000
007FFFFFFFF800
00FFFFFFFFFE00
01FFFFFFFFFF00
03FFFF83FFFF00
07FFF8003FFF80
07FFE0000FFF00
0FFF800007FE00
1FFF000001FC00
1FFE000000F000
3FFC0000006000
3FF80000004000
3FF00000000000
7FF00000000000
7FE00000000000
7FE00000000000
FFE00000000000
FFC00000000000
FFC00000000000
FFC00000000000
FFC00000000000
FFC00000000000
FFC00000000000
FFC00000000000
FFC00000000000
FFC001FF800000
FFC01FFFF80000
FFC07FFFFE0000
FFC1FFFFFF8000
FFC3FFFFFFE000
FFCFFFFFFFF000
FFDFFFFFFFF800
FFFFFFFFFFFC00
FFFFFFFFFFFE00
FFFFFE01FFFF00
FFFFF0003FFF80
FFFFC0001FFF80
FFFF000007FFC0
FFFE000003FFC0
FFFC000001FFE0
FFF8000000FFE0
FFF80000007FF0
FFF00000007FF0
FFE00000003FF0
FFE00000003FF8
FFE00000001FF8
FFC00000001FF8
FFC00000001FF8
FFC00000001FF8
FFC00000000FF8
FFC00000000FFC
FFC00000000FFC
FFC00000000FFC
FFC00000000FF8
FFC00000001FF8
FFC00000001FF8
FFC00000001FF8
7FE00000001FF8
7FE00000003FF8
7FF00000003FF0
7FF00000007FF0
3FF8000000FFF0
3FFC000000FFE0
1FFE000001FFE0
1FFF000003FFC0
0FFF80000FFF80
07FFE0001FFF80
07FFF800FFFF00
03FFFFDFFFFE00
01FFFFFFFFFC00
00FFFFFFFFF800
007FFFFFFFF000
003FFFFFFFE000
000FFFFFFFC000
0007FFFFFF0000
0001FFFFFC0000
00003FFFF00000
000007FF000000
ENDCHAR
STARTCHAR 0037
ENCODING 55
SWIDTH 510 0
DWIDTH 56 0
BBX 47 79 4 0
BITMAP
FFFFFFFFFFFE
FFFFFFFFFFFE
FFFFFFFFFFFE
FFFFFFFFFFFE
FFFFFFFFFFFE
FFFFFFFFFFFE
FFFFFFFFFFFE
FFFFFFFFFFFE
FFFFFFFFFFFE
000000000FFE
000000000FFC
000000001FFC
000000001FF8
000000001FF8
000000003FF8
000000003FF0
000000007FF0
000000007FE0
000000007FE0
00000000FFE0
00000000FFC0
00000001FFC0
00000001FF80
00000003FF80
00000003FF80
00000003FF00
00000007FF00
00000007FE00
0000000FFE00
0000000FFE00
0000000FFC00
0000001FFC00
0000001FF800
0000003FF800
0000003FF800
0000003FF000
0000007FF000
0000007FE000
000000FFE000
000000FFC000
000000FFC000
000001FFC000
000001FF8000
000003FF8000
000003FF0000
000003FF0000
000007FF0000
000007FE0000
00000FFE0000
00000FFC0000
00001FFC0000
00001FFC0000
00001FF80000
00003FF80000
00003FF00000
00007FF00000
00007FF00000
00007FE00000
0000FFE00000
0000FFC00000
0001FFC00000
0001FFC00000
0001FF800000
0003FF800000
0003FF000000
0007FF000000
0007FE000000
0007FE000000
000FFE000000
000FFC000000
001FFC000000
001FF8000000
003FF8000000
003FF8000000
003FF0000000
007FF0000000
007FE0000000
00FFE0000000
00FFE0000000
ENDCHAR
STARTCHAR 0038
ENCODING 56
SWIDTH 592 0
DWIDTH 65 0
BBX 51 83 7 -2
BITMAP
00000FFE000000
0000FFFFE00000
0007FFFFF80000
001FFFFFFE0000
003FFFFFFF8000
007FFFFFFFC000
01FFFFFFFFE000
03FFFFFFFFF000
03FFFFFFFFF800
07FFFF3FFFFC00
0FFFE000FFFC00
0FFF80003FFE00
1FFF00001FFE00
1FFE00000FFF00
1FFC000007FF00
3FF8000007FF00
3FF8000003FF80
3FF0000003FF80
3FF0000003FF80
3FF0000001FF80
3FF0000001FF80
7FF0000001FF80
7FF0000001FF80
3FF0000001FF80
3FF0000001FF80
3FF0000003FF80
3FF8000003FF80
3FF8000003FF00
3FFC000007FF00
1FFC00000FFF00
1FFE00000FFE00
0FFF00003FFE00
0FFFC0007FFC00
07FFF803FFFC00
03FFFFFFFFF800
03FFFFFFFFF000
01FFFFFFFFE000
007FFFFFFFC000
003FFFFFFF8000
00FFFFFFFFC000
01FFFFFFFFE000
03FFFFFFFFF800
07FFFFFFFFFC00
0FFFFF1FFFFC00
0FFFE000FFFE00
1FFF80003FFF00
3FFE00000FFF00
3FFC000007FF80
7FF8000003FF80
7FF0000003FFC0
7FF0000001FFC0
FFE0000000FFC0
FFE0000000FFE0
FFE0000000FFE0
FFC0000000FFE0
FFC00000007FE0
FFC00000007FE0
FFC00000007FE0
FFC00000007FE0
FFC00000007FE0
FFC00000007FE0
FFC00000007FE0
FFC0000000FFE0
FFC0000000FFE0
FFE0000000FFE0
FFE0000000FFC0
7FF0000001FFC0
7FF0000003FFC0
7FF8000003FF80
3FFC000007FF80
3FFE00000FFF00
1FFF00003FFF00
0FFFC000FFFE00
0FFFFE0FFFFE00
07FFFFFFFFFC00
03FFFFFFFFF800
01FFFFFFFFF000
00FFFFFFFFE000
003FFFFFFF8000
001FFFFFFF0000
0007FFFFFC0000
0000FFFFE00000
00001FFE000000
ENDCHAR
STARTCHAR 0039
ENCODING 57
SWIDTH 619 0
DWIDTH 68 0
BBX 53 83 7 -2
BITMAP
000007FF000000
00003FFFE00000
0001FFFFFC0000
0007FFFFFF0000
000FFFFFFF8000
003FFFFFFFE000
007FFFFFFFF000
00FFFFFFFFF800
01FFFFFFFFFC00
03FFFFDFFFFE00
07FFF800FFFF00
0FFFC0001FFF00
0FFF80000FFF80
1FFF000007FFC0
3FFC000001FFC0
3FFC000001FFE0
3FF8000000FFE0
7FF00000007FF0
7FE00000007FF0
7FE00000003FF0
FFE00000003FF8
FFC00000001FF8
FFC00000001FF8
FFC00000001FF8
FFC00000001FF8
FF800000001FF8
FF800000001FF8
FF800000001FF8
FFC00000001FF8
FFC00000001FF8
FFC00000001FF8
FFC00000001FF8
FFC00000003FF8
FFE00000003FF8
7FE00000003FF8
7FF00000007FF8
7FF0000000FFF8
3FF8000000FFF8
3FFC000001FFF8
1FFE000003FFF8
1FFF000007FFF8
0FFFC0001FFFF8
0FFFE0007FFFF8
07FFFC03FFFFF8
03FFFFFFFFFFF8
01FFFFFFFFEFF8
00FFFFFFFFCFF8
007FFFFFFF8FF8
001FFFFFFE0FF8
000FFFFFFC0FF8
0003FFFFF00FF8
00007FFFC00FF8
00000FFC000FF8
00000000000FF8
00000000000FF8
00000000000FF8
00000000001FF8
00000000001FF8
00000000001FF8
00000000001FF8
00000000001FF8
00000000001FF8
00000000003FF0
00000000003FF0
00000000007FF0
00000000007FF0
0010000000FFE0
0030000001FFE0
0078000003FFC0
00FC000007FFC0
03FF00000FFF80
07FF80003FFF00
0FFFE000FFFF00
07FFFE0FFFFE00
03FFFFFFFFFC00
03FFFFFFFFF800
00FFFFFFFFF000
007FFFFFFFE000
003FFFFFFF8000
000FFFFFFF0000
0003FFFFFC0000
0000FFFFE00000
00000FFE000000
ENDCHAR
STARTCHAR 003A
ENCODING 58
SWIDTH 309 0
DWIDTH 34 0
BBX 11 43 12 8
BITMAP
FFE0
FFE0
FFE0
FFE0
FFE0
FFE0
FFE0
FFE0
FFE0
FFE0
FFE0
0000
0000
0000
0000
0000
0000
0000
0000
0000
0000
0000
0000
0000
0000
0000
0000
0000
0000
0000
0000
0000
FFE0
FFE0
FFE0
FFE0
FFE0
FFE0
FFE0
FFE0
FFE0
FFE0
FFE0
ENDCHAR
STARTCHAR 003B
ENCODING 59
SWIDTH 318 0
DWIDTH 35 0
BBX 11 72 12 -14
BITMAP
FFE0
FFE0
FFE0
FFE0
FFE0
FFE0
FFE0
FFE0
FFE0
FFE0
FFE0
0000
0000
0000
0000
0000
0000
0000
0000
0000
0000
0000
0000
0000
0000
0000
0000
0000
0000
0000
0000
0000
0000
0000
0000
0000
0000
0000
0000
0000
0000
0000
0000
0000
0000
0000
0000
FFE0
FFE0
FFE0
FFE0
FFE0
FFE0
FFE0
FFE0
FFE0
FFE0
FFE0
FFE0
03E0
03E0
03E0
03E0
07E0
07C0
07C0
1FC0
7F80
FF80
FF00
FE00
F800
ENDCHAR
STARTCHAR 003C
ENCODING 60
SWIDTH 619 0
DWIDTH 68 0
BBX 31 52 16 9
BITMAP
00000040
000000E0
000001F0
000003F8
000007FC
00000FFE
00001FFE
00003FFC
00007FF8
0000FFF0
0001FFE0
0003FFC0
0007FF80
000FFF00
001FFE00
003FFC00
007FF800
00FFF000
01FFE000
03FFC000
07FF8000
0FFF0000
1FFE0000
3FFC0000
7FF80000
FFF00000
FFF00000
7FF80000
3FFC0000
1FFE0000
0FFF0000
07FF8000
03FFC000
01FFE000
00FFF000
007FF800
003FFC00
001FFE00
000FFF00
0007FF80
0003FFC0
0001FFE0
0000FFF0
00007FF8
00003FFC
00001FFE
00000FFE
000007FC
000003F8
000001F0
000000E0
00000040
ENDCHAR
STARTCHAR 003D
ENCODING 61
SWIDTH 747 0
DWIDTH 82 0
BBX 56 27 13 26
BITMAP
FFFFFFFFFFFFFF
FFFFFFFFFFFFFF
FFFFFFFFFFFFFF
FFFFFFFFFFFFFF
FFFFFFFFFFFFFF
FFFFFFFFFFFFFF
FFFFFFFFFFFFFF
FFFFFFFFFFFFFF
00000000000000
00000000000000
00000000000000
00000000000000
00000000000000
00000000000000
00000000000000
00000000000000
00000000000000
00000000000000
00000000000000
FFFFFFFFFFFFFF
FFFFFFFFFFFFFF
FFFFFFFFFFFFFF
FFFFFFFFFFFFFF
FFFFFFFFFFFFFF
FFFFFFFFFFFFFF
FFFFFFFFFFFFFF
FFFFFFFFFFFFFF
ENDCHAR
STARTCHAR 003E
ENCODING 62
SWIDTH 619 0
DWIDTH 68 0
BBX 31 52 21 9
BITMAP
04000000
0E000000
1F000000
3F800000
7FC00000
FFE00000
FFF00000
7FF80000
3FFC0000
1FFE0000
0FFF0000
07FF8000
03FFC000
01FFE000
00FFF000
007FF800
003FFC00
001FFE00
000FFF00
0007FF80
0003FFC0
0001FFE0
0000FFF0
00007FF8
00003FFC
00001FFE
00001FFE
00003FFC
00007FF8
0000FFF0
0001FFE0
0003FFC0
0007FF80
000FFF00
001FFE00
003FFC00
007FF800
00FFF000
01FFE000
03FFC000
07FF8000
0FFF0000
1FFE0000
3FFC0000
7FF80000
FFF00000
FFE00000
7FC00000
3F800000
1F000000
0E000000
04000000
ENDCHAR
STARTCHAR 003F
ENCODING 63
SWIDTH 537 0
DWIDTH 59 0
BBX 48 81 5 0
BITMAP
00001FFC0000
0001FFFFC000
000FFFFFF000
001FFFFFFC00
007FFFFFFF00
00FFFFFFFF80
01FFFFFFFFC0
03FFFFFFFFE0
07FFFFFFFFF0
0FFFFC1FFFF8
0FFFC001FFF8
1FFF00007FFC
1FFC00003FFC
3FF800001FFE
3FF800000FFE
3FF000000FFE
7FF0000007FE
7FE0000007FF
7FE0000007FF
7FE0000003FF
7FE0000003FF
FFE0000003FF
0000000003FF
0000000003FF
0000000007FF
0000000007FF
0000000007FE
0000000007FE
000000000FFE
000000000FFE
000000001FFC
000000003FFC
000000003FF8
00000000FFF8
00000001FFF0
00000003FFE0
00000007FFC0
0000000FFFC0
0000003FFF80
0000007FFF00
000000FFFE00
000001FFF800
000003FFF000
000003FFE000
000007FFC000
00000FFF8000
00000FFF0000
00001FFE0000
00001FFC0000
00001FFC0000
00001FF80000
00003FF80000
00003FF00000
00003FF00000
00003FF00000
00003FF00000
00003FF00000
00003FF00000
00003FF00000
000000000000
000000000000
000000000000
000000000000
000000000000
000000000000
000000000000
000000000000
000000000000
000000000000
00003FF00000
00003FF00000
00003FF00000
00003FF00000
00003FF00000
00003FF00000
00003FF00000
00003FF00000
00003FF00000
00003FF00000
00003FF00000
00003FF00000
ENDCHAR
STARTCHAR 0040
ENCODING 64
SWIDTH 911 0
DWIDTH 100 0
BBX 82 82 9 -11
BITMAP
000000003FFF0000000000
00000007FFFFF800000000
0000003FFFFFFF80000000
000001FFFFFFFFE0000000
000007FFFFFFFFFC000000
00001FFFFFFFFFFE000000
00007FFFFFFFFFFF800000
0000FFFFFFFFFFFFE00000
0001FFFFF001FFFFF00000
0007FFFE00000FFFF80000
000FFFF0000001FFFC0000
001FFFC00000007FFE0000
003FFF000000001FFF0000
007FFC0000000007FF8000
007FF80000000003FFC000
00FFE00000000001FFE000
01FFC00000000000FFE000
03FF8000000000007FF000
03FF0000000000003FF800
07FF0000000000001FF800
07FE0000000000000FFC00
0FFC00000000000007FC00
0FF800000000000007FE00
1FF800000000000003FE00
1FF000001FF0000003FE00
1FF00000FFFE000001FF00
3FE00003FFFF9F8001FF00
3FE00007FFFFFF8001FF00
3FE0001FFFFFFF8000FF80
7FC0003FFFFFFF8000FF80
7FC0007FFFFFFF8000FF80
7FC0007FFFFFFF8000FF80
7F8000FFF81FFF80007F80
FF8000FFE003FF80007F80
FF8001FF8001FF80007FC0
FF8001FF0000FF80007FC0
FF8001FF0000FF80007FC0
FF8003FE00007F80007FC0
FF0003FE00007F80007FC0
FF0003FE00007F80007FC0
FF0003FC00007F80007FC0
FF0003FC00003F80007FC0
FF0003FC00003F80007F80
FF0003FC00003F80007F80
FF0003FE00007F80007F80
FF8003FE00007F8000FF80
FF8003FE00007F8000FF80
FF8003FE0000FFC000FF80
FF8001FF0000FFC001FF00
FF8001FF8001FFC001FF00
7F8000FFC003FFE003FF00
7FC000FFF80FFFF007FE00
7FC0007FFFFFFFFC0FFE00
7FC0007FFFFFFFFFFFFC00
3FE0003FFFFFFFFFFFFC00
3FE0001FFFFFFFFFFFF800
3FF0000FFFFFC7FFFFF000
1FF00003FFFF83FFFFE000
1FF80000FFFE01FFFFC000
1FF800003FF8007FFF0000
0FFC00000000000FFC0000
0FFE000000000000000000
07FE000000000000000000
03FF000000000000000000
03FF800000000000000000
01FFC00000000000000000
00FFE00000000000000000
00FFF80000000000000000
007FFC0000000000000000
003FFE0000000000000000
001FFF8000000040000000
000FFFF0000003C0000000
0007FFFE00000FC0000000
0001FFFFE001FFE0000000
0000FFFFFFFFFFE0000000
00007FFFFFFFFFF0000000
00001FFFFFFFFFF0000000
000007FFFFFFFFF0000000
000001FFFFFFFFC0000000
0000003FFFFFFF00000000
00000007FFFFF800000000
000000007FFF0000000000
ENDCHAR
STARTCHAR 0041
ENCODING 65
SWIDTH 647 0
DWIDTH 71 0
BBX 67 79 2 0
BITMAP
0000003FFF00000000
0000003FFF80000000
0000003FFF80000000
0000007FFF80000000
0000007FFFC0000000
0000007FFFC0000000
000000FFFFC0000000
000000FFFFE0000000
000000FFFFE0000000
000001FFFFE0000000
000001FFFFF0000000
000001FFBFF0000000
000003FFBFF0000000
000003FF3FF8000000
000003FF1FF8000000
000007FF1FF8000000
000007FE1FFC000000
000007FE0FFC000000
00000FFE0FFC000000
00000FFC0FFE000000
00000FFC07FE000000
00001FFC07FE000000
00001FF807FF000000
00001FF803FF000000
00003FF803FF000000
00003FF003FF800000
00003FF001FF800000
00007FF001FF800000
00007FE000FFC00000
00007FE000FFC00000
0000FFC000FFC00000
0000FFC0007FE00000
0000FFC0007FE00000
0001FF80007FE00000
0001FF80003FF00000
0001FF80003FF00000
0003FF00003FF00000
0003FF00001FF80000
0003FF00001FF80000
0007FE00001FF80000
0007FE00000FFC0000
0007FE00000FFC0000
000FFC00000FFC0000
000FFC000007FE0000
000FFC000007FE0000
001FF8000007FE0000
001FF8000003FF0000
001FF8000003FF0000
003FF0000003FF0000
003FF0000001FF8000
003FF0000001FF8000
007FFFFFFFFFFF8000
007FFFFFFFFFFFC000
007FFFFFFFFFFFC000
00FFFFFFFFFFFFC000
00FFFFFFFFFFFFE000
00FFFFFFFFFFFFE000
01FFFFFFFFFFFFE000
01FFFFFFFFFFFFF000
01FFFFFFFFFFFFF000
03FF000000003FF000
03FF000000001FF800
03FF000000001FF800
07FE000000001FF800
07FE000000000FFC00
07FE000000000FFC00
0FFC000000000FFC00
0FFC0000000007FE00
0FFC0000000007FE00
1FF80000000007FF00
1FF80000000003FF00
1FF80000000003FF00
3FF00000000003FF80
3FF00000000001FF80
3FF00000000001FF80
7FE00000000001FFC0
7FE00000000000FFC0
7FE00000000000FFC0
FFE00000000000FFE0
ENDCHAR
STARTCHAR 0042
ENCODING 66
SWIDTH 619 0
DWIDTH 68 0
BBX 57 79 8 0
BITMAP
FFFFFFFFF0000000
FFFFFFFFFE000000
FFFFFFFFFFC00000
FFFFFFFFFFE00000
FFFFFFFFFFF80000
FFFFFFFFFFFC0000
FFFFFFFFFFFE0000
FFFFFFFFFFFF0000
FFFFFFFFFFFF8000
FFC000007FFFC000
FFC000000FFFC000
FFC0000003FFE000
FFC0000001FFE000
FFC0000000FFF000
FFC00000007FF000
FFC00000003FF000
FFC00000003FF000
FFC00000003FF800
FFC00000001FF800
FFC00000001FF800
FFC00000001FF800
FFC00000001FF800
FFC00000001FF800
FFC00000001FF800
FFC00000003FF800
FFC00000003FF000
FFC00000003FF000
FFC00000007FF000
FFC0000000FFE000
FFC0000001FFE000
FFC0000003FFE000
FFC0000007FFC000
FFC000003FFF8000
FFFFFFFFFFFF8000
FFFFFFFFFFFF0000
FFFFFFFFFFFE0000
FFFFFFFFFFF80000
FFFFFFFFFFF80000
FFFFFFFFFFFE0000
FFFFFFFFFFFF0000
FFFFFFFFFFFF8000
FFFFFFFFFFFFE000
FFC000001FFFF000
FFC0000001FFF000
FFC0000000FFF800
FFC00000003FFC00
FFC00000001FFC00
FFC00000000FFE00
FFC00000000FFE00
FFC000000007FF00
FFC000000007FF00
FFC000000003FF00
FFC000000003FF00
FFC000000003FF00
FFC000000003FF80
FFC000000001FF80
FFC000000001FF80
FFC000000001FF80
FFC000000003FF80
FFC000000003FF00
FFC000000003FF00
FFC000000003FF00
FFC000000007FF00
FFC000000007FF00
FFC00000000FFE00
FFC00000001FFE00
FFC00000003FFE00
FFC0000000FFFC00
FFC0000003FFFC00
FFC000003FFFF800
FFFFFFFFFFFFF000
FFFFFFFFFFFFF000
FFFFFFFFFFFFE000
FFFFFFFFFFFFC000
FFFFFFFFFFFF0000
FFFFFFFFFFFE0000
FFFFFFFFFFF80000
FFFFFFFFFFE00000
FFFFFFFFFE000000
ENDCHAR
STARTCHAR 0043
ENCODING 67
SWIDTH 720 0
DWIDTH 79 0
BBX 72 83 3 -2
BITMAP
00000003FFF0000000
0000003FFFFF800000
000001FFFFFFF00000
00000FFFFFFFFC0000
00003FFFFFFFFF0000
00007FFFFFFFFFC000
0001FFFFFFFFFFE000
0003FFFFFFFFFFF000
0007FFFFFFFFFFFC00
000FFFFFC0FFFFFE00
001FFFF80003FFFE00
003FFFC00000FFFF00
007FFF0000003FFF80
00FFFC0000000FFFC0
00FFF800000007FFE0
01FFF000000003FFE0
03FFE000000000FFF0
03FFC000000000FFF8
07FF80000000007FF8
07FF00000000003FFC
0FFF00000000001FFC
0FFE00000000001FFC
1FFE00000000000FFE
1FFC00000000000FFE
1FFC000000000007FE
3FF8000000000007FF
3FF8000000000007FC
3FF8000000000003C0
3FF000000000000000
7FF000000000000000
7FF000000000000000
7FF000000000000000
7FE000000000000000
7FE000000000000000
7FE000000000000000
7FE000000000000000
FFE000000000000000
FFE000000000000000
FFE000000000000000
FFE000000000000000
FFE000000000000000
FFE000000000000000
FFE000000000000000
FFE000000000000000
FFE000000000000000
FFE000000000000000
FFE000000000000000
7FE000000000000000
7FE000000000000000
7FE000000000000000
7FE000000000000000
7FE000000000000000
7FF000000000000000
7FF000000000000000
3FF000000000000000
3FF0000000000003C0
3FF8000000000007FC
3FF8000000000007FF
1FFC000000000007FE
1FFC00000000000FFE
1FFC00000000000FFE
0FFE00000000001FFC
0FFF00000000001FFC
07FF00000000003FFC
07FF80000000007FF8
03FFC000000000FFF8
03FFE000000001FFF0
01FFF000000003FFE0
00FFF800000007FFE0
00FFFC0000000FFFC0
007FFF0000003FFF80
003FFFC00000FFFF00
001FFFF80003FFFF00
000FFFFFC0FFFFFE00
0007FFFFFFFFFFF800
0003FFFFFFFFFFF000
0001FFFFFFFFFFE000
00007FFFFFFFFFC000
00003FFFFFFFFF0000
00000FFFFFFFFC0000
000001FFFFFFF00000
0000003FFFFF800000
00000003FFF0000000
ENDCHAR
STARTCHAR 0044
ENCODING 68
SWIDTH 683 0
DWIDTH 75 0
BBX 62 79 8 0
BITMAP
FFFFFFFFC0000000
FFFFFFFFFE000000
FFFFFFFFFFC00000
FFFFFFFFFFF00000
FFFFFFFFFFFC0000
FFFFFFFFFFFE0000
FFFFFFFFFFFF0000
FFFFFFFFFFFFC000
FFFFFFFFFFFFE000
FFC00007FFFFF000
FFC000001FFFF800
FFC0000003FFF800
FFC0000000FFFC00
FFC00000003FFE00
FFC00000001FFE00
FFC00000000FFF00
FFC000000007FF80
FFC000000007FF80
FFC000000003FFC0
FFC000000001FFC0
FFC000000001FFC0
FFC000000000FFE0
FFC000000000FFE0
FFC0000000007FE0
FFC0000000007FF0
FFC0000000007FF0
FFC0000000003FF0
FFC0000000003FF8
FFC0000000003FF8
FFC0000000003FF8
FFC0000000001FF8
FFC0000000001FF8
FFC0000000001FF8
FFC0000000001FF8
FFC0000000001FFC
FFC0000000001FFC
FFC0000000001FFC
FFC0000000001FFC
FFC0000000001FFC
FFC0000000001FFC
FFC0000000001FFC
FFC0000000001FFC
FFC0000000001FFC
FFC0000000001FFC
FFC0000000001FFC
FFC0000000001FF8
FFC0000000001FF8
FFC0000000001FF8
FFC0000000001FF8
FFC0000000003FF8
FFC0000000003FF8
FFC0000000003FF8
FFC0000000003FF0
FFC0000000007FF0
FFC0000000007FF0
FFC0000000007FE0
FFC000000000FFE0
FFC000000000FFE0
FFC000000001FFC0
FFC000000001FFC0
FFC000000003FFC0
FFC000000007FF80
FFC000000007FF80
FFC00000000FFF00
FFC00000001FFE00
FFC00000007FFE00
FFC0000000FFFC00
FFC0000003FFF800
FFC000000FFFF800
FFC00007FFFFF000
FFFFFFFFFFFFE000
FFFFFFFFFFFFC000
FFFFFFFFFFFF8000
FFFFFFFFFFFE0000
FFFFFFFFFFFC0000
FFFFFFFFFFF00000
FFFFFFFFFFC00000
FFFFFFFFFE000000
FFFFFFFFC0000000
ENDCHAR
STARTCHAR 0045
ENCODING 69
SWIDTH 574 0
DWIDTH 63 0
BBX 50 79 8 0
BITMAP
FFFFFFFFFFFFC0
FFFFFFFFFFFFC0
FFFFFFFFFFFFC0
FFFFFFFFFFFFC0
FFFFFFFFFFFFC0
FFFFFFFFFFFFC0
FFFFFFFFFFFFC0
FFFFFFFFFFFFC0
FFFFFFFFFFFFC0
FF800000000000
FF800000000000
FF800000000000
FF800000000000
FF800000000000
FF800000000000
FF800000000000
FF800000000000
FF800000000000
FF800000000000
FF800000000000
FF800000000000
FF800000000000
FF800000000000
FF800000000000
FF800000000000
FF800000000000
FF800000000000
FF800000000000
FF800000000000
FF800000000000
FF800000000000
FF800000000000
FF800000000000
FF800000000000
FFFFFFFFFFE000
FFFFFFFFFFE000
FFFFFFFFFFE000
FFFFFFFFFFE000
FFFFFFFFFFE000
FFFFFFFFFFE000
FFFFFFFFFFE000
FFFFFFFFFFE000
FFFFFFFFFFE000
FF800000000000
FF800000000000
FF800000000000
FF800000000000
FF800000000000
FF800000000000
FF800000000000
FF800000000000
FF800000000000
FF800000000000
FF800000000000
FF800000000000
FF800000000000
FF800000000000
FF800000000000
FF800000000000
FF800000000000
FF800000000000
FF800000000000
FF800000000000
FF800000000000
FF800000000000
FF800000000000
FF800000000000
FF800000000000
FF800000000000
FF800000000000
FFFFFFFFFFFFC0
FFFFFFFFFFFFC0
FFFFFFFFFFFFC0
FFFFFFFFFFFFC0
FFFFFFFFFFFFC0
FFFFFFFFFFFFC0
FFFFFFFFFFFFC0
FFFFFFFFFFFFC0
FFFFFFFFFFFFC0
ENDCHAR
STARTCHAR 0046
ENCODING 70
SWIDTH 510 0
DWIDTH 56 0
BBX 46 79 8 0
BITMAP
FFFFFFFFFFFC
FFFFFFFFFFFC
FFFFFFFFFFFC
FFFFFFFFFFFC
FFFFFFFFFFFC
FFFFFFFFFFFC
FFFFFFFFFFFC
FFFFFFFFFFFC
FFFFFFFFFFFC
FFFFFFFFFFFC
FF8000000000
FF8000000000
FF8000000000
FF8000000000
FF8000000000
FF8000000000
FF8000000000
FF8000000000
FF8000000000
FF8000000000
FF8000000000
FF8000000000
FF8000000000
FF8000000000
FF8000000000
FF8000000000
FF8000000000
FF8000000000
FF8000000000
FF8000000000
FF8000000000
FF8000000000
FF8000000000
FF8000000000
FF8000000000
FFFFFFFFFE00
FFFFFFFFFE00
FFFFFFFFFE00
FFFFFFFFFE00
FFFFFFFFFE00
FFFFFFFFFE00
FFFFFFFFFE00
FFFFFFFFFE00
FFFFFFFFFE00
FFFFFFFFFE00
FF8000000000
FF8000000000
FF8000000000
FF8000000000
FF8000000000
FF8000000000
FF8000000000
FF8000000000
FF8000000000
FF8000000000
FF8000000000
FF8000000000
FF8000000000
FF8000000000
FF8000000000
FF8000000000
FF8000000000
FF8000000000
FF8000000000
FF8000000000
FF8000000000
FF8000000000
FF8000000000
FF8000000000
FF8000000000
FF8000000000
FF8000000000
FF8000000000
FF8000000000
FF8000000000
FF8000000000
FF8000000000
FF8000000000
FF8000000000
ENDCHAR
STARTCHAR 0047
ENCODING 71
SWIDTH 710 0
DWIDTH 78 0
BBX 72 83 3 -2
BITMAP
00000003FFE0000000
0000007FFFFF000000
000003FFFFFFE00000
00000FFFFFFFFC0000
00003FFFFFFFFE0000
00007FFFFFFFFF8000
0001FFFFFFFFFFC000
0003FFFFFFFFFFF000
0007FFFFFFFFFFF800
000FFFFFC1FFFFFC00
001FFFF80007FFFE00
003FFFC00001FFFE00
007FFF0000007FFF00
00FFFC0000001FFF80
01FFF80000000FFFC0
01FFF000000007FFC0
03FFE000000003FFE0
03FFC000000001FFE0
07FF8000000000FFF0
07FF00000000007FF0
0FFF00000000007FF0
0FFE00000000003FF8
1FFE00000000003FF8
1FFC00000000001FE0
1FFC00000000001C00
3FF800000000000000
3FF800000000000000
3FF800000000000000
3FF000000000000000
7FF000000000000000
7FF000000000000000
7FF000000000000000
7FE000000000000000
7FE000000000000000
7FE000000000000000
7FE000000000000000
FFE000000000000000
FFE000000000000000
FFE000000000000000
FFE000000000000000
FFE000000007FFFFFF
FFE000000007FFFFFF
FFE000000007FFFFFF
FFE000000007FFFFFF
FFE000000007FFFFFF
FFE000000007FFFFFF
FFE000000007FFFFFF
7FE000000007FFFFFF
7FE0000000000007FF
7FE0000000000007FF
7FE0000000000007FF
7FF0000000000007FF
7FF0000000000007FE
7FF0000000000007FE
3FF0000000000007FE
3FF800000000000FFE
3FF800000000000FFE
3FF800000000000FFC
1FFC00000000001FFC
1FFC00000000001FFC
0FFE00000000001FFC
0FFE00000000003FF8
0FFF00000000003FF8
07FF00000000007FF0
07FF80000000007FF0
03FFC000000000FFE0
03FFE000000001FFE0
01FFF000000003FFC0
00FFF800000007FFC0
00FFFC0000000FFF80
007FFF0000003FFF00
003FFFC00000FFFF00
001FFFF80003FFFE00
000FFFFFC07FFFFC00
0007FFFFFFFFFFF800
0003FFFFFFFFFFF000
0001FFFFFFFFFFC000
00007FFFFFFFFF8000
00001FFFFFFFFE0000
00000FFFFFFFF80000
000001FFFFFFE00000
0000003FFFFF000000
00000003FFE0000000
ENDCHAR
STARTCHAR 0048
ENCODING 72
SWIDTH 692 0
DWIDTH 76 0
BBX 61 79 8 0
BITMAP
FF80000000001FF8
FF80000000001FF8
FF80000000001FF8
FF80000000001FF8
FF80000000001FF8
FF80000000001FF8
FF80000000001FF8
FF80000000001FF8
FF80000000001FF8
FF80000000001FF8
FF80000000001FF8
FF80000000001FF8
FF80000000001FF8
FF80000000001FF8
FF80000000001FF8
FF80000000001FF8
FF80000000001FF8
FF80000000001FF8
FF80000000001FF8
FF80000000001FF8
FF80000000001FF8
FF80000000001FF8
FF80000000001FF8
FF80000000001FF8
FF80000000001FF8
FF80000000001FF8
FF80000000001FF8
FF80000000001FF8
FF80000000001FF8
FF80000000001FF8
FF80000000001FF8
FF80000000001FF8
FF80000000001FF8
FF80000000001FF8
FF80000000001FF8
FFFFFFFFFFFFFFF8
FFFFFFFFFFFFFFF8
FFFFFFFFFFFFFFF8
FFFFFFFFFFFFFFF8
FFFFFFFFFFFFFFF8
FFFFFFFFFFFFFFF8
FFFFFFFFFFFFFFF8
FFFFFFFFFFFFFFF8
FFFFFFFFFFFFFFF8
FF80000000001FF8
FF80000000001FF8
FF80000000001FF8
FF80000000001FF8
FF80000000001FF8
FF80000000001FF8
FF80000000001FF8
FF80000000001FF8
FF80000000001FF8
FF80000000001FF8
FF80000000001FF8
FF80000000001FF8
FF80000000001FF8
FF80000000001FF8
FF80000000001FF8
FF80000000001FF8
FF80000000001FF8
FF80000000001FF8
FF80000000001FF8
FF80000000001FF8
FF80000000001FF8
FF80000000001FF8
FF80000000001FF8
FF80000000001FF8
FF80000000001FF8
FF80000000001FF8
FF80000000001FF8
FF80000000001FF8
FF80000000001FF8
FF80000000001FF8
FF80000000001FF8
FF80000000001FF8
FF80000000001FF8
FF80000000001FF8
FF80000000001FF8
ENDCHAR
STARTCHAR 0049
ENCODING 73
SWIDTH 246 0
DWIDTH 27 0
BBX 10 79 9 0
BITMAP
FFC0
FFC0
FFC0
FFC0
FFC0
FFC0
FFC0
FFC0
FFC0
FFC0
FFC0
FFC0
FFC0
FFC0
FFC0
FFC0
FFC0
FFC0
FFC0
FFC0
FFC0
FFC0
FFC0
FFC0
FFC0
FFC0
FFC0
FFC0
FFC0
FFC0
FFC0
FFC0
FFC0
FFC0
FFC0
FFC0
FFC0
FFC0
FFC0
FFC0
FFC0
FFC0
FFC0
FFC0
FFC0
FFC0
FFC0
FFC0
FFC0
FFC0
FFC0
FFC0
FFC0
FFC0
FFC0
FFC0
FFC0
FFC0
FFC0
FFC0
FFC0
FFC0
FFC0
FFC0
FFC0
FFC0
FFC0
FFC0
FFC0
FFC0
FFC0
FFC0
FFC0
FFC0
FFC0
FFC0
FFC0
FFC0
FFC0
ENDCHAR
STARTCHAR 004A
ENCODING 74
SWIDTH 473 0
DWIDTH 52 0
BBX 43 81 0 -2
BITMAP
000000003FE0
000000003FE0
000000003FE0
000000003FE0
000000003FE0
000000003FE0
000000003FE0
000000003FE0
000000003FE0
000000003FE0
000000003FE0
000000003FE0
000000003FE0
000000003FE0
000000003FE0
000000003FE0
000000003FE0
000000003FE0
000000003FE0
000000003FE0
000000003FE0
000000003FE0
000000003FE0
000000003FE0
000000003FE0
000000003FE0
000000003FE0
000000003FE0
000000003FE0
000000003FE0
000000003FE0
000000003FE0
000000003FE0
000000003FE0
000000003FE0
000000003FE0
000000003FE0
000000003FE0
000000003FE0
000000003FE0
000000003FE0
000000003FE0
000000003FE0
000000003FE0
000000003FE0
000000003FE0
000000003FE0
000000003FE0
000000003FE0
000000003FE0
000000003FE0
000000003FE0
000000003FE0
000000003FE0
000000003FE0
000000007FE0
000000007FE0
000000007FE0
000000007FE0
000000007FE0
000000007FE0
000000007FE0
00C000007FE0
0FC000007FE0
FFC000007FE0
FFE00000FFE0
7FF00000FFE0
7FF00001FFC0
7FF80003FFC0
3FFE0007FF80
1FFF001FFF80
1FFFE0FFFF00
0FFFFFFFFF00
07FFFFFFFE00
03FFFFFFFC00
01FFFFFFF800
00FFFFFFF000
007FFFFFE000
001FFFFF8000
0007FFFE0000
00007FE00000
ENDCHAR
STARTCHAR 004B
ENCODING 75
SWIDTH 610 0
DWIDTH 67 0
BBX 59 79 8 0
BITMAP
FF800000000FFF00
FF800000001FFE00
FF800000003FFC00
FF800000007FF800
FF80000000FFF000
FF80000001FFE000
FF80000003FFC000
FF80000007FF8000
FF8000000FFF0000
FF8000001FFE0000
FF8000003FFC0000
FF8000007FFC0000
FF800000FFF80000
FF800001FFF00000
FF800003FFE00000
FF800003FFC00000
FF800007FF800000
FF80000FFF000000
FF80001FFE000000
FF80003FFC000000
FF80007FF8000000
FF8000FFF0000000
FF8001FFE0000000
FF8003FFC0000000
FF8007FF80000000
FF800FFF00000000
FF801FFE00000000
FF803FFE00000000
FF807FFC00000000
FF80FFF800000000
FF80FFF000000000
FF81FFE000000000
FF83FFC000000000
FF87FF8000000000
FF8FFF0000000000
FF9FFE0000000000
FFBFFC0000000000
FFFFF80000000000
FFFFF80000000000
FFFFFC0000000000
FFBFFC0000000000
FFBFFE0000000000
FF9FFF0000000000
FF8FFF8000000000
FF87FFC000000000
FF83FFE000000000
FF81FFF000000000
FF80FFF800000000
FF807FFC00000000
FF803FFE00000000
FF801FFF00000000
FF800FFF80000000
FF8007FFC0000000
FF8003FFE0000000
FF8001FFF0000000
FF8000FFF8000000
FF80007FFC000000
FF80003FFE000000
FF80001FFF000000
FF80000FFF800000
FF800007FF800000
FF800003FFC00000
FF800001FFE00000
FF800000FFF00000
FF8000007FF80000
FF8000003FFC0000
FF8000003FFE0000
FF8000001FFF0000
FF8000000FFF8000
FF80000007FFC000
FF80000003FFE000
FF80000001FFF000
FF80000000FFF800
FF800000007FFC00
FF800000003FFE00
FF800000001FFF00
FF800000000FFF80
FF8000000007FFC0
FF8000000003FFE0
ENDCHAR
STARTCHAR 004C
ENCODING 76
SWIDTH 519 0
DWIDTH 57 0
BBX 46 79 9 0
BITMAP
FFC000000000
FFC000000000
FFC000000000
FFC000000000
FFC000000000
FFC000000000
FFC000000000
FFC000000000
FFC000000000
FFC000000000
FFC000000000
FFC000000000
FFC000000000
FFC000000000
FFC000000000
FFC000000000
FFC000000000
FFC000000000
FFC000000000
FFC000000000
FFC000000000
FFC000000000
FFC000000000
FFC000000000
FFC000000000
FFC000000000
FFC000000000
FFC000000000
FFC000000000
FFC000000000
FFC000000000
FFC000000000
FFC000000000
FFC000000000
FFC000000000
FFC000000000
FFC000000000
FFC000000000
FFC000000000
FFC000000000
FFC000000000
FFC000000000
FFC000000000
FFC000000000
FFC000000000
FFC000000000
FFC000000000
FFC000000000
FFC000000000
FFC000000000
FFC000000000
FFC000000000
FFC000000000
FFC000000000
FFC000000000
FFC000000000
FFC000000000
FFC000000000
FFC000000000
FFC000000000
FFC000000000
FFC000000000
FFC000000000
FFC000000000
FFC000000000
FFC000000000
FFC000000000
FFC000000000
FFC000000000
FFC000000000
FFFFFFFFFFFC
FFFFFFFFFFFC
FFFFFFFFFFFC
FFFFFFFFFFFC
FFFFFFFFFFFC
FFFFFFFFFFFC
FFFFFFFFFFFC
FFFFFFFFFFFC
FFFFFFFFFFFC
ENDCHAR
STARTCHAR 004D
ENCODING 77
SWIDTH 847 0
DWIDTH 93 0
BBX 77 79 8 0
BITMAP
FF800000000000000FF8
FF800000000000001FF8
FFC00000000000001FF8
FFC00000000000003FF8
FFE00000000000003FF8
FFE00000000000007FF8
FFF00000000000007FF8
FFF00000000000007FF8
FFF8000000000000FFF8
FFF8000000000000FFF8
FFFC000000000001FFF8
FFFC000000000001FFF8
FFFC000000000003FFF8
FFFE000000000003FFF8
FFFE000000000007FFF8
FFFF000000000007FFF8
FFFF00000000000FFFF8
FFFF80000000000FFFF8
FFFF80000000001FFFF8
FFFFC0000000001FFFF8
FFFFC0000000003FFFF8
FFFFE0000000003FFFF8
FFFFE0000000007FEFF8
FFBFF0000000007FEFF8
FFBFF0000000007FCFF8
FF9FF800000000FFCFF8
FF9FF800000000FF8FF8
FF8FFC00000001FF8FF8
FF8FFC00000001FF8FF8
FF87FE00000003FF0FF8
FF87FE00000003FF0FF8
FF83FE00000007FE0FF8
FF83FF00000007FE0FF8
FF81FF0000000FFC0FF8
FF81FF8000000FFC0FF8
FF81FF8000001FF80FF8
FF80FFC000001FF80FF8
FF80FFC000003FF00FF8
FF807FE000003FF00FF8
FF807FE000007FE00FF8
FF803FF000007FE00FF8
FF803FF000007FC00FF8
FF801FF80000FFC00FF8
FF801FF80000FFC00FF8
FF800FFC0001FF800FF8
FF800FFC0001FF800FF8
FF8007FE0003FF000FF8
FF8007FE0003FF000FF8
FF8003FF0007FE000FF8
FF8003FF0007FE000FF8
FF8003FF800FFC000FF8
FF8001FF800FFC000FF8
FF8001FF801FF8000FF8
FF8000FFC01FF8000FF8
FF8000FFC03FF0000FF8
FF80007FE03FF0000FF8
FF80007FE07FE0000FF8
FF80003FF07FE0000FF8
FF80003FF07FE0000FF8
FF80001FF8FFC0000FF8
FF80001FF8FFC0000FF8
FF80000FFDFF80000FF8
FF80000FFDFF80000FF8
FF800007FFFF00000FF8
FF800007FFFF00000FF8
FF800007FFFE00000FF8
FF800003FFFE00000FF8
FF800003FFFC00000FF8
FF800001FFFC00000FF8
FF800001FFF800000FF8
FF800000FFF800000FF8
FF800000FFF000000FF8
FF8000007FF000000FF8
FF8000007FF000000FF8
FF8000003FE000000FF8
FF8000003FE000000FF8
FF8000001FC000000FF8
FF8000001FC000000FF8
FF8000000F8000000FF8
ENDCHAR
STARTCHAR 004E
ENCODING 78
SWIDTH 692 0
DWIDTH 76 0
BBX 61 79 8 0
BITMAP
FFC0000000001FF8
FFE0000000001FF8
FFE0000000001FF8
FFF0000000001FF8
FFF8000000001FF8
FFF8000000001FF8
FFFC000000001FF8
FFFE000000001FF8
FFFE000000001FF8
FFFF000000001FF8
FFFF800000001FF8
FFFF800000001FF8
FFFFC00000001FF8
FFFFE00000001FF8
FFFFE00000001FF8
FFFFF00000001FF8
FFFFF80000001FF8
FFFFF80000001FF8
FFFFFC0000001FF8
FFDFFE0000001FF8
FFCFFE0000001FF8
FFCFFF0000001FF8
FFC7FF8000001FF8
FFC3FF8000001FF8
FFC3FFC000001FF8
FFC1FFE000001FF8
FFC0FFE000001FF8
FFC0FFF000001FF8
FFC07FF800001FF8
FFC03FF800001FF8
FFC03FFC00001FF8
FFC01FFE00001FF8
FFC00FFE00001FF8
FFC00FFF00001FF8
FFC007FF80001FF8
FFC003FF80001FF8
FFC003FFC0001FF8
FFC001FFE0001FF8
FFC000FFE0001FF8
FFC000FFF0001FF8
FFC0007FF8001FF8
FFC0003FF8001FF8
FFC0003FFC001FF8
FFC0001FFE001FF8
FFC0000FFE001FF8
FFC0000FFF001FF8
FFC00007FF801FF8
FFC00003FF801FF8
FFC00003FFC01FF8
FFC00001FFE01FF8
FFC00000FFE01FF8
FFC00000FFF01FF8
FFC000007FF81FF8
FFC000003FF81FF8
FFC000003FFC1FF8
FFC000001FFE1FF8
FFC000000FFE1FF8
FFC000000FFF1FF8
FFC0000007FF9FF8
FFC0000003FF9FF8
FFC0000003FFDFF8
FFC0000001FFFFF8
FFC0000000FFFFF8
FFC0000000FFFFF8
FFC00000007FFFF8
FFC00000003FFFF8
FFC00000003FFFF8
FFC00000001FFFF8
FFC00000000FFFF8
FFC00000000FFFF8
FFC000000007FFF8
FFC000000003FFF8
FFC000000003FFF8
FFC000000001FFF8
FFC000000000FFF8
FFC000000000FFF8
FFC0000000007FF8
FFC0000000003FF8
FFC0000000003FF8
ENDCHAR
STARTCHAR 004F
ENCODING 79
SWIDTH 729 0
DWIDTH 80 0
BBX 74 83 3 -2
BITMAP
00000003FFF000000000
0000003FFFFF80000000
000001FFFFFFF0000000
00000FFFFFFFFC000000
00003FFFFFFFFF000000
00007FFFFFFFFF800000
0001FFFFFFFFFFE00000
0003FFFFFFFFFFF00000
0007FFFFFFFFFFF80000
000FFFFFC0FFFFFE0000
001FFFF80003FFFE0000
003FFFC00000FFFF0000
007FFF0000003FFF8000
00FFFC0000000FFFC000
00FFF800000007FFE000
01FFF000000003FFE000
03FFE000000001FFF000
03FFC000000000FFF800
07FF80000000007FF800
07FF00000000003FFC00
0FFF00000000001FFC00
0FFE00000000001FFC00
1FFE00000000000FFE00
1FFC00000000000FFE00
1FFC000000000007FF00
3FF8000000000007FF00
3FF8000000000007FF00
3FF8000000000003FF00
3FF0000000000003FF80
7FF0000000000003FF80
7FF0000000000003FF80
7FF0000000000001FF80
7FE0000000000001FF80
7FE0000000000001FFC0
7FE0000000000001FFC0
7FE0000000000001FFC0
FFE0000000000001FFC0
FFE0000000000001FFC0
FFE0000000000000FFC0
FFE0000000000000FFC0
FFE0000000000000FFC0
FFE0000000000000FFC0
FFE0000000000000FFC0
FFE0000000000000FFC0
FFE0000000000000FFC0
FFE0000000000001FFC0
FFE0000000000001FFC0
7FE0000000000001FFC0
7FE0000000000001FFC0
7FE0000000000001FF80
7FE0000000000001FF80
7FF0000000000001FF80
7FF0000000000003FF80
7FF0000000000003FF80
3FF0000000000003FF80
3FF8000000000003FF00
3FF8000000000007FF00
3FF8000000000007FF00
1FFC000000000007FF00
1FFC00000000000FFE00
1FFE00000000000FFE00
0FFE00000000001FFC00
0FFF00000000001FFC00
07FF00000000003FFC00
07FF80000000007FF800
03FFC000000000FFF800
03FFE000000000FFF000
01FFF000000001FFE000
00FFF800000007FFE000
00FFFC0000000FFFC000
007FFF0000003FFF8000
003FFFC00000FFFF0000
001FFFF80003FFFF0000
000FFFFFC07FFFFE0000
0007FFFFFFFFFFFC0000
0003FFFFFFFFFFF00000
0001FFFFFFFFFFE00000
00007FFFFFFFFFC00000
00003FFFFFFFFF000000
00000FFFFFFFFC000000
000001FFFFFFF0000000
0000003FFFFF80000000
00000003FFF000000000
ENDCHAR
STARTCHAR 0050
ENCODING 80
SWIDTH 619 0
DWIDTH 68 0
BBX 56 79 8 0
BITMAP
FFFFFFFFF80000
FFFFFFFFFF8000
FFFFFFFFFFE000
FFFFFFFFFFF800
FFFFFFFFFFFE00
FFFFFFFFFFFF00
FFFFFFFFFFFF80
FFFFFFFFFFFFC0
FFFFFFFFFFFFE0
FF8000003FFFF0
FF80000003FFF0
FF80000000FFF8
FF800000007FFC
FF800000003FFC
FF800000001FFC
FF800000000FFE
FF800000000FFE
FF8000000007FE
FF8000000007FF
FF8000000007FF
FF8000000003FF
FF8000000003FF
FF8000000003FF
FF8000000003FF
FF8000000003FF
FF8000000003FF
FF8000000003FF
FF8000000003FF
FF8000000003FF
FF8000000003FF
FF8000000007FF
FF8000000007FF
FF8000000007FE
FF800000000FFE
FF800000000FFE
FF800000001FFC
FF800000003FFC
FF800000007FFC
FF80000000FFF8
FF80000003FFF0
FF8000003FFFF0
FFFFFFFFFFFFE0
FFFFFFFFFFFFC0
FFFFFFFFFFFF80
FFFFFFFFFFFF00
FFFFFFFFFFFE00
FFFFFFFFFFF800
FFFFFFFFFFF000
FFFFFFFFFF8000
FFFFFFFFF80000
FF800000000000
FF800000000000
FF800000000000
FF800000000000
FF800000000000
FF800000000000
FF800000000000
FF800000000000
FF800000000000
FF800000000000
FF800000000000
FF800000000000
FF800000000000
FF800000000000
FF800000000000
FF800000000000
FF800000000000
FF800000000000
FF800000000000
FF800000000000
FF800000000000
FF800000000000
FF800000000000
FF800000000000
FF800000000000
FF800000000000
FF800000000000
FF800000000000
FF800000000000
ENDCHAR
STARTCHAR 0051
ENCODING 81
SWIDTH 729 0
DWIDTH 80 0
BBX 74 83 3 -2
BITMAP
00000003FFF000000000
0000003FFFFF80000000
000001FFFFFFF0000000
00000FFFFFFFFC000000
00003FFFFFFFFF000000
00007FFFFFFFFF800000
0001FFFFFFFFFFE00000
0003FFFFFFFFFFF00000
0007FFFFFFFFFFF80000
000FFFFFC0FFFFFE0000
001FFFF80003FFFE0000
003FFFC00000FFFF0000
007FFF0000003FFF8000
00FFFC0000000FFFC000
00FFF800000007FFE000
01FFF000000003FFE000
03FFE000000001FFF000
03FFC000000000FFF800
07FF80000000007FF800
07FF00000000003FFC00
0FFF00000000001FFC00
0FFE00000000001FFC00
1FFE00000000000FFE00
1FFC00000000000FFE00
1FFC000000000007FF00
3FF8000000000007FF00
3FF8000000000007FF00
3FF8000000000003FF00
3FF0000000000003FF80
7FF0000000000003FF80
7FF0000000000003FF80
7FF0000000000001FF80
7FE0000000000001FF80
7FE0000000000001FFC0
7FE0000000000001FFC0
7FE0000000000001FFC0
FFE0000000000001FFC0
FFE0000000000001FFC0
FFE0000000000000FFC0
FFE0000000000000FFC0
FFE0000000000000FFC0
FFE0000000000000FFC0
FFE0000000000000FFC0
FFE0000000000000FFC0
FFE0000000000000FFC0
FFE0000000000001FFC0
FFE0000000000001FFC0
7FE0000000000001FFC0
7FE0000000000001FFC0
7FE0000000000001FFC0
7FE0000000000001FF80
7FF0000000000001FF80
7FF0000000000003FF80
7FF0000000000003FF80
3FF0000000000003FF80
3FF8000000001003FF00
3FF8000000003807FF00
3FF8000000007C07FF00
1FFC00000000FE07FF00
1FFC00000001FF0FFE00
1FFE00000003FF8FFE00
0FFE00000007FFDFFC00
0FFF00000003FFFFFC00
07FF00000001FFFFFC00
07FF80000000FFFFF800
03FFC00000007FFFF800
03FFE00000003FFFF000
01FFF00000001FFFE000
00FFF80000000FFFE000
00FFFC0000000FFFC000
007FFF0000003FFFE000
003FFFC00000FFFFF000
001FFFF80003FFFFF800
000FFFFFC07FFFFFFC00
0007FFFFFFFFFFFFFE00
0003FFFFFFFFFFFFFF00
0001FFFFFFFFFFEFFF80
00007FFFFFFFFFC7FF00
00003FFFFFFFFF03FE00
00000FFFFFFFFC01FC00
000001FFFFFFF000F800
0000003FFFFF80007000
00000003FFF000002000
ENDCHAR
STARTCHAR 0052
ENCODING 82
SWIDTH 637 0
DWIDTH 70 0
BBX 58 79 8 0
BITMAP
FFFFFFFFF8000000
FFFFFFFFFF800000
FFFFFFFFFFE00000
FFFFFFFFFFF80000
FFFFFFFFFFFE0000
FFFFFFFFFFFF0000
FFFFFFFFFFFF8000
FFFFFFFFFFFFC000
FFFFFFFFFFFFE000
FF8000003FFFF000
FF80000003FFF000
FF80000000FFF800
FF800000007FFC00
FF800000003FFC00
FF800000001FFC00
FF800000000FFE00
FF800000000FFE00
FF8000000007FE00
FF8000000007FF00
FF8000000007FF00
FF8000000003FF00
FF8000000003FF00
FF8000000003FF00
FF8000000003FF00
FF8000000003FF00
FF8000000003FF00
FF8000000003FF00
FF8000000003FF00
FF8000000003FF00
FF8000000003FF00
FF8000000007FF00
FF8000000007FF00
FF8000000007FE00
FF800000000FFE00
FF800000000FFE00
FF800000001FFC00
FF800000003FFC00
FF800000007FFC00
FF80000000FFF800
FF80000003FFF000
FF8000003FFFF000
FFFFFFFFFFFFE000
FFFFFFFFFFFFC000
FFFFFFFFFFFF8000
FFFFFFFFFFFF0000
FFFFFFFFFFFE0000
FFFFFFFFFFF80000
FFFFFFFFFFF00000
FFFFFFFFFFE00000
FFFFFFFFFFE00000
FF8000007FF00000
FF8000007FF00000
FF8000003FF80000
FF8000003FF80000
FF8000001FFC0000
FF8000001FFC0000
FF8000000FFE0000
FF8000000FFE0000
FF80000007FF0000
FF80000007FF0000
FF80000003FF8000
FF80000003FF8000
FF80000001FFC000
FF80000001FFC000
FF80000000FFE000
FF80000000FFE000
FF800000007FF000
FF800000007FF000
FF800000003FF800
FF800000003FF800
FF800000001FFC00
FF800000001FFC00
FF800000000FFE00
FF800000000FFE00
FF800000000FFF00
FF8000000007FF00
FF8000000007FF80
FF8000000003FF80
FF8000000003FFC0
ENDCHAR
STARTCHAR 0053
ENCODING 83
SWIDTH 628 0
DWIDTH 69 0
BBX 61 83 4 -2
BITMAP
000000FFF8000000
00000FFFFF800000
00007FFFFFF00000
0003FFFFFFFC0000
0007FFFFFFFF0000
001FFFFFFFFFC000
003FFFFFFFFFE000
007FFFFFFFFFF000
00FFFFFFFFFFF800
01FFFFE07FFFFC00
03FFFE0003FFFE00
03FFF00000FFFF00
07FFE000003FFF00
07FF8000001FFF80
0FFF00000007FFC0
0FFE00000003FFC0
0FFE00000001FFE0
1FFC00000001FFE0
1FFC00000000FFE0
1FF800000000FFF0
1FF8000000007FF0
1FF8000000007FF0
1FF8000000003FF8
1FF8000000003FF0
1FFC000000003C00
1FFC000000000000
1FFC000000000000
1FFE000000000000
0FFF000000000000
0FFF800000000000
07FFE00000000000
07FFF80000000000
03FFFE0000000000
03FFFFC000000000
01FFFFFC00000000
00FFFFFF80000000
007FFFFFF8000000
003FFFFFFF000000
000FFFFFFFF00000
0003FFFFFFFC0000
0000FFFFFFFF8000
00001FFFFFFFE000
000003FFFFFFF800
0000007FFFFFFC00
00000007FFFFFE00
00000000FFFFFF00
000000001FFFFF80
0000000001FFFFC0
00000000003FFFC0
00000000000FFFE0
000000000003FFF0
000000000001FFF0
000000000000FFF0
0000000000007FF8
0000000000003FF8
0000000000003FF8
0000000000001FF8
0000000000001FF8
07C0000000001FF8
FFC0000000001FF8
FFE0000000001FF8
FFE0000000001FF8
7FF0000000001FF8
7FF0000000001FF8
7FF8000000003FF8
3FFC000000003FF0
3FFE000000007FF0
1FFE00000000FFF0
1FFF80000001FFE0
0FFFC0000003FFE0
0FFFE0000007FFC0
07FFF800001FFFC0
03FFFF0000FFFF80
01FFFFF80FFFFF00
00FFFFFFFFFFFE00
007FFFFFFFFFFC00
003FFFFFFFFFF800
000FFFFFFFFFF000
0007FFFFFFFFC000
0001FFFFFFFF0000
00003FFFFFFC0000
00000FFFFFE00000
0000007FFC000000
ENDCHAR
STARTCHAR 0054
ENCODING 84
SWIDTH 601 0
DWIDTH 66 0
BBX 64 79 1 0
BITMAP
FFFFFFFFFFFFFFFF
FFFFFFFFFFFFFFFF
FFFFFFFFFFFFFFFF
FFFFFFFFFFFFFFFF
FFFFFFFFFFFFFFFF
FFFFFFFFFFFFFFFF
FFFFFFFFFFFFFFFF
FFFFFFFFFFFFFFFF
FFFFFFFFFFFFFFFF
0000001FF8000000
0000001FF8000000
0000001FF8000000
0000001FF8000000
0000001FF8000000
0000001FF8000000
0000001FF8000000
0000001FF8000000
0000001FF8000000
0000001FF8000000
0000001FF8000000
0000001FF8000000
0000001FF8000000
0000001FF8000000
0000001FF8000000
0000001FF8000000
0000001FF8000000
0000001FF8000000
0000001FF8000000
0000001FF8000000
0000001FF8000000
0000001FF8000000
0000001FF8000000
0000001FF8000000
0000001FF8000000
0000001FF8000000
0000001FF8000000
0000001FF8000000
0000001FF8000000
0000001FF8000000
0000001FF8000000
0000001FF8000000
0000001FF8000000
0000001FF8000000
0000001FF8000000
0000001FF8000000
0000001FF8000000
0000001FF8000000
0000001FF8000000
0000001FF8000000
0000001FF8000000
0000001FF8000000
0000001FF8000000
0000001FF8000000
0000001FF8000000
0000001FF8000000
0000001FF8000000
0000001FF8000000
0000001FF8000000
0000001FF8000000
0000001FF8000000
0000001FF8000000
0000001FF8000000
0000001FF8000000
0000001FF8000000
0000001FF8000000
0000001FF8000000
0000001FF8000000
0000001FF8000000
0000001FF8000000
0000001FF8000000
0000001FF8000000
0000001FF8000000
0000001FF8000000
0000001FF8000000
0000001FF8000000
0000001FF8000000
0000001FF8000000
0000001FF8000000
0000001FF8000000
ENDCHAR
STARTCHAR 0055
ENCODING 85
SWIDTH 710 0
DWIDTH 78 0
BBX 62 81 8 -2
BITMAP
FFC0000000000FFC
FFC0000000000FFC
FFC0000000000FFC
FFC0000000000FFC
FFC0000000000FFC
FFC0000000000FFC
FFC0000000000FFC
FFC0000000000FFC
FFC0000000000FFC
FFC0000000000FFC
FFC0000000000FFC
FFC0000000000FFC
FFC0000000000FFC
FFC0000000000FFC
FFC0000000000FFC
FFC0000000000FFC
FFC0000000000FFC
FFC0000000000FFC
FFC0000000000FFC
FFC0000000000FFC
FFC0000000000FFC
FFC0000000000FFC
FFC0000000000FFC
FFC0000000000FFC
FFC0000000000FFC
FFC0000000000FFC
FFC0000000000FFC
FFC0000000000FFC
FFC0000000000FFC
FFC0000000000FFC
FFC0000000000FFC
FFC0000000000FFC
FFC0000000000FFC
FFC0000000000FFC
FFC0000000000FFC
FFC0000000000FFC
FFC0000000000FFC
FFC0000000000FFC
FFC0000000000FFC
FFC0000000000FFC
FFC0000000000FFC
FFC0000000000FFC
FFC0000000000FFC
FFC0000000000FFC
FFC0000000000FFC
FFC0000000000FFC
FFC0000000000FFC
FFC0000000000FFC
FFC0000000000FFC
FFC0000000000FFC
FFC0000000000FFC
FFC0000000000FFC
FFC0000000000FFC
FFC0000000000FFC
FFC0000000000FFC
FFC0000000001FFC
FFC0000000001FF8
FFE0000000001FF8
7FE0000000001FF8
7FF0000000003FF8
7FF0000000003FF8
7FF0000000007FF0
3FF800000000FFF0
3FFC00000000FFE0
1FFE00000001FFE0
1FFF00000003FFE0
0FFF80000007FFC0
0FFFC000000FFF80
07FFE000003FFF80
03FFF80000FFFF00
03FFFE0003FFFE00
01FFFFE03FFFFC00
00FFFFFFFFFFF800
007FFFFFFFFFF000
003FFFFFFFFFE000
000FFFFFFFFFC000
0007FFFFFFFF0000
0001FFFFFFFC0000
00007FFFFFF00000
00000FFFFFC00000
000000FFF8000000
ENDCHAR
STARTCHAR 0056
ENCODING 86
SWIDTH 619 0
DWIDTH 68 0
BBX 66 79 1 0
BITMAP
FFC00000000000FFC0
FFC00000000001FFC0
FFE00000000001FF80
7FE00000000001FF80
7FE00000000003FF80
7FF00000000003FF00
3FF00000000003FF00
3FF00000000007FF00
3FF80000000007FE00
1FF80000000007FE00
1FF8000000000FFE00
1FFC000000000FFC00
0FFC000000000FFC00
0FFC000000001FFC00
0FFE000000001FF800
07FE000000001FF800
07FE000000003FF800
07FF000000003FF000
03FF000000003FF000
03FF000000007FF000
03FF800000007FE000
01FF800000007FE000
01FF80000000FFE000
01FFC0000000FFC000
00FFC0000000FFC000
00FFC0000001FF8000
00FFE0000001FF8000
007FE0000001FF8000
007FE0000003FF0000
007FF0000003FF0000
003FF0000003FF0000
003FF0000007FE0000
003FF8000007FE0000
001FF8000007FE0000
001FF800000FFC0000
001FFC00000FFC0000
000FFC00000FFC0000
000FFC00001FF80000
000FFE00001FF80000
0007FE00001FF80000
0007FE00003FF00000
0007FF00003FF00000
0003FF00003FF00000
0003FF00007FE00000
0003FF80007FE00000
0001FF8000FFE00000
0001FF8000FFC00000
0001FFC000FFC00000
0000FFC001FFC00000
0000FFC001FF800000
0000FFE001FF800000
00007FE003FF800000
00007FE003FF000000
00007FF003FF000000
00003FF007FF000000
00003FF007FE000000
00003FF807FE000000
00001FF80FFE000000
00001FF80FFC000000
00001FFC0FFC000000
00000FFC1FFC000000
00000FFC1FF8000000
00000FFE1FF8000000
000007FE3FF8000000
000007FE3FF0000000
000007FF3FF0000000
000003FF7FF0000000
000003FF7FE0000000
000003FFFFE0000000
000001FFFFE0000000
000001FFFFC0000000
000001FFFFC0000000
000000FFFFC0000000
000000FFFF80000000
000000FFFF80000000
0000007FFF80000000
0000007FFF00000000
0000007FFF00000000
0000003FFF00000000
ENDCHAR
STARTCHAR 0057
ENCODING 87
SWIDTH 947 0
DWIDTH 104 0
BBX 100 79 2 0
BITMAP
FFC000000007FE000000003FF0
FFC00000000FFF000000003FF0
FFE00000000FFF000000003FF0
7FE00000000FFF000000007FE0
7FE00000000FFF000000007FE0
7FE00000001FFF800000007FE0
3FF00000001FFF80000000FFE0
3FF00000001FFF80000000FFC0
3FF00000001FFFC0000000FFC0
3FF80000003FFFC0000000FFC0
1FF80000003FFFC0000001FF80
1FF80000003FFFC0000001FF80
1FF80000007FFFE0000001FF80
0FFC0000007FFFE0000003FF80
0FFC0000007FFFE0000003FF00
0FFC0000007FFFF0000003FF00
0FFC000000FFFFF0000003FF00
07FE000000FFFFF0000007FE00
07FE000000FFFFF0000007FE00
07FE000001FF9FF8000007FE00
03FF000001FF9FF800000FFE00
03FF000001FF9FF800000FFC00
03FF000001FF0FF800000FFC00
03FF000003FF0FFC00000FFC00
01FF800003FF0FFC00001FF800
01FF800003FF0FFC00001FF800
01FF800007FE07FE00001FF800
00FFC00007FE07FE00001FF800
00FFC00007FE07FE00003FF000
00FFC00007FC03FE00003FF000
00FFC0000FFC03FF00003FF000
007FE0000FFC03FF00007FE000
007FE0000FFC03FF00007FE000
007FE0000FF801FF80007FE000
003FF0001FF801FF80007FC000
003FF0001FF801FF8000FFC000
003FF0001FF000FF8000FFC000
003FF0003FF000FFC000FFC000
001FF8003FF000FFC001FF8000
001FF8003FF000FFC001FF8000
001FF8003FE0007FE001FF8000
000FFC007FE0007FE001FF0000
000FFC007FE0007FE003FF0000
000FFC007FC0003FE003FF0000
0007FC00FFC0003FF003FF0000
0007FE00FFC0003FF007FE0000
0007FE00FFC0003FF007FE0000
0007FE00FF80001FF807FE0000
0003FE01FF80001FF807FC0000
0003FF01FF80001FF80FFC0000
0003FF01FF00000FF80FFC0000
0001FF03FF00000FFC0FFC0000
0001FF83FF00000FFC0FF80000
0001FF83FF00000FFC1FF80000
0001FF83FE000007FC1FF80000
0000FF87FE000007FE1FF00000
0000FFC7FE000007FE3FF00000
0000FFC7FC000003FE3FF00000
00007FC7FC000003FF3FF00000
00007FEFFC000003FF3FE00000
00007FEFFC000001FF7FE00000
00007FEFF8000001FF7FE00000
00003FFFF8000001FFFFC00000
00003FFFF8000001FFFFC00000
00003FFFF0000000FFFFC00000
00001FFFF0000000FFFF800000
00001FFFF0000000FFFF800000
00001FFFF00000007FFF800000
00001FFFE00000007FFF800000
00000FFFE00000007FFF000000
00000FFFE00000007FFF000000
00000FFFC00000003FFF000000
000007FFC00000003FFE000000
000007FFC00000003FFE000000
000007FFC00000001FFE000000
000007FF800000001FFE000000
000003FF800000001FFC000000
000003FF800000001FFC000000
000003FF000000000FFC000000
ENDCHAR
STARTCHAR 0058
ENCODING 88
SWIDTH 619 0
DWIDTH 68 0
BBX 66 79 1 0
BITMAP
7FF80000000007FF80
3FFC0000000007FF80
3FFC000000000FFF00
1FFE000000001FFE00
0FFF000000001FFC00
07FF000000003FFC00
07FF800000007FF800
03FFC00000007FF000
01FFC0000000FFF000
01FFE0000001FFE000
00FFF0000001FFC000
007FF0000003FFC000
007FF8000007FF8000
003FFC000007FF0000
001FFC00000FFF0000
001FFE00001FFE0000
000FFF00001FFC0000
0007FF00003FFC0000
0007FF80007FF80000
0003FFC0007FF00000
0001FFC000FFF00000
0001FFE001FFE00000
0000FFF001FFC00000
00007FF003FFC00000
00007FF807FF800000
00003FFC07FF000000
00001FFC0FFF000000
00001FFE1FFE000000
00000FFF1FFC000000
000007FF3FFC000000
000007FFFFF8000000
000003FFFFF0000000
000001FFFFF0000000
000001FFFFE0000000
000000FFFFC0000000
0000007FFF80000000
0000003FFF80000000
0000003FFF00000000
0000001FFE00000000
0000001FFE00000000
0000003FFF00000000
0000003FFF80000000
0000007FFF80000000
000000FFFFC0000000
000000FFFFE0000000
000001FFFFE0000000
000003FFFFF0000000
000007FFFFF8000000
000007FF3FFC000000
00000FFF1FFC000000
00001FFE1FFE000000
00001FFC0FFF000000
00003FFC07FF000000
00007FF807FF800000
00007FF003FFC00000
0000FFF001FFC00000
0001FFE001FFE00000
0001FFC000FFF00000
0003FFC0007FF00000
0007FF80007FF80000
0007FF00003FFC0000
000FFF00001FFC0000
001FFE00001FFE0000
001FFC00000FFF0000
003FFC000007FF0000
007FF8000007FF8000
007FF0000003FFC000
00FFF0000001FFC000
01FFE0000001FFE000
01FFC0000000FFF000
03FFC00000007FF000
07FF800000007FF800
07FF000000003FFC00
0FFF000000001FFC00
1FFE000000001FFE00
3FFC000000000FFF00
3FFC0000000007FF80
7FF80000000007FF80
FFF00000000003FFC0
ENDCHAR
STARTCHAR 0059
ENCODING 89
SWIDTH 574 0
DWIDTH 63 0
BBX 63 79 0 0
BITMAP
FFF0000000001FFE
7FF0000000001FFC
7FF8000000003FFC
3FF8000000003FF8
1FFC000000007FF0
1FFE00000000FFF0
0FFE00000000FFE0
0FFF00000001FFE0
07FF00000001FFC0
07FF80000003FFC0
03FF80000003FF80
01FFC0000007FF00
01FFE000000FFF00
00FFE000000FFE00
00FFF000001FFE00
007FF000001FFC00
007FF800003FFC00
003FF800003FF800
001FFC00007FF000
001FFE0000FFF000
000FFE0000FFE000
000FFF0001FFE000
0007FF0001FFC000
0003FF8003FF8000
0003FFC003FF8000
0001FFC007FF0000
0001FFE00FFF0000
0000FFE00FFE0000
0000FFF01FFE0000
00007FF01FFC0000
00003FF83FF80000
00003FFC3FF80000
00001FFC7FF00000
00001FFEFFF00000
00000FFEFFE00000
00000FFFFFE00000
000007FFFFC00000
000003FFFF800000
000003FFFF800000
000001FFFF000000
000001FFFF000000
000000FFFE000000
000000FFFE000000
0000007FFC000000
0000003FF8000000
0000003FF8000000
0000001FF0000000
0000001FF0000000
0000001FF0000000
0000001FF0000000
0000001FF0000000
0000001FF0000000
0000001FF0000000
0000001FF0000000
0000001FF0000000
0000001FF0000000
0000001FF0000000
0000001FF0000000
0000001FF0000000
0000001FF0000000
0000001FF0000000
0000001FF0000000
0000001FF0000000
0000001FF0000000
0000001FF0000000
0000001FF0000000
0000001FF0000000
0000001FF0000000
0000001FF0000000
0000001FF0000000
0000001FF0000000
0000001FF0000000
0000001FF0000000
0000001FF0000000
0000001FF0000000
0000001FF0000000
0000001FF0000000
0000001FF0000000
0000001FF0000000
ENDCHAR
STARTCHAR 005A
ENCODING 90
SWIDTH 628 0
DWIDTH 69 0
BBX 59 79 5 0
BITMAP
3FFFFFFFFFFFFFE0
3FFFFFFFFFFFFFE0
3FFFFFFFFFFFFFC0
3FFFFFFFFFFFFFC0
3FFFFFFFFFFFFF80
3FFFFFFFFFFFFF00
3FFFFFFFFFFFFF00
3FFFFFFFFFFFFE00
3FFFFFFFFFFFFE00
00000000003FFC00
00000000007FF800
00000000007FF800
0000000000FFF000
0000000000FFF000
0000000001FFE000
0000000003FFC000
0000000003FFC000
0000000007FF8000
0000000007FF0000
000000000FFF0000
000000001FFE0000
000000001FFE0000
000000003FFC0000
000000007FF80000
000000007FF80000
00000000FFF00000
00000000FFF00000
00000001FFE00000
00000003FFC00000
00000003FFC00000
00000007FF800000
00000007FF800000
0000000FFF000000
0000001FFE000000
0000001FFE000000
0000003FFC000000
0000007FF8000000
0000007FF8000000
000000FFF0000000
000000FFF0000000
000001FFE0000000
000003FFC0000000
000003FFC0000000
000007FF80000000
000007FF80000000
00000FFF00000000
00001FFE00000000
00001FFE00000000
00003FFC00000000
00003FFC00000000
00007FF800000000
0000FFF000000000
0000FFF000000000
0001FFE000000000
0003FFC000000000
0003FFC000000000
0007FF8000000000
0007FF8000000000
000FFF0000000000
001FFE0000000000
001FFE0000000000
003FFC0000000000
003FFC0000000000
007FF80000000000
00FFF00000000000
00FFF00000000000
01FFE00000000000
03FFE00000000000
03FFC00000000000
07FF800000000000
07FFFFFFFFFFFFC0
0FFFFFFFFFFFFFC0
1FFFFFFFFFFFFFC0
1FFFFFFFFFFFFFC0
3FFFFFFFFFFFFFC0
3FFFFFFFFFFFFFC0
7FFFFFFFFFFFFFC0
FFFFFFFFFFFFFFC0
FFFFFFFFFFFFFFC0
ENDCHAR
STARTCHAR 005B
ENCODING 91
SWIDTH 410 0
DWIDTH 45 0
BBX 22 122 15 -24
BITMAP
FFFFFC
FFFFFC
FFFFFC
FFFFFC
FFFFFC
FFFFFC
FFFFFC
FFFFFC
FFFFFC
FF8000
FF8000
FF8000
FF8000
FF8000
FF8000
FF8000
FF8000
FF8000
FF8000
FF8000
FF8000
FF8000
FF8000
FF8000
FF8000
FF8000
FF8000
FF8000
FF8000
FF8000
FF8000
FF8000
FF8000
FF8000
FF8000
FF8000
FF8000
FF8000
FF8000
FF8000
FF8000
FF8000
FF8000
FF8000
FF8000
FF8000
FF8000
FF8000
FF8000
FF8000
FF8000
FF8000
FF8000
FF8000
FF8000
FF8000
FF8000
FF8000
FF8000
FF8000
FF8000
FF8000
FF8000
FF8000
FF8000
FF8000
FF8000
FF8000
FF8000
FF8000
FF8000
FF8000
FF8000
FF8000
FF8000
FF8000
FF8000
FF8000
FF8000
FF8000
FF8000
FF8000
FF8000
FF8000
FF8000
FF8000
FF8000
FF8000
FF8000
FF8000
FF8000
FF8000
FF8000
FF8000
FF8000
FF8000
FF8000
FF8000
FF8000
FF8000
FF8000
FF8000
FF8000
FF8000
FF8000
FF8000
FF8000
FF8000
FF8000
FF8000
FF8000
FF8000
FF8000
FFFFFC
FFFFFC
FFFFFC
FFFFFC
FFFFFC
FFFFFC
FFFFFC
FFFFFC
FFFFFC
ENDCHAR
STARTCHAR 005C
ENCODING 92
SWIDTH 401 0
DWIDTH 44 0
BBX 30 79 7 0
BITMAP
FFC00000
FFC00000
FFC00000
7FC00000
7FE00000
7FE00000
7FE00000
3FF00000
3FF00000
3FF00000
3FF00000
1FF80000
1FF80000
1FF80000
1FF80000
0FFC0000
0FFC0000
0FFC0000
07FC0000
07FE0000
07FE0000
07FE0000
03FF0000
03FF0000
03FF0000
03FF0000
01FF8000
01FF8000
01FF8000
01FF8000
00FFC000
00FFC000
00FFC000
007FC000
007FE000
007FE000
007FE000
003FF000
003FF000
003FF000
003FF000
001FF800
001FF800
001FF800
001FF800
000FFC00
000FFC00
000FFC00
0007FC00
0007FE00
0007FE00
0007FE00
0003FF00
0003FF00
0003FF00
0003FF00
0001FF80
0001FF80
0001FF80
0001FF80
0000FFC0
0000FFC0
0000FFC0
0000FFC0
00007FE0
00007FE0
00007FE0
00003FF0
00003FF0
00003FF0
00003FF0
00001FF8
00001FF8
00001FF8
00001FF8
00000FFC
00000FFC
00000FFC
00000FFC
ENDCHAR
STARTCHAR 005D
ENCODING 93
SWIDTH 410 0
DWIDTH 45 0
BBX 22 122 8 -24
BITMAP
FFFFFC
FFFFFC
FFFFFC
FFFFFC
FFFFFC
FFFFFC
FFFFFC
FFFFFC
FFFFFC
0007FC
0007FC
0007FC
0007FC
0007FC
0007FC
0007FC
0007FC
0007FC
0007FC
0007FC
0007FC
0007FC
0007FC
0007FC
0007FC
0007FC
0007FC
0007FC
0007FC
0007FC
0007FC
0007FC
0007FC
0007FC
0007FC
0007FC
0007FC
0007FC
0007FC
0007FC
0007FC
0007FC
0007FC
0007FC
0007FC
0007FC
0007FC
0007FC
0007FC
0007FC
0007FC
0007FC
0007FC
0007FC
0007FC
0007FC
0007FC
0007FC
0007FC
0007FC
0007FC
0007FC
0007FC
0007FC
0007FC
0007FC
0007FC
0007FC
0007FC
0007FC
0007FC
0007FC
0007FC
0007FC
0007FC
0007FC
0007FC
0007FC
0007FC
0007FC
0007FC
0007FC
0007FC
0007FC
0007FC
0007FC
0007FC
0007FC
0007FC
0007FC
0007FC
0007FC
0007FC
0007FC
0007FC
0007FC
0007FC
0007FC
0007FC
0007FC
0007FC
0007FC
0007FC
0007FC
0007FC
0007FC
0007FC
0007FC
0007FC
0007FC
0007FC
0007FC
0007FC
FFFFFC
FFFFFC
FFFFFC
FFFFFC
FFFFFC
FFFFFC
FFFFFC
FFFFFC
FFFFFC
ENDCHAR
STARTCHAR 005E
ENCODING 94
SWIDTH 674 0
DWIDTH 74 0
BBX 51 32 12 49
BITMAP
00000040000000
000000E0000000
000001F0000000
000003F8000000
000007FC000000
00000FFE000000
00001FFF000000
00003FFF800000
00007FFFC00000
0000FFFFE00000
0001FFFFF00000
0003FFFFF80000
0007FFBFFC0000
000FFF1FFE0000
001FFE0FFF0000
003FFC07FF8000
007FF803FFC000
00FFF001FFE000
01FFE000FFF000
03FFC0007FF800
07FF80003FFC00
0FFF00001FFE00
1FFE00000FFF00
3FFC000007FF80
7FF8000003FFC0
FFF0000001FFE0
FFE0000000FFE0
7FC00000007FC0
3F800000003F80
1F000000001F00
0E000000000E00
04000000000400
ENDCHAR
STARTCHAR 005F
ENCODING 95
SWIDTH 656 0
DWIDTH 72 0
BBX 72 8 0 -12
BITMAP
FFFFFFFFFFFFFFFFFF
FFFFFFFFFFFFFFFFFF
FFFFFFFFFFFFFFFFFF
FFFFFFFFFFFFFFFFFF
FFFFFFFFFFFFFFFFFF
FFFFFFFFFFFFFFFFFF
FFFFFFFFFFFFFFFFFF
FFFFFFFFFFFFFFFFFF
ENDCHAR
STARTCHAR 0060
ENCODING 96
SWIDTH 510 0
DWIDTH 56 0
BBX 14 18 19 88
BITMAP
FF00
FF00
7F80
7F80
7F80
3FC0
3FC0
1FE0
1FE0
1FE0
0FF0
0FF0
07F0
07F8
07F8
03FC
03FC
01FC
ENDCHAR
STARTCHAR 0061
ENCODING 97
SWIDTH 565 0
DWIDTH 62 0
BBX 51 63 4 -2
BITMAP
000007FF800000
00007FFFF80000
0003FFFFFF0000
000FFFFFFFC000
001FFFFFFFE000
007FFFFFFFF800
00FFFFFFFFFC00
01FFFFFFFFFE00
01FFFFFFFFFE00
03FFFE00FFFF00
07FFF0001FFF80
07FFC00007FF80
0FFF000003FFC0
0FFE000001FFC0
1FFC000001FFC0
1FFC000000FFC0
1FF8000000FFE0
07F80000007FE0
00F00000007FE0
00100000007FE0
00000000007FE0
00000000007FE0
00000000007FE0
0000000000FFE0
00000000FFFFE0
0000007FFFFFE0
00000FFFFFFFE0
0000FFFFFFFFE0
000FFFFFFFFFE0
003FFFFFFFFFE0
00FFFFFFFFFFE0
01FFFFFFFFFFE0
03FFFFFFE07FE0
07FFFFF0007FE0
0FFFFE00007FE0
1FFFE000007FE0
3FFF0000007FE0
3FFC0000007FE0
7FF80000007FE0
7FF00000007FE0
7FE00000007FE0
7FE0000000FFE0
7FC0000000FFE0
FFC0000000FFE0
FFC0000001FFE0
FFC0000001FFE0
FFC0000003FFE0
FFC0000003FFE0
7FE0000007FFE0
7FE000000FFFE0
7FF000001FFFE0
7FF800003FFFE0
3FFC0000FFFFE0
3FFE0003FFBFE0
1FFFC03FFFBFE0
1FFFFFFFFF3FE0
0FFFFFFFFE3FE0
07FFFFFFFC3FE0
03FFFFFFF03FE0
00FFFFFFE03FE0
007FFFFF803FE0
001FFFFE000000
0001FFE0000000
ENDCHAR
STARTCHAR 0062
ENCODING 98
SWIDTH 601 0
DWIDTH 66 0
BBX 53 81 8 -2
BITMAP
FF800000000000
FF800000000000
FF800000000000
FF800000000000
FF800000000000
FF800000000000
FF800000000000
FF800000000000
FF800000000000
FF800000000000
FF800000000000
FF800000000000
FF800000000000
FF800000000000
FF800000000000
FF800000000000
FF800000000000
FF800000000000
FF8003FF000000
FF803FFFF00000
FF81FFFFFC0000
FF83FFFFFF0000
FF8FFFFFFFC000
FF9FFFFFFFE000
FFBFFFFFFFF000
FFFFFFFFFFF800
FFFFFFFFFFFC00
FFFFF803FFFE00
FFFFC0007FFF00
FFFF00001FFF00
FFFE00000FFF80
FFFC000007FF80
FFF8000003FFC0
FFF0000001FFC0
FFF0000001FFE0
FFE0000000FFE0
FFE0000000FFE0
FFC00000007FF0
FFC00000007FF0
FFC00000003FF0
FF800000003FF8
FF800000003FF8
FF800000003FF8
FF800000001FF8
FF800000001FF8
FF000000001FF8
FF000000001FF8
FF000000001FF8
FF000000001FF8
FF000000001FF8
FF000000001FF8
FF000000001FF8
FF000000001FF8
FF800000001FF8
FF800000001FF8
FF800000001FF8
FF800000003FF8
FF800000003FF8
FF800000003FF8
FFC00000003FF0
FFC00000007FF0
FFC00000007FF0
FFE0000000FFE0
FFE0000000FFE0
FFF0000001FFE0
FFF0000001FFC0
FFF8000003FFC0
FFFC000007FF80
FFFE00000FFF80
FFFF00001FFF00
FFFFC0007FFE00
FFFFF803FFFE00
FFFFFFFFFFFC00
FF7FFFFFFFF800
FF3FFFFFFFF000
FF1FFFFFFFE000
FF0FFFFFFFC000
FF03FFFFFF0000
FF00FFFFFC0000
00003FFFF00000
000007FF000000
ENDCHAR
STARTCHAR 0063
ENCODING 99
SWIDTH 565 0
DWIDTH 62 0
BBX 54 63 4 -2
BITMAP
000001FFC00000
00001FFFFC0000
0000FFFFFF8000
0003FFFFFFE000
0007FFFFFFF800
001FFFFFFFFC00
003FFFFFFFFE00
007FFFFFFFFF00
00FFFFFFFFFF80
01FFFFC1FFFFC0
03FFFC001FFFE0
03FFF00007FFE0
07FFC00001FFF0
07FF800000FFF8
0FFF0000007FF8
0FFE0000003FF8
1FFC0000003FFC
1FFC0000001FF8
3FF80000000FC0
3FF80000000E00
3FF80000000000
3FF00000000000
7FF00000000000
7FF00000000000
7FE00000000000
7FE00000000000
7FE00000000000
7FE00000000000
FFE00000000000
FFE00000000000
FFE00000000000
FFE00000000000
FFE00000000000
FFE00000000000
FFE00000000000
7FE00000000000
7FE00000000000
7FE00000000000
7FE00000000000
7FF00000000000
7FF00000000000
3FF00000000000
3FF80000000000
3FF80000000800
3FF80000000F80
1FFC0000001FF8
1FFC0000003FFC
0FFE0000003FF8
0FFF0000007FF8
07FF800000FFF0
07FFC00001FFF0
03FFF00007FFE0
03FFFC001FFFE0
01FFFFC0FFFFC0
00FFFFFFFFFF80
007FFFFFFFFF00
003FFFFFFFFE00
001FFFFFFFFC00
0007FFFFFFF800
0003FFFFFFE000
0000FFFFFF8000
00001FFFFC0000
000001FFC00000
ENDCHAR
STARTCHAR 0064
ENCODING 100
SWIDTH 601 0
DWIDTH 66 0
BBX 54 81 4 -2
BITMAP
00000000000FFC
00000000000FFC
00000000000FFC
00000000000FFC
00000000000FFC
00000000000FFC
00000000000FFC
00000000000FFC
00000000000FFC
00000000000FFC
00000000000FFC
00000000000FFC
00000000000FFC
00000000000FFC
00000000000FFC
00000000000FFC
00000000000FFC
00000000000FFC
000003FF000FFC
00003FFFF00FFC
0000FFFFFC0FFC
0003FFFFFF0FFC
000FFFFFFF8FFC
001FFFFFFFEFFC
003FFFFFFFFFFC
007FFFFFFFFFFC
00FFFFFFFFFFFC
01FFFF007FFFFC
03FFF8000FFFFC
03FFE00007FFFC
07FFC00001FFFC
0FFF800000FFFC
0FFF0000007FFC
1FFE0000007FFC
1FFC0000003FFC
1FFC0000001FFC
3FF80000001FFC
3FF80000001FFC
3FF00000000FFC
7FF00000000FFC
7FF00000000FFC
7FF000000007FC
7FE000000007FC
7FE000000007FC
7FE000000007FC
7FE000000007FC
FFE000000007FC
FFE000000007FC
FFE000000007FC
FFE000000007FC
FFE000000007FC
FFE000000007FC
FFE000000007FC
7FE000000007FC
7FE000000007FC
7FE000000007FC
7FE000000007FC
7FF000000007FC
7FF00000000FFC
7FF00000000FFC
3FF00000000FFC
3FF80000001FFC
3FF80000001FFC
1FFC0000001FFC
1FFC0000003FFC
1FFE0000007FFC
0FFF0000007FFC
0FFF800000FFFC
07FFC00001FFFC
03FFE00007FFFC
03FFF8000FFFFC
01FFFF007FFFFC
00FFFFFFFFFFFC
007FFFFFFFFFFC
003FFFFFFFF7FC
001FFFFFFFE7FC
000FFFFFFF87FC
0003FFFFFF07FC
0000FFFFFC07FC
00003FFFF00000
000007FF000000
ENDCHAR
STARTCHAR 0065
ENCODING 101
SWIDTH 592 0
DWIDTH 65 0
BBX 56 63 4 -2
BITMAP
000001FFC00000
00001FFFFE0000
0000FFFFFF8000
0003FFFFFFE000
0007FFFFFFF800
001FFFFFFFFC00
003FFFFFFFFE00
007FFFFFFFFF00
00FFFFFFFFFF80
01FFFF001FFFC0
01FFF80007FFE0
03FFE00001FFE0
07FFC00000FFF0
07FF0000007FF0
0FFE0000003FF8
0FFE0000001FF8
1FFC0000001FFC
1FFC0000000FFC
3FF80000000FFC
3FF800000007FE
3FF000000007FE
3FF000000007FE
7FF000000003FE
7FE000000003FF
7FE000000003FF
7FE000000003FF
7FFFFFFFFFFFFF
7FFFFFFFFFFFFF
FFFFFFFFFFFFFF
FFFFFFFFFFFFFF
FFFFFFFFFFFFFF
FFFFFFFFFFFFFF
FFFFFFFFFFFFFF
FFFFFFFFFFFFFF
FFE00000000000
FFE00000000000
7FE00000000000
7FE00000000000
7FE00000000000
7FF00000000000
7FF00000000000
7FF00000000000
3FF00000000000
3FF80000000200
3FF800000007C0
1FFC00000007F8
1FFC0000000FFE
0FFE0000001FFE
0FFF0000003FFC
07FF8000007FFC
07FFC00000FFF8
03FFF00003FFF0
01FFFC000FFFF0
01FFFFC0FFFFE0
00FFFFFFFFFFC0
007FFFFFFFFF80
003FFFFFFFFF00
000FFFFFFFFE00
0007FFFFFFF800
0001FFFFFFE000
00007FFFFFC000
00001FFFFE0000
000000FFE00000
ENDCHAR
STARTCHAR 0066
ENCODING 102
SWIDTH 364 0
DWIDTH 40 0
BBX 36 81 3 0
BITMAP
000003FFF0
00003FFFF0
0000FFFFF0
0001FFFFF0
0003FFFFF0
0007FFFFF0
0007FFFFF0
000FFFFFF0
000FFFC000
001FFE0000
001FFC0000
001FF80000
001FF80000
001FF00000
003FF00000
003FF00000
003FF00000
003FF00000
003FF00000
003FF00000
003FF00000
003FF00000
FFFFFFFFF0
FFFFFFFFF0
FFFFFFFFF0
FFFFFFFFF0
FFFFFFFFF0
FFFFFFFFF0
FFFFFFFFF0
FFFFFFFFF0
003FF00000
003FF00000
003FF00000
003FF00000
003FF00000
003FF00000
003FF00000
003FF00000
003FF00000
003FF00000
003FF00000
003FF00000
003FF00000
003FF00000
003FF00000
003FF00000
003FF00000
003FF00000
003FF00000
003FF00000
003FF00000
003FF00000
003FF00000
003FF00000
003FF00000
003FF00000
003FF00000
003FF00000
003FF00000
003FF00000
003FF00000
003FF00000
003FF00000
003FF00000
003FF00000
003FF00000
003FF00000
003FF00000
003FF00000
003FF00000
003FF00000
003FF00000
003FF00000
003FF00000
003FF00000
003FF00000
003FF00000
003FF00000
003FF00000
003FF00000
003FF00000
ENDCHAR
STARTCHAR 0067
ENCODING 103
SWIDTH 601 0
DWIDTH 66 0
BBX 54 89 4 -28
BITMAP
000003FF000000
00003FFFF00000
0000FFFFFC07FC
0003FFFFFF07FC
000FFFFFFF87FC
001FFFFFFFE7FC
003FFFFFFFF7FC
007FFFFFFFF7FC
00FFFFFFFFFFFC
01FFFF007FFFFC
03FFF8000FFFFC
03FFE00007FFFC
07FFC00001FFFC
0FFF800000FFFC
0FFF0000007FFC
1FFE0000007FFC
1FFC0000003FFC
1FFC0000001FFC
3FF80000001FFC
3FF80000001FFC
3FF00000000FFC
7FF00000000FFC
7FF00000000FFC
7FF000000007FC
7FE000000007FC
7FE000000007FC
7FE000000007FC
7FE000000007FC
FFE000000007FC
FFE000000007FC
FFE000000007FC
FFE000000007FC
FFE000000007FC
FFE000000007FC
FFE000000007FC
7FE000000007FC
7FE000000007FC
7FE000000007FC
7FE000000007FC
7FF000000007FC
7FF00000000FFC
7FF00000000FFC
3FF00000000FFC
3FF80000001FFC
3FF80000001FFC
1FFC0000001FFC
1FFC0000003FFC
1FFE0000007FFC
0FFF0000007FFC
0FFF800000FFFC
07FFC00001FFFC
03FFE00007FFFC
03FFF8000FFFFC
01FFFF007FFFFC
00FFFFFFFFFFFC
007FFFFFFFFFFC
003FFFFFFFFFFC
001FFFFFFFEFFC
000FFFFFFF8FFC
0003FFFFFF0FFC
0000FFFFFC0FFC
00003FFFF00FFC
000007FF000FFC
00000000000FFC
00000000000FFC
00000000000FFC
00000000000FFC
00000000000FFC
00000000000FFC
00000000001FFC
00000000001FF8
00000000001FF8
000C0000003FF8
003C0000003FF8
00FE0000007FF8
03FF000000FFF0
0FFF800001FFF0
07FFC00003FFE0
07FFF0000FFFE0
03FFFE007FFFC0
01FFFFFFFFFFC0
00FFFFFFFFFF80
007FFFFFFFFF00
003FFFFFFFFE00
001FFFFFFFFC00
0007FFFFFFF000
0001FFFFFFC000
00007FFFFF0000
00000FFFF80000
ENDCHAR
STARTCHAR 0068
ENCODING 104
SWIDTH 601 0
DWIDTH 66 0
BBX 52 79 8 0
BITMAP
FF000000000000
FF000000000000
FF000000000000
FF000000000000
FF000000000000
FF000000000000
FF000000000000
FF000000000000
FF000000000000
FF000000000000
FF000000000000
FF000000000000
FF000000000000
FF000000000000
FF000000000000
FF000000000000
FF000000000000
FF000000000000
FF0001FF800000
FF001FFFF80000
FF00FFFFFE0000
FF01FFFFFF8000
FF07FFFFFFC000
FF0FFFFFFFE000
FF1FFFFFFFF800
FF3FFFFFFFF800
FF7FFFFFFFFC00
FFFFFE0FFFFE00
FFFFE000FFFE00
FFFF80003FFF00
FFFF00000FFF80
FFFE000007FF80
FFFC000007FF80
FFF8000003FFC0
FFF0000001FFC0
FFF0000001FFC0
FFE0000000FFE0
FFE0000000FFE0
FFE0000000FFE0
FFC00000007FE0
FFC00000007FE0
FFC00000007FE0
FFC00000007FF0
FFC00000007FF0
FFC00000003FF0
FFC00000003FF0
FF800000003FF0
FF800000003FF0
FF800000003FF0
FF800000003FF0
FF800000003FF0
FF800000003FF0
FF800000003FF0
FF800000003FF0
FF800000003FF0
FF800000003FF0
FF800000003FF0
FF800000003FF0
FF800000003FF0
FF800000003FF0
FF800000003FF0
FF800000003FF0
FF800000003FF0
FF800000003FF0
FF800000003FF0
FF800000003FF0
FF800000003FF0
FF800000003FF0
FF800000003FF0
FF800000003FF0
FF800000003FF0
FF800000003FF0
FF800000003FF0
FF800000003FF0
FF800000003FF0
FF800000003FF0
FF800000003FF0
FF800000003FF0
FF800000003FF0
ENDCHAR
STARTCHAR 0069
ENCODING 105
SWIDTH 246 0
DWIDTH 27 0
BBX 10 80 9 0
BITMAP
FFC0
FFC0
FFC0
FFC0
FFC0
FFC0
FFC0
FFC0
FFC0
FFC0
0000
0000
0000
0000
0000
0000
0000
0000
0000
0000
0000
FFC0
FFC0
FFC0
FFC0
FFC0
FFC0
FFC0
FFC0
FFC0
FFC0
FFC0
FFC0
FFC0
FFC0
FFC0
FFC0
FFC0
FFC0
FFC0
FFC0
FFC0
FFC0
FFC0
FFC0
FFC0
FFC0
FFC0
FFC0
FFC0
FFC0
FFC0
FFC0
FFC0
FFC0
FFC0
FFC0
FFC0
FFC0
FFC0
FFC0
FFC0
FFC0
FFC0
FFC0
FFC0
FFC0
FFC0
FFC0
FFC0
FFC0
FFC0
FFC0
FFC0
FFC0
FFC0
FFC0
FFC0
FFC0
FFC0
ENDCHAR
STARTCHAR 006A
ENCODING 106
SWIDTH 264 0
DWIDTH 29 0
BBX 22 106 -1 -26
BITMAP
000FFC
000FFC
000FFC
000FFC
000FFC
000FFC
000FFC
000FFC
000FFC
000FFC
000000
000000
000000
000000
000000
000000
000000
000000
000000
000000
000000
000FFC
000FFC
000FFC
000FFC
000FFC
000FFC
000FFC
000FFC
000FFC
000FFC
000FFC
000FFC
000FFC
000FFC
000FFC
000FFC
000FFC
000FFC
000FFC
000FFC
000FFC
000FFC
000FFC
000FFC
000FFC
000FFC
000FFC
000FFC
000FFC
000FFC
000FFC
000FFC
000FFC
000FFC
000FFC
000FFC
000FFC
000FFC
000FFC
000FFC
000FFC
000FFC
000FFC
000FFC
000FFC
000FFC
000FFC
000FFC
000FFC
000FFC
000FFC
000FFC
000FFC
000FFC
000FFC
000FFC
000FFC
000FFC
000FFC
000FFC
000FFC
000FFC
000FFC
000FFC
000FFC
000FFC
000FFC
000FFC
000FFC
000FFC
001FFC
001FFC
001FFC
003FF8
007FF8
01FFF8
FFFFF8
FFFFF0
FFFFF0
FFFFE0
FFFFE0
FFFFC0
FFFF80
FFFE00
FFF800
ENDCHAR
STARTCHAR 006B
ENCODING 107
SWIDTH 510 0
DWIDTH 56 0
BBX 50 79 8 0
BITMAP
FFC00000000000
FFC00000000000
FFC00000000000
FFC00000000000
FFC00000000000
FFC00000000000
FFC00000000000
FFC00000000000
FFC00000000000
FFC00000000000
FFC00000000000
FFC00000000000
FFC00000000000
FFC00000000000
FFC00000000000
FFC00000000000
FFC00000000000
FFC00000000000
FFC00000000000
FFC00000000000
FFC000003FFE00
FFC000007FFC00
FFC00000FFF800
FFC00001FFF000
FFC00003FFE000
FFC00003FFC000
FFC00007FF8000
FFC0000FFF0000
FFC0001FFF0000
FFC0003FFE0000
FFC0007FFC0000
FFC000FFF80000
FFC001FFF00000
FFC001FFE00000
FFC003FFC00000
FFC007FF800000
FFC00FFF000000
FFC01FFF000000
FFC03FFE000000
FFC07FFC000000
FFC0FFF8000000
FFC0FFF0000000
FFC1FFE0000000
FFC3FFC0000000
FFC7FF80000000
FFCFFF00000000
FFDFFF00000000
FFFFFE00000000
FFFFFC00000000
FFFFF800000000
FFFFFC00000000
FFFFFE00000000
FFDFFF00000000
FFCFFF80000000
FFC7FFC0000000
FFC3FFE0000000
FFC1FFF0000000
FFC0FFF8000000
FFC07FFC000000
FFC03FFE000000
FFC01FFF000000
FFC00FFF800000
FFC007FFC00000
FFC003FFE00000
FFC001FFF00000
FFC000FFF80000
FFC0007FFC0000
FFC0003FFE0000
FFC0001FFF0000
FFC0001FFF8000
FFC0000FFFC000
FFC00007FFE000
FFC00003FFF000
FFC00001FFF800
FFC00000FFFC00
FFC000007FFE00
FFC000003FFF00
FFC000001FFF80
FFC000000FFFC0
ENDCHAR
STARTCHAR 006C
ENCODING 108
SWIDTH 246 0
DWIDTH 27 0
BBX 10 79 9 0
BITMAP
FFC0
FFC0
FFC0
FFC0
FFC0
FFC0
FFC0
FFC0
FFC0
FFC0
FFC0
FFC0
FFC0
FFC0
FFC0
FFC0
FFC0
FFC0
FFC0
FFC0
FFC0
FFC0
FFC0
FFC0
FFC0
FFC0
FFC0
FFC0
FFC0
FFC0
FFC0
FFC0
FFC0
FFC0
FFC0
FFC0
FFC0
FFC0
FFC0
FFC0
FFC0
FFC0
FFC0
FFC0
FFC0
FFC0
FFC0
FFC0
FFC0
FFC0
FFC0
FFC0
FFC0
FFC0
FFC0
FFC0
FFC0
FFC0
FFC0
FFC0
FFC0
FFC0
FFC0
FFC0
FFC0
FFC0
FFC0
FFC0
FFC0
FFC0
FFC0
FFC0
FFC0
FFC0
FFC0
FFC0
FFC0
FFC0
FFC0
ENDCHAR
STARTCHAR 006D
ENCODING 109
SWIDTH 865 0
DWIDTH 95 0
BBX 80 61 8 0
BITMAP
00000FFC000001FF8000
00007FFF80000FFFF800
FF01FFFFE0003FFFFE00
FF07FFFFF800FFFFFF00
FF0FFFFFFC01FFFFFFC0
FF3FFFFFFE03FFFFFFE0
FF7FFFFFFF07FFFFFFF0
FF7FFFFFFF8FFFFFFFF0
FFFFFFFFFFDFFFFFFFF8
FFFFC01FFFDFF803FFFC
FFFF0007FFFFE0007FFC
FFFC0003FFFFC0003FFE
FFF80001FFFF80001FFE
FFF00000FFFF00000FFE
FFF000007FFE00000FFF
FFE000003FFC000007FF
FFE000003FFC000007FF
FFC000003FFC000003FF
FFC000001FF8000003FF
FFC000001FF8000003FF
FFC000001FF8000003FF
FFC000001FF8000003FF
FF8000001FF8000001FF
FF8000001FF8000001FF
FF8000001FF8000001FF
FF8000001FF8000001FF
FF8000001FF8000001FF
FF8000001FF8000001FF
FF8000001FF8000001FF
FF8000001FF8000001FF
FF8000001FF8000001FF
FF8000001FF8000001FF
FF8000001FF8000001FF
FF8000001FF8000001FF
FF8000001FF8000001FF
FF8000001FF8000001FF
FF8000001FF8000001FF
FF8000001FF8000001FF
FF8000001FF8000001FF
FF8000001FF8000001FF
FF8000001FF8000001FF
FF8000001FF8000001FF
FF8000001FF8000001FF
FF8000001FF8000001FF
FF8000001FF8000001FF
FF8000001FF8000001FF
FF8000001FF8000001FF
FF8000001FF8000001FF
FF8000001FF8000001FF
FF8000001FF8000001FF
FF8000001FF8000001FF
FF8000001FF8000001FF
FF8000001FF8000003FF
FF8000001FF8000003FF
FF8000001FF8000003FF
FF8000001FF8000003FF
FF8000001FF8000003FF
FF8000001FF8000003FF
FF8000001FF8000003FF
FF8000001FF8000003FF
FF8000001FF8000003FF
ENDCHAR
STARTCHAR 006E
ENCODING 110
SWIDTH 601 0
DWIDTH 66 0
BBX 52 61 8 0
BITMAP
000001FF800000
00001FFFF80000
FF00FFFFFE0000
FF01FFFFFF8000
FF07FFFFFFC000
FF0FFFFFFFE000
FF1FFFFFFFF800
FF3FFFFFFFF800
FF7FFFFFFFFC00
FFFFFE0FFFFE00
FFFFE000FFFE00
FFFF80003FFF00
FFFF00000FFF80
FFFE000007FF80
FFFC000007FF80
FFF8000003FFC0
FFF0000001FFC0
FFF0000001FFC0
FFE0000000FFE0
FFE0000000FFE0
FFE0000000FFE0
FFC00000007FE0
FFC00000007FE0
FFC00000007FE0
FFC00000007FF0
FFC00000007FF0
FFC00000003FF0
FFC00000003FF0
FF800000003FF0
FF800000003FF0
FF800000003FF0
FF800000003FF0
FF800000003FF0
FF800000003FF0
FF800000003FF0
FF800000003FF0
FF800000003FF0
FF800000003FF0
FF800000003FF0
FF800000003FF0
FF800000003FF0
FF800000003FF0
FF800000003FF0
FF800000003FF0
FF800000003FF0
FF800000003FF0
FF800000003FF0
FF800000003FF0
FF800000003FF0
FF800000003FF0
FF800000003FF0
FF800000003FF0
FF800000003FF0
FF800000003FF0
FF800000003FF0
FF800000003FF0
FF800000003FF0
FF800000003FF0
FF800000003FF0
FF800000003FF0
FF800000003FF0
ENDCHAR
STARTCHAR 006F
ENCODING 111
SWIDTH 601 0
DWIDTH 66 0
BBX 57 63 4 -2
BITMAP
000001FFE0000000
00001FFFFE000000
00007FFFFF800000
0001FFFFFFE00000
0007FFFFFFF80000
001FFFFFFFFC0000
003FFFFFFFFE0000
007FFFFFFFFF8000
00FFFFFFFFFFC000
01FFFFE1FFFFC000
01FFFC000FFFE000
03FFF00003FFF000
07FFC00000FFF800
07FF8000007FF800
0FFF0000003FFC00
0FFE0000001FFC00
1FFC0000001FFE00
1FFC0000000FFE00
3FF800000007FE00
3FF800000007FF00
3FF000000007FF00
3FF000000003FF00
7FF000000003FF80
7FF000000003FF80
7FE000000003FF80
7FE000000001FF80
7FE000000001FF80
7FE000000001FF80
FFE000000001FF80
FFE000000001FF80
FFE000000001FF80
FFE000000001FF80
FFE000000001FF80
FFE000000001FF80
FFE000000001FF80
7FE000000001FF80
7FE000000001FF80
7FE000000001FF80
7FE000000003FF80
7FF000000003FF80
7FF000000003FF80
3FF000000003FF00
3FF000000007FF00
3FF800000007FF00
3FF80000000FFE00
1FFC0000000FFE00
1FFC0000001FFE00
0FFE0000001FFC00
0FFF0000003FFC00
07FF8000007FF800
07FFC00000FFF800
03FFF00003FFF000
01FFFC000FFFE000
01FFFFC1FFFFC000
00FFFFFFFFFFC000
007FFFFFFFFF8000
003FFFFFFFFF0000
000FFFFFFFFC0000
0007FFFFFFF80000
0001FFFFFFE00000
00007FFFFF800000
00001FFFFE000000
000001FFE0000000
ENDCHAR
STARTCHAR 0070
ENCODING 112
SWIDTH 601 0
DWIDTH 66 0
BBX 53 88 8 -27
BITMAP
000003FF000000
00003FFFF00000
FF00FFFFFC0000
FF03FFFFFF0000
FF0FFFFFFFC000
FF1FFFFFFFE000
FF3FFFFFFFF000
FF7FFFFFFFF800
FFFFFFFFFFFC00
FFFFF803FFFE00
FFFFC0007FFF00
FFFF00001FFF00
FFFE00000FFF80
FFFC000007FF80
FFF8000003FFC0
FFF0000001FFC0
FFF0000001FFE0
FFE0000000FFE0
FFE0000000FFE0
FFC00000007FF0
FFC00000007FF0
FFC00000003FF0
FF800000003FF8
FF800000003FF8
FF800000003FF8
FF800000001FF8
FF800000001FF8
FF000000001FF8
FF000000001FF8
FF000000001FF8
FF000000001FF8
FF000000001FF8
FF000000001FF8
FF000000001FF8
FF000000001FF8
FF800000001FF8
FF800000001FF8
FF800000001FF8
FF800000003FF8
FF800000003FF8
FF800000003FF8
FFC00000003FF0
FFC00000007FF0
FFC00000007FF0
FFE0000000FFE0
FFE0000000FFE0
FFF0000001FFE0
FFF0000001FFC0
FFF8000003FFC0
FFFC000007FF80
FFFE00000FFF80
FFFF00001FFF00
FFFFC0007FFE00
FFFFF803FFFE00
FFFFFFFFFFFC00
FFFFFFFFFFF800
FFBFFFFFFFF000
FF9FFFFFFFE000
FF8FFFFFFFC000
FF83FFFFFF0000
FF80FFFFFC0000
FF803FFFF00000
FF8007FF000000
FF800000000000
FF800000000000
FF800000000000
FF800000000000
FF800000000000
FF800000000000
FF800000000000
FF800000000000
FF800000000000
FF800000000000
FF800000000000
FF800000000000
FF800000000000
FF800000000000
FF800000000000
FF800000000000
FF800000000000
FF800000000000
FF800000000000
FF800000000000
FF800000000000
FF800000000000
FF800000000000
FF800000000000
FF800000000000
ENDCHAR
STARTCHAR 0071
ENCODING 113
SWIDTH 601 0
DWIDTH 66 0
BBX 54 88 4 -27
BITMAP
000003FF000000
00003FFFF00000
0000FFFFFC07FC
0003FFFFFF07FC
000FFFFFFF87FC
001FFFFFFFE7FC
003FFFFFFFF7FC
007FFFFFFFF7FC
00FFFFFFFFFFFC
01FFFF007FFFFC
03FFF8000FFFFC
03FFE00007FFFC
07FFC00001FFFC
0FFF800000FFFC
0FFF0000007FFC
1FFE0000007FFC
1FFC0000003FFC
1FFC0000001FFC
3FF80000001FFC
3FF80000001FFC
3FF00000000FFC
7FF00000000FFC
7FF00000000FFC
7FF000000007FC
7FE000000007FC
7FE000000007FC
7FE000000007FC
7FE000000007FC
FFE000000007FC
FFE000000007FC
FFE000000007FC
FFE000000007FC
FFE000000007FC
FFE000000007FC
FFE000000007FC
7FE000000007FC
7FE000000007FC
7FE000000007FC
7FE000000007FC
7FF000000007FC
7FF00000000FFC
7FF00000000FFC
3FF00000000FFC
3FF80000001FFC
3FF80000001FFC
1FFC0000001FFC
1FFC0000003FFC
1FFE0000007FFC
0FFF0000007FFC
0FFF800000FFFC
07FFC00001FFFC
03FFE00007FFFC
03FFF8000FFFFC
01FFFF007FFFFC
00FFFFFFFFFFFC
007FFFFFFFFFFC
003FFFFFFFFFFC
001FFFFFFFEFFC
000FFFFFFF8FFC
0003FFFFFF0FFC
0000FFFFFC0FFC
00003FFFF00FFC
000007FF000FFC
00000000000FFC
00000000000FFC
00000000000FFC
00000000000FFC
00000000000FFC
00000000000FFC
00000000000FFC
00000000000FFC
00000000000FFC
00000000000FFC
00000000000FFC
00000000000FFC
00000000000FFC
00000000000FFC
00000000000FFC
00000000000FFC
00000000000FFC
00000000000FFC
00000000000FFC
00000000000FFC
00000000000FFC
00000000000FFC
00000000000FFC
00000000000FFC
00000000000FFC
ENDCHAR
STARTCHAR 0072
ENCODING 114
SWIDTH 373 0
DWIDTH 41 0
BBX 30 60 8 1
BITMAP
000003F0
FF003FFC
FF00FFFC
FF03FFFC
FF07FFFC
FF0FFFFC
FF1FFFFC
FF3FFFFC
FF7FFFFC
FF7FFC00
FFFFE000
FFFF8000
FFFF0000
FFFE0000
FFFC0000
FFF80000
FFF00000
FFF00000
FFE00000
FFE00000
FFE00000
FFC00000
FFC00000
FFC00000
FFC00000
FFC00000
FFC00000
FFC00000
FF800000
FF800000
FF800000
FF800000
FF800000
FF800000
FF800000
FF800000
FF800000
FF800000
FF800000
FF800000
FF800000
FF800000
FF800000
FF800000
FF800000
FF800000
FF800000
FF800000
FF800000
FF800000
FF800000
FF800000
FF800000
FF800000
FF800000
FF800000
FF800000
FF800000
FF800000
FF800000
ENDCHAR
STARTCHAR 0073
ENCODING 115
SWIDTH 528 0
DWIDTH 58 0
BBX 50 63 4 -2
BITMAP
00001FFE000000
0001FFFFE00000
000FFFFFFC0000
003FFFFFFF0000
007FFFFFFF8000
00FFFFFFFFE000
01FFFFFFFFF000
03FFFFFFFFF800
07FFFFFFFFFC00
0FFFE003FFFE00
0FFF00007FFE00
1FFE00001FFF00
1FFC00000FFF00
1FF8000007FF80
3FF8000003FF80
3FF0000003FF80
3FF0000001FF80
3FF0000001FF80
3FF0000001F000
3FF80000000000
3FF80000000000
1FFC0000000000
1FFF0000000000
1FFFC000000000
0FFFF800000000
07FFFF00000000
03FFFFF0000000
01FFFFFF000000
00FFFFFFE00000
003FFFFFFC0000
000FFFFFFF0000
0003FFFFFFC000
00007FFFFFF000
00000FFFFFF800
000001FFFFFC00
0000001FFFFE00
00000003FFFF00
000000007FFF00
000000000FFF80
0000000007FF80
0000000003FF80
0000000001FFC0
0000000001FFC0
0000000000FFC0
07E0000000FFC0
FFE0000000FFC0
7FE0000001FFC0
7FF0000001FFC0
7FF8000001FF80
3FFC000003FF80
3FFE000003FF80
3FFF00000FFF00
1FFFC0001FFF00
0FFFF800FFFE00
0FFFFFFFFFFE00
07FFFFFFFFFC00
03FFFFFFFFF800
00FFFFFFFFF000
007FFFFFFFE000
001FFFFFFF8000
000FFFFFFE0000
0001FFFFF80000
00000FFF000000
ENDCHAR
STARTCHAR 0074
ENCODING 116
SWIDTH 410 0
DWIDTH 45 0
BBX 40 76 1 -2
BITMAP
000FFC0000
000FFC0000
000FFC0000
000FFC0000
000FFC0000
000FFC0000
000FFC0000
000FFC0000
000FFC0000
000FFC0000
000FFC0000
000FFC0000
000FFC0000
000FFC0000
000FFC0000
000FFC0000
FFFFFFFFFF
FFFFFFFFFF
FFFFFFFFFF
FFFFFFFFFF
FFFFFFFFFF
FFFFFFFFFF
FFFFFFFFFF
FFFFFFFFFF
000FFC0000
000FFC0000
000FFC0000
000FFC0000
000FFC0000
000FFC0000
000FFC0000
000FFC0000
000FFC0000
000FFC0000
000FFC0000
000FFC0000
000FFC0000
000FFC0000
000FFC0000
000FFC0000
000FFC0000
000FFC0000
000FFC0000
000FFC0000
000FFC0000
000FFC0000
000FFC0000
000FFC0000
000FFC0000
000FFC0000
000FFC0000
000FFC0000
000FFC0000
000FFC0000
000FFC0000
000FFC0000
000FFC0000
000FFC0000
000FFC0000
000FFC0000
000FFC0000
000FFC0000
000FFE0000
0007FE0000
0007FF0000
0007FF8000
0007FFE000
0003FFFFFF
0003FFFFFF
0001FFFFFF
0000FFFFFF
00007FFFFF
00003FFFFF
00001FFFFF
000003FFFF
0000007FFC
ENDCHAR
STARTCHAR 0075
ENCODING 117
SWIDTH 601 0
DWIDTH 66 0
BBX 52 61 7 -2
BITMAP
FF800000003FF0
FF800000003FF0
FF800000003FF0
FF800000003FF0
FF800000003FF0
FF800000003FF0
FF800000003FF0
FF800000003FF0
FF800000003FF0
FF800000003FF0
FF800000003FF0
FF800000003FF0
FF800000003FF0
FF800000003FF0
FF800000003FF0
FF800000003FF0
FF800000003FF0
FF800000003FF0
FF800000003FF0
FF800000003FF0
FF800000003FF0
FF800000003FF0
FF800000003FF0
FF800000003FF0
FF800000003FF0
FF800000003FF0
FF800000003FF0
FF800000003FF0
FF800000003FF0
FF800000003FF0
FF800000003FF0
FF800000003FF0
FFC00000003FF0
FFC00000003FF0
FFC00000003FF0
FFC00000003FF0
FFC00000007FF0
FFC00000007FF0
FFC00000007FF0
FFE00000007FF0
FFE00000007FF0
FFE0000000FFF0
7FF0000000FFF0
7FF0000001FFF0
7FF8000001FFF0
3FF8000003FFF0
3FFC000007FFF0
3FFE000007FFF0
1FFF00001FFFF0
1FFF80003FFFF0
0FFFE000FFFFF0
0FFFFE0FFFFFF0
07FFFFFFFFDFF0
03FFFFFFFFDFF0
01FFFFFFFF9FF0
00FFFFFFFE1FF0
007FFFFFFC1FF0
003FFFFFF81FF0
000FFFFFE01FF0
0003FFFF800000
00003FF8000000
ENDCHAR
STARTCHAR 0076
ENCODING 118
SWIDTH 519 0
DWIDTH 57 0
BBX 53 59 2 0
BITMAP
FFC00000001FF8
7FE00000001FF8
7FE00000003FF0
7FE00000003FF0
3FF00000003FF0
3FF00000007FE0
1FF00000007FE0
1FF80000007FC0
1FF8000000FFC0
0FF8000000FFC0
0FFC000000FF80
0FFC000001FF80
07FE000001FF80
07FE000003FF00
07FE000003FF00
03FF000003FF00
03FF000007FE00
01FF000007FE00
01FF800007FC00
01FF80000FFC00
00FF80000FFC00
00FFC0000FF800
00FFC0001FF800
007FC0001FF800
007FE0001FF000
007FE0003FF000
003FF0003FF000
003FF0007FE000
001FF0007FE000
001FF8007FC000
001FF800FFC000
000FF800FFC000
000FFC00FF8000
000FFC01FF8000
0007FC01FF8000
0007FE01FF0000
0007FE03FF0000
0003FE03FF0000
0003FF03FE0000
0001FF07FE0000
0001FF87FC0000
0001FF8FFC0000
0000FF8FFC0000
0000FFCFF80000
0000FFDFF80000
00007FDFF80000
00007FFFF00000
00007FFFF00000
00003FFFF00000
00003FFFE00000
00001FFFE00000
00001FFFC00000
00001FFFC00000
00000FFFC00000
00000FFF800000
00000FFF800000
000007FF800000
000007FF000000
000007FF000000
ENDCHAR
STARTCHAR 0077
ENCODING 119
SWIDTH 774 0
DWIDTH 85 0
BBX 81 59 2 0
BITMAP
FFC000000FF8000001FF80
7FC000000FFC000001FF80
7FE000000FFC000001FF80
7FE000001FFC000001FF00
3FE000001FFC000003FF00
3FF000001FFE000003FF00
3FF000003FFE000003FE00
3FF000003FFE000007FE00
1FF000003FFF000007FE00
1FF800003FFF000007FC00
1FF800007FFF00000FFC00
0FF800007FFF80000FFC00
0FFC00007FFF80000FF800
0FFC0000FFFF80001FF800
07FC0000FFFFC0001FF800
07FE0000FF7FC0001FF800
07FE0001FF7FC0001FF000
03FE0001FF3FC0003FF000
03FF0001FE3FE0003FF000
03FF0003FE3FE0003FE000
03FF0003FE1FE0007FE000
01FF0003FC1FF0007FE000
01FF8007FC1FF0007FC000
01FF8007FC0FF000FFC000
00FF8007F80FF800FFC000
00FFC007F80FF800FF8000
00FFC00FF807F801FF8000
007FC00FF007FC01FF8000
007FE00FF007FC01FF8000
007FE01FF003FC01FF0000
003FE01FF003FC03FF0000
003FF01FE003FE03FF0000
003FF03FE001FE03FE0000
003FF03FE001FE07FE0000
001FF03FC001FF07FE0000
001FF87FC000FF07FC0000
001FF87FC000FF0FFC0000
000FF87F8000FF8FFC0000
000FFC7F8000FF8FF80000
000FFCFF80007F9FF80000
0007FCFF00007FDFF80000
0007FEFF00007FDFF80000
0007FFFF00003FDFF00000
0003FFFE00003FFFF00000
0003FFFE00003FFFF00000
0003FFFE00001FFFE00000
0003FFFC00001FFFE00000
0001FFFC00001FFFE00000
0001FFFC00000FFFC00000
0001FFF800000FFFC00000
0000FFF800000FFFC00000
0000FFF8000007FF800000
0000FFF0000007FF800000
00007FF0000007FF800000
00007FF0000003FF800000
00007FF0000003FF000000
00003FE0000003FF000000
00003FE0000001FF000000
00003FE0000001FE000000
ENDCHAR
STARTCHAR 0078
ENCODING 120
SWIDTH 537 0
DWIDTH 59 0
BBX 56 59 1 0
BITMAP
7FF80000000FFF
3FF80000001FFE
3FFC0000001FFC
1FFE0000003FF8
0FFF0000007FF8
07FF000000FFF0
07FF800000FFE0
03FFC00001FFC0
01FFE00003FFC0
00FFE00007FF80
007FF00007FF00
007FF8000FFE00
003FFC001FFE00
001FFC003FFC00
000FFE003FF800
000FFF007FF000
0007FF80FFF000
0003FF80FFE000
0001FFC1FFC000
0001FFE3FF8000
0000FFF7FF8000
00007FF7FF0000
00003FFFFE0000
00003FFFFC0000
00001FFFFC0000
00000FFFF80000
000007FFF00000
000007FFE00000
000003FFE00000
000001FFC00000
000003FFE00000
000007FFF00000
00000FFFF80000
00001FFFF80000
00001FFFFC0000
00003FFFFE0000
00007FFFFF0000
0000FFF7FF0000
0000FFE3FF8000
0001FFC1FFC000
0003FFC1FFE000
0007FF80FFE000
0007FF007FF000
000FFE007FF800
001FFE003FFC00
003FFC001FFC00
003FF8000FFE00
007FF0000FFF00
00FFF00007FF80
01FFE00003FF80
01FFC00001FFC0
03FF800001FFE0
07FF800000FFF0
0FFF0000007FF8
0FFE0000003FF8
1FFC0000003FFC
3FFC0000001FFE
7FF80000000FFF
FFF000000007FF
ENDCHAR
STARTCHAR 0079
ENCODING 121
SWIDTH 537 0
DWIDTH 59 0
BBX 55 86 2 -27
BITMAP
FFC000000003FE
FFC000000007FE
7FE000000007FE
7FE00000000FFC
7FF00000000FFC
3FF00000000FFC
3FF00000001FF8
1FF80000001FF8
1FF80000001FF0
1FFC0000003FF0
0FFC0000003FF0
0FFC0000007FE0
07FE0000007FE0
07FE0000007FE0
03FF000000FFC0
03FF000000FFC0
03FF000000FF80
01FF800001FF80
01FF800001FF80
00FFC00003FF00
00FFC00003FF00
00FFC00003FF00
007FE00007FE00
007FE00007FE00
003FF00007FC00
003FF0000FFC00
003FF0000FFC00
001FF8001FF800
001FF8001FF800
000FFC001FF800
000FFC003FF000
000FFC003FF000
0007FE003FE000
0007FE007FE000
0003FF007FE000
0003FF007FC000
0003FF00FFC000
0001FF80FFC000
0001FF81FF8000
0000FFC1FF8000
0000FFC1FF0000
00007FC3FF0000
00007FE3FF0000
00007FE3FE0000
00003FF7FE0000
00003FF7FC0000
00001FFFFC0000
00001FFFFC0000
00001FFFF80000
00000FFFF80000
00000FFFF80000
000007FFF00000
000007FFF00000
000007FFE00000
000003FFE00000
000003FFE00000
000001FFC00000
000001FFC00000
000001FFC00000
000001FF800000
000001FF800000
000001FF000000
000003FF000000
000003FF000000
000003FE000000
000007FE000000
000007FE000000
000007FC000000
00000FFC000000
00000FF8000000
00001FF8000000
00001FF8000000
00001FF0000000
00003FF0000000
00003FF0000000
00003FE0000000
00007FE0000000
00007FC0000000
00007FC0000000
0000FFC0000000
0000FF80000000
0001FF80000000
0001FF80000000
0001FF00000000
0003FF00000000
0003FE00000000
ENDCHAR
STARTCHAR 007A
ENCODING 122
SWIDTH 528 0
DWIDTH 58 0
BBX 52 59 2 0
BITMAP
1FFFFFFFFFFFF0
1FFFFFFFFFFFF0
1FFFFFFFFFFFE0
1FFFFFFFFFFFE0
1FFFFFFFFFFFC0
1FFFFFFFFFFF80
1FFFFFFFFFFF00
1FFFFFFFFFFF00
1FFFFFFFFFFE00
000000000FFC00
000000001FF800
000000003FF800
000000007FF000
000000007FE000
00000000FFC000
00000001FFC000
00000003FF8000
00000003FF0000
00000007FF0000
0000000FFE0000
0000001FFC0000
0000001FF80000
0000003FF80000
0000007FF00000
0000007FE00000
000000FFC00000
000001FFC00000
000003FF800000
000003FF000000
000007FE000000
00000FFE000000
00001FFC000000
00001FF8000000
00003FF0000000
00007FF0000000
0000FFE0000000
0000FFC0000000
0001FF80000000
0003FF80000000
0007FF00000000
0007FE00000000
000FFC00000000
001FFC00000000
003FF800000000
003FF000000000
007FE000000000
00FFE000000000
01FFC000000000
01FF8000000000
03FF0000000000
07FFFFFFFFFFC0
0FFFFFFFFFFFC0
0FFFFFFFFFFFC0
1FFFFFFFFFFFC0
3FFFFFFFFFFFC0
7FFFFFFFFFFFC0
7FFFFFFFFFFFC0
FFFFFFFFFFFFC0
FFFFFFFFFFFFC0
ENDCHAR
STARTCHAR 007B
ENCODING 123
SWIDTH 428 0
DWIDTH 47 0
BBX 27 122 15 -24
BITMAP
00007FE0
0003FFE0
000FFFE0
001FFFE0
003FFFE0
007FFFE0
007FFFE0
00FFFFE0
00FFFFE0
01FFF000
01FFC000
01FF8000
01FF0000
01FF0000
01FF0000
01FF0000
01FF0000
01FF0000
01FF0000
01FF0000
01FF0000
01FF0000
01FF0000
01FF0000
01FF0000
01FF0000
01FF0000
01FF0000
01FF0000
01FF0000
01FF0000
01FF0000
01FF0000
01FF0000
01FF0000
01FF0000
01FF0000
01FF0000
01FF0000
01FF0000
01FF0000
01FF0000
01FF0000
01FF0000
01FF0000
01FF0000
01FF0000
01FF0000
01FF0000
01FF0000
03FF0000
03FF0000
07FF0000
07FE0000
0FFE0000
1FFC0000
3FFC0000
3FF80000
7FF00000
7FF00000
FFE00000
FFE00000
7FF00000
7FF00000
3FF80000
3FFC0000
1FFC0000
0FFE0000
07FE0000
07FF0000
03FF0000
03FF0000
01FF0000
01FF0000
01FF0000
01FF0000
01FF0000
01FF0000
01FF0000
01FF0000
01FF0000
01FF0000
01FF0000
01FF0000
01FF0000
01FF0000
01FF0000
01FF0000
01FF0000
01FF0000
01FF0000
01FF0000
01FF0000
01FF0000
01FF0000
01FF0000
01FF0000
01FF0000
01FF0000
01FF0000
01FF0000
01FF0000
01FF0000
01FF0000
01FF0000
01FF0000
01FF0000
01FF0000
01FF0000
01FF0000
01FF8000
01FFC000
01FFF000
00FFFFE0
00FFFFE0
007FFFE0
007FFFE0
003FFFE0
001FFFE0
000FFFE0
0003FFE0
00007FE0
ENDCHAR
STARTCHAR 007C
ENCODING 124
SWIDTH 273 0
DWIDTH 30 0
BBX 10 79 10 0
BITMAP
FFC0
FFC0
FFC0
FFC0
FFC0
FFC0
FFC0
FFC0
FFC0
FFC0
FFC0
FFC0
FFC0
FFC0
FFC0
FFC0
FFC0
FFC0
FFC0
FFC0
FFC0
FFC0
FFC0
FFC0
FFC0
FFC0
FFC0
FFC0
FFC0
FFC0
FFC0
FFC0
FFC0
FFC0
FFC0
FFC0
FFC0
FFC0
FFC0
FFC0
FFC0
FFC0
FFC0
FFC0
FFC0
FFC0
FFC0
FFC0
FFC0
FFC0
FFC0
FFC0
FFC0
FFC0
FFC0
FFC0
FFC0
FFC0
FFC0
FFC0
FFC0
FFC0
FFC0
FFC0
FFC0
FFC0
FFC0
FFC0
FFC0
FFC0
FFC0
FFC0
FFC0
FFC0
FFC0
FFC0
FFC0
FFC0
FFC0
ENDCHAR
STARTCHAR 007D
ENCODING 125
SWIDTH 428 0
DWIDTH 47 0
BBX 27 122 5 -24
BITMAP
FFC00000
FFF80000
FFFE0000
FFFF0000
FFFF8000
FFFFC000
FFFFC000
FFFFE000
FFFFE000
01FFF000
007FF000
003FF000
001FF000
001FF000
001FF000
001FF000
001FF000
001FF000
001FF000
001FF000
001FF000
001FF000
001FF000
001FF000
001FF000
001FF000
001FF000
001FF000
001FF000
001FF000
001FF000
001FF000
001FF000
001FF000
001FF000
001FF000
001FF000
001FF000
001FF000
001FF000
001FF000
001FF000
001FF000
001FF000
001FF000
001FF000
001FF000
001FF000
001FF000
001FF000
001FF800
001FF800
001FFC00
000FFE00
000FFE00
0007FF00
0007FF80
0003FF80
0001FFC0
0001FFE0
0000FFE0
0000FFE0
0001FFE0
0001FFC0
0003FF80
0007FF80
0007FF00
000FFE00
000FFE00
001FFC00
001FF800
001FF800
001FF000
001FF000
001FF000
001FF000
001FF000
001FF000
001FF000
001FF000
001FF000
001FF000
001FF000
001FF000
001FF000
001FF000
001FF000
001FF000
001FF000
001FF000
001FF000
001FF000
001FF000
001FF000
001FF000
001FF000
001FF000
001FF000
001FF000
001FF000
001FF000
001FF000
001FF000
001FF000
001FF000
001FF000
001FF000
001FF000
001FF000
001FF000
003FF000
007FF000
01FFF000
FFFFE000
FFFFE000
FFFFE000
FFFFC000
FFFF8000
FFFF0000
FFFE0000
FFF80000
FFE00000
ENDCHAR
STARTCHAR 007E
ENCODING 126
SWIDTH 683 0
DWIDTH 75 0
BBX 50 21 12 24
BITMAP
000C0000000000
01FFE000000000
03FFF80000FF80
0FFFFE0000FFC0
1FFFFF80007FC0
1FFFFFE0007FC0
3FFFFFF000FFC0
3FFFFFFC00FFC0
7FFFFFFF00FFC0
7FFFFFFFC3FFC0
7FFFFFFFFFFFC0
7FF07FFFFFFFC0
7FE01FFFFFFF80
FFC007FFFFFF80
FFC003FFFFFF00
7FC000FFFFFF00
7FC0003FFFFE00
7FC0001FFFFC00
7FC00007FFF800
00000000FFE000
00000000040000
ENDCHAR
STARTCHAR 00A0
ENCODING 160
SWIDTH 200 0
DWIDTH 22 0
BBX 0 0 0 0
BITMAP
ENDCHAR
STARTCHAR 00A1
ENCODING 161
SWIDTH 328 0
DWIDTH 36 0
BBX 10 79 13 -20
BITMAP
FFC0
FFC0
FFC0
FFC0
FFC0
FFC0
FFC0
FFC0
FFC0
FFC0
0000
0000
0000
0000
0000
0000
0000
0000
0000
0000
FFC0
FFC0
FFC0
FFC0
FFC0
FFC0
FFC0
FFC0
FFC0
FFC0
FFC0
FFC0
FFC0
FFC0
FFC0
FFC0
FFC0
FFC0
FFC0
FFC0
FFC0
FFC0
FFC0
FFC0
FFC0
FFC0
FFC0
FFC0
FFC0
FFC0
FFC0
FFC0
FFC0
FFC0
FFC0
FFC0
FFC0
FFC0
FFC0
FFC0
FFC0
FFC0
FFC0
FFC0
FFC0
FFC0
FFC0
FFC0
FFC0
FFC0
FFC0
FFC0
FFC0
FFC0
FFC0
FFC0
FFC0
FFC0
FFC0
ENDCHAR
STARTCHAR 00A2
ENCODING 162
SWIDTH 565 0
DWIDTH 62 0
BBX 54 82 4 -3
BITMAP
0000007F800000
0000007F800000
0000007F800000
0000007F800000
0000007F800000
0000007F800000
0000007F800000
0000007F800000
0000007F800000
0000007F800000
000001FFE00000
00001FFFFE0000
0000FFFFFF8000
0003FFFFFFE000
0007FFFFFFF800
001FFFFFFFFC00
003FFFFFFFFE00
007FFFFFFFFF00
00FFFFFFFFFF80
01FFFF80FFFFC0
03FFF8001FFFE0
03FFE00007FFE0
07FFC00001FFF0
0FFF800000FFF8
0FFF0000007FF8
1FFE0000003FF8
1FFC0000001FFC
1FFC0000001FF8
3FF80000000F80
3FF80000000C00
3FF00000000000
7FF00000000000
7FF00000000000
7FF00000000000
7FE00000000000
7FE00000000000
7FE00000000000
7FE00000000000
FFE00000000000
FFE00000000000
FFE00000000000
FFE00000000000
FFE00000000000
FFE00000000000
FFE00000000000
7FE00000000000
7FE00000000000
7FE00000000000
7FE00000000000
7FF00000000000
7FF00000000000
3FF00000000000
3FF80000000000
3FF80000000E00
1FFC0000001FE0
1FFC0000001FFC
1FFE0000003FF8
0FFF0000007FF8
0FFF0000007FF8
07FFC00001FFF0
07FFE00003FFE0
03FFF8000FFFE0
01FFFF003FFFC0
00FFFFFFFFFF80
007FFFFFFFFF00
003FFFFFFFFE00
001FFFFFFFFC00
000FFFFFFFF800
0003FFFFFFF000
0001FFFFFFC000
00003FFFFF0000
000007FFF00000
0000007F800000
0000007F800000
0000007F800000
0000007F800000
0000007F800000
0000007F800000
0000007F800000
0000007F800000
0000007F800000
0000007F800000
ENDCHAR
STARTCHAR 00A3
ENCODING 163
SWIDTH 574 0
DWIDTH 63 0
BBX 55 81 4 0
BITMAP
0000000FFC0000
0000007FFF8000
000001FFFFE000
000007FFFFF000
00000FFFFFFC00
00003FFFFFFE00
00007FFFFFFF00
00007FFFFFFF00
0000FFFFFFFF80
0001FFFE1FFFC0
0001FFF003FFE0
0003FFC000FFE0
0003FF80007FF0
0007FF00003FF0
0007FF00003FF8
0007FE00001FF8
000FFE00001FFC
000FFC00000FFC
000FFC00000FFC
000FFC000007FE
000FFC000007F0
000FFC00000380
000FFC00000000
000FFC00000000
000FFC00000000
000FFC00000000
000FFC00000000
000FFC00000000
000FFC00000000
000FFC00000000
000FFC00000000
000FFC00000000
000FFC00000000
000FFC00000000
000FFC00000000
000FFC00000000
FFFFFFFFFF8000
FFFFFFFFFF8000
FFFFFFFFFF8000
FFFFFFFFFF8000
FFFFFFFFFF8000
FFFFFFFFFF8000
FFFFFFFFFF8000
FFFFFFFFFF8000
FFFFFFFFFF8000
000FFC00000000
000FFC00000000
000FFC00000000
000FFC00000000
000FFC00000000
000FFC00000000
000FFC00000000
000FFC00000000
000FFC00000000
000FFC00000000
000FFC00000000
000FFC00000000
000FFC00000000
000FFC00000000
000FFC00000000
000FFC00000000
000FFC00000000
000FFC00000000
000FFC00000000
000FFC00000000
000FFC00000000
001FFC00000000
001FFC00000000
003FFC00000000
007FFC00000000
00FFFC00000000
03FFFC00000000
FFFFFFFFFFFFE0
FFFFFFFFFFFFE0
FFFFFFFFFFFFE0
FFFFFFFFFFFFE0
FFFFFFFFFFFFE0
FFFFFFFFFFFFE0
FFFFFFFFFFFFE0
FFFFFFFFFFFFE0
FFFFFFFFFFFFE0
ENDCHAR
STARTCHAR 00A4
ENCODING 164
SWIDTH 647 0
DWIDTH 71 0
BBX 65 65 3 7
BITMAP
020000000000002000
070000000000007000
0F800000000000F800
1FC00001C00001FC00
3FE0007FFF8003FE00
7FF003FFFFF007FF00
FFF80FFFFFFC0FFF80
7FFC3FFFFFFF1FFF00
3FFEFFFFFFFFBFFE00
1FFFFFFFFFFFFFFC00
0FFFFFFFFFFFFFF800
07FFFFFFFFFFFFF000
03FFFFF007FFFFE000
01FFFF8000FFFFC000
00FFFE00003FFF8000
007FF800000FFF0000
007FF0000007FF8000
00FFE0000003FFC000
01FFC0000001FFC000
01FF80000000FFE000
03FF000000007FE000
03FF000000003FE000
03FE000000003FF000
07FC000000001FF000
07FC000000001FF000
07FC000000000FF800
0FF8000000000FF800
0FF8000000000FF800
0FF80000000007F800
0FF80000000007F800
0FF80000000007FC00
0FF80000000007FC00
0FF80000000007FC00
0FF80000000007FC00
0FF80000000007F800
0FF80000000007F800
0FF8000000000FF800
0FF8000000000FF800
07FC000000000FF800
07FC000000000FF800
07FC000000001FF000
03FE000000001FF000
03FE000000003FF000
03FF000000007FE000
01FF800000007FE000
01FFC0000000FFC000
00FFC0000001FFC000
00FFF0000003FF8000
007FF8000007FF8000
007FFC00001FFF8000
00FFFF00007FFFC000
01FFFFE001FFFFE000
03FFFFFFFFFFFFF000
07FFFFFFFFFFFFF800
0FFFFFFFFFFFFFFC00
1FFFFFFFFFFFFFFE00
3FFE7FFFFFFF3FFF00
7FFC1FFFFFFC1FFF80
7FF807FFFFF80FFF80
3FF001FFFFC007FF00
1FE0000FFC0003FE00
0FC00000000001FC00
07800000000000F800
030000000000007000
000000000000002000
ENDCHAR
STARTCHAR 00A5
ENCODING 165
SWIDTH 574 0
DWIDTH 63 0
BBX 63 79 0 0
BITMAP
FFF0000000001FFE
7FF0000000001FFC
7FF8000000003FFC
3FF8000000003FF8
1FFC000000007FF0
1FFE00000000FFF0
0FFE00000000FFE0
0FFF00000001FFE0
07FF00000001FFC0
03FF80000003FFC0
03FF80000003FF80
01FFC0000007FF00
01FFE000000FFF00
00FFE000000FFE00
00FFF000001FFE00
007FF000001FFC00
003FF800003FF800
003FFC00007FF800
001FFC00007FF000
001FFE0000FFF000
000FFE0000FFE000
0007FF0001FFE000
0007FF0001FFC000
0003FF8003FF8000
0003FFC007FF8000
0001FFC007FF0000
0001FFE00FFF0000
0000FFE00FFE0000
00007FF01FFC0000
00007FF83FFC0000
00003FF83FF80000
00003FFC7FF80000
00001FFC7FF00000
00001FFEFFF00000
00000FFEFFE00000
000007FFFFC00000
000007FFFFC00000
000003FFFF800000
000003FFFF800000
000001FFFF000000
000000FFFE000000
000000FFFE000000
003FFFFFFFFFF800
003FFFFFFFFFF800
003FFFFFFFFFF800
003FFFFFFFFFF800
003FFFFFFFFFF800
003FFFFFFFFFF800
003FFFFFFFFFF800
003FFFFFFFFFF800
0000001FF0000000
0000001FF0000000
0000001FF0000000
0000001FF0000000
0000001FF0000000
0000001FF0000000
0000001FF0000000
0000001FF0000000
0000001FF0000000
003FFFFFFFFFF800
003FFFFFFFFFF800
003FFFFFFFFFF800
003FFFFFFFFFF800
003FFFFFFFFFF800
003FFFFFFFFFF800
003FFFFFFFFFF800
003FFFFFFFFFF800
0000001FF0000000
0000001FF0000000
0000001FF0000000
0000001FF0000000
0000001FF0000000
0000001FF0000000
0000001FF0000000
0000001FF0000000
0000001FF0000000
0000001FF0000000
0000001FF0000000
0000001FF0000000
ENDCHAR
STARTCHAR 00A6
ENCODING 166
SWIDTH 273 0
DWIDTH 30 0
BBX 10 98 10 -19
BITMAP
FFC0
FFC0
FFC0
FFC0
FFC0
FFC0
FFC0
FFC0
FFC0
FFC0
FFC0
FFC0
FFC0
FFC0
FFC0
FFC0
FFC0
FFC0
FFC0
FFC0
FFC0
FFC0
FFC0
FFC0
FFC0
FFC0
FFC0
FFC0
FFC0
FFC0
FFC0
FFC0
FFC0
FFC0
FFC0
FFC0
FFC0
FFC0
FFC0
FFC0
FFC0
FFC0
0000
0000
0000
0000
0000
0000
0000
0000
0000
0000
0000
0000
0000
0000
FFC0
FFC0
FFC0
FFC0
FFC0
FFC0
FFC0
FFC0
FFC0
FFC0
FFC0
FFC0
FFC0
FFC0
FFC0
FFC0
FFC0
FFC0
FFC0
FFC0
FFC0
FFC0
FFC0
FFC0
FFC0
FFC0
FFC0
FFC0
FFC0
FFC0
FFC0
FFC0
FFC0
FFC0
FFC0
FFC0
FFC0
FFC0
FFC0
FFC0
FFC0
FFC0
ENDCHAR
STARTCHAR 00A7
ENCODING 167
SWIDTH 528 0
DWIDTH 58 0
BBX 49 90 5 -17
BITMAP
00000780000000
0001FFFE000000
000FFFFFC00000
003FFFFFF00000
007FFFFFF80000
01FFFFFFFE0000
03FFFFFFFF0000
07FFFFFFFF8000
07FFFFFFFFC000
0FFFE01FFFE000
1FFF0007FFE000
1FFC0001FFF000
1FF80000FFF000
3FF800007FF800
3FF000003FF800
3FF000003FF800
3FF000001FFC00
3FF000001FFC00
3FF000000FC000
3FF00000000000
3FF80000000000
3FFC0000000000
1FFE0000000000
1FFF8000000000
1FFFE000000000
0FFFFE00000000
07FFFFC0000000
03FFFFFC000000
01FFFFFFC00000
007FFFFFF80000
003FFFFFFE0000
003FFFFFFF8000
00FFFFFFFFE000
03FFFFFFFFF000
07FFE3FFFFF800
0FFF003FFFFC00
1FFE0007FFFE00
3FF80000FFFF00
3FF000001FFF00
7FE000000FFF80
7FE0000003FF80
7FC0000003FF80
FFC0000001FF80
FFC0000001FF80
FFC0000001FF80
FFC0000001FF80
FFE0000001FF80
FFE0000001FF80
7FF0000001FF80
7FFC000003FF80
7FFF000007FF00
3FFFE00007FF00
1FFFFE000FFE00
0FFFFFE03FFE00
07FFFFFCFFFC00
03FFFFFFFFF800
00FFFFFFFFF000
003FFFFFFFC000
000FFFFFFF0000
0001FFFFFFC000
00003FFFFFE000
000003FFFFF000
0000003FFFF800
00000007FFFC00
00000000FFFC00
000000003FFE00
000000001FFE00
000000000FFE00
0000000007FE00
0000000007FF00
0000000007FF00
0FE0000003FF00
7FF0000007FF00
7FF0000007FF00
3FF8000007FE00
3FF8000007FE00
3FFC00000FFE00
1FFE00001FFE00
1FFF80003FFC00
0FFFE000FFFC00
0FFFFC03FFF800
07FFFFFFFFF800
03FFFFFFFFF000
01FFFFFFFFE000
00FFFFFFFFC000
003FFFFFFF8000
001FFFFFFE0000
0007FFFFF80000
0000FFFFC00000
000007F8000000
ENDCHAR
STARTCHAR 00A8
ENCODING 168
SWIDTH 528 0
DWIDTH 58 0
BBX 32 10 13 90
BITMAP
FFC003FF
FFC003FF
FFC003FF
FFC003FF
FFC003FF
FFC003FF
FFC003FF
FFC003FF
FFC003FF
FFC003FF
ENDCHAR
STARTCHAR 00A9
ENCODING 169
SWIDTH 829 0
DWIDTH 91 0
BBX 85 84 3 -4
BITMAP
000000000FFF8000000000
00000001FFFFFC00000000
0000000FFFFFFF80000000
0000003FFFFFFFE0000000
000001FFFFFFFFFC000000
000003FFFFFFFFFE000000
00000FFFFFFFFFFF800000
00003FFFFFFFFFFFE00000
00007FFFFFFFFFFFF00000
0000FFFFFF07FFFFF80000
0001FFFFC0001FFFFC0000
0003FFFE000003FFFF0000
0007FFF80000007FFF8000
000FFFE00000001FFFC000
001FFF800000000FFFC000
003FFE0000000003FFE000
007FFC0000000001FFF000
00FFF80000000000FFF800
00FFF000000000007FFC00
01FFE00003FF80003FFC00
03FFC0001FFFF0001FFE00
03FF80007FFFFC000FFE00
07FF0001FFFFFE0007FF00
07FE0003FFFFFF8003FF00
0FFE0007FFFFFFC003FF80
0FFC000FFFFFFFE001FF80
1FFC001FFFEFFFE001FFC0
1FF8003FFC00FFF000FFC0
3FF8007FF0003FF800FFE0
3FF0007FE0001FF8007FE0
3FF000FFC0000FFC007FE0
3FE000FF800007FC003FE0
7FE000FF800007F8003FF0
7FE001FF00000380003FF0
7FC001FF00000000001FF0
7FC001FE00000000001FF0
7FC003FE00000000001FF0
FFC003FE00000000001FF8
FFC003FE00000000001FF8
FFC003FE00000000001FF8
FFC003FC00000000001FF8
FFC003FC00000000001FF8
FFC003FC00000000001FF8
FFC003FE00000000001FF8
FFC003FE00000000001FF8
FFC003FE00000000001FF8
FFC003FE00000000001FF8
7FC003FE00000000001FF0
7FC001FE00000000001FF0
7FC001FF00000000001FF0
7FE001FF00000300003FF0
7FE000FF800003F0003FF0
3FE000FF800007FC003FF0
3FF000FFC0000FFC007FE0
3FF0007FE0001FF8007FE0
3FF8007FF0003FF800FFE0
1FF8003FFC00FFF000FFC0
1FFC001FFFFFFFE001FFC0
0FFC000FFFFFFFC001FF80
0FFE0007FFFFFFC003FF80
07FE0003FFFFFF8003FF80
07FF0001FFFFFE0007FF00
03FF80007FFFFC000FFE00
03FFC0001FFFF0001FFE00
01FFE00003FF80003FFC00
01FFF000000000007FFC00
00FFF80000000000FFF800
007FFC0000000001FFF000
003FFE0000000003FFE000
001FFF800000000FFFE000
001FFFC00000001FFFC000
000FFFF00000007FFF8000
0007FFFE000003FFFF0000
0001FFFFC0001FFFFE0000
0000FFFFFF07FFFFF80000
00007FFFFFFFFFFFF00000
00003FFFFFFFFFFFE00000
00000FFFFFFFFFFF800000
000003FFFFFFFFFF000000
000000FFFFFFFFFC000000
0000003FFFFFFFF0000000
0000000FFFFFFF80000000
00000001FFFFFC00000000
000000000FFF8000000000
ENDCHAR
STARTCHAR 00AA
ENCODING 170
SWIDTH 318 0
DWIDTH 35 0
BBX 26 31 4 29
BITMAP
003FC000
01FFF800
07FFFE00
0FFFFF00
1FFFFF80
1FFFFF80
3FC03FC0
3F801FC0
3F000FC0
06000FC0
00000FC0
00001FC0
000FFFC0
00FFFFC0
07FFFFC0
0FFFFFC0
3FFFFFC0
3FFC0FC0
7FC00FC0
7F000FC0
7E000FC0
FE001FC0
FC001FC0
FE003FC0
7E007FC0
7F00FFC0
7FFFFFC0
3FFFF7C0
1FFFE7C0
0FFF87C0
07FE0000
ENDCHAR
STARTCHAR 00AB
ENCODING 171
SWIDTH 555 0
DWIDTH 61 0
BBX 44 48 9 6
BITMAP
000020000300
000038000380
00007C0007C0
0000FE000FE0
0001FF001FF0
0003FF003FF0
0003FE003FE0
0007FC007FC0
000FF800FF80
001FF001FF00
003FF001FF00
003FE003FE00
007FC007FC00
00FF800FF800
01FF001FF000
01FF001FF000
03FE003FE000
07FC007FC000
0FF800FF8000
1FF001FF0000
1FF001FF0000
3FE003FE0000
7FC007FC0000
FF800FF80000
FF800FF80000
7FC007FC0000
3FE003FE0000
1FF001FF0000
1FF001FF0000
0FF800FF8000
07FC007FC000
03FE003FE000
01FF001FF000
01FF001FF000
00FF800FF800
007FC007FC00
003FE003FE00
003FF001FF00
001FF001FF00
000FF800FF80
0007FC007FC0
0003FE003FE0
0003FF003FF0
0001FF001FF0
0000FE000FE0
00007C0007C0
000038000380
000030000300
ENDCHAR
STARTCHAR 00AC
ENCODING 172
SWIDTH 601 0
DWIDTH 66 0
BBX 52 21 7 21
BITMAP
FFFFFFFFFFFFF0
FFFFFFFFFFFFF0
FFFFFFFFFFFFF0
FFFFFFFFFFFFF0
FFFFFFFFFFFFF0
FFFFFFFFFFFFF0
FFFFFFFFFFFFF0
FFFFFFFFFFFFF0
00000000000FF0
00000000000FF0
00000000000FF0
00000000000FF0
00000000000FF0
00000000000FF0
00000000000FF0
00000000000FF0
00000000000FF0
00000000000FF0
00000000000FF0
00000000000FF0
00000000000FF0
ENDCHAR
STARTCHAR 00AD
ENCODING 173
SWIDTH 419 0
DWIDTH 46 0
BBX 32 8 7 31
BITMAP
FFFFFFFF
FFFFFFFF
FFFFFFFF
FFFFFFFF
FFFFFFFF
FFFFFFFF
FFFFFFFF
FFFFFFFF
ENDCHAR
STARTCHAR 00AE
ENCODING 174
SWIDTH 637 0
DWIDTH 70 0
BBX 54 54 8 31
BITMAP
000007FF000000
00003FFFF00000
0001FFFFFC0000
0007FFFFFF0000
000FFFFFFFC000
003FFFFFFFE000
007FFFFFFFF800
00FFFC01FFFC00
01FFE0001FFE00
03FF800007FF00
07FE000003FF00
0FFC000000FF80
0FF80000007FC0
1FF00000003FC0
1FE03FFF801FE0
3FC03FFFC01FF0
3FC03FFFE00FF0
7F803FFFF007F0
7F803C01F807F8
7F003C00F803F8
FF003C007803F8
FE003C007803FC
FE003C007803FC
FE003C007801FC
FE003C00F801FC
FE003C01F801FC
FE003FFFF001FC
FE003FFFE001FC
FE003FFFC001FC
FE003FFF8001FC
FE003C0F8003FC
FE003C07C003F8
FF003C07C003F8
7F003C03E003F8
7F003C03E007F8
7F803C01F007F0
3F803C01F00FF0
3FC03C00F80FF0
3FE03C00F81FE0
1FE00000003FE0
1FF00000007FC0
0FF8000000FFC0
07FC000001FF80
07FF000003FF00
03FF80000FFE00
01FFF0003FFC00
00FFFE03FFF800
007FFFFFFFF000
001FFFFFFFE000
000FFFFFFFC000
0007FFFFFF0000
0000FFFFFC0000
00003FFFF00000
000003FF000000
ENDCHAR
STARTCHAR 00AF
ENCODING 175
SWIDTH 492 0
DWIDTH 54 0
BBX 28 8 13 92
BITMAP
FFFFFFF0
FFFFFFF0
FFFFFFF0
FFFFFFF0
FFFFFFF0
FFFFFFF0
FFFFFFF0
FFFFFFF0
ENDCHAR
STARTCHAR 00B0
ENCODING 176
SWIDTH 446 0
DWIDTH 49 0
BBX 40 40 3 41
BITMAP
0000FF0000
0007FFF000
001FFFFC00
007FFFFE00
00FFFFFF80
01FFFFFFC0
03FFFFFFE0
07FFFFFFE0
0FFFFFFFF0
1FFF00FFF8
1FFC003FF8
3FF8001FFC
3FF0000FFC
7FE00007FE
7FC00003FE
7FC00003FE
7F800001FE
FF800001FF
FF800001FF
FF800001FF
FF800001FF
FF800001FF
FF800001FF
7FC00003FE
7FC00003FE
7FE00003FE
7FE00007FE
3FF0000FFC
3FF8001FFC
1FFE007FF8
1FFF81FFF8
0FFFFFFFF0
07FFFFFFE0
03FFFFFFC0
01FFFFFF80
00FFFFFF00
007FFFFE00
001FFFF800
0007FFE000
00001A0000
ENDCHAR
STARTCHAR 00B1
ENCODING 177
SWIDTH 601 0
DWIDTH 66 0
BBX 52 51 7 8
BITMAP
000003FC000000
000003FC000000
000003FC000000
000003FC000000
000003FC000000
000003FC000000
000003FC000000
000003FC000000
000003FC000000
000003FC000000
000003FC000000
000003FC000000
000003FC000000
FFFFFFFFFFFFF0
FFFFFFFFFFFFF0
FFFFFFFFFFFFF0
FFFFFFFFFFFFF0
FFFFFFFFFFFFF0
FFFFFFFFFFFFF0
FFFFFFFFFFFFF0
FFFFFFFFFFFFF0
000003FC000000
000003FC000000
000003FC000000
000003FC000000
000003FC000000
000003FC000000
000003FC000000
000003FC000000
000003FC000000
000003FC000000
000003FC000000
000003FC000000
000003FC000000
000003FC000000
00000000000000
00000000000000
00000000000000
00000000000000
00000000000000
00000000000000
00000000000000
00000000000000
FFFFFFFFFFFFF0
FFFFFFFFFFFFF0
FFFFFFFFFFFFF0
FFFFFFFFFFFFF0
FFFFFFFFFFFFF0
FFFFFFFFFFFFF0
FFFFFFFFFFFFF0
FFFFFFFFFFFFF0
ENDCHAR
STARTCHAR 00B2
ENCODING 178
SWIDTH 401 0
DWIDTH 44 0
BBX 34 51 5 29
BITMAP
0007FC0000
003FFF8000
00FFFFC000
03FFFFF000
07FFFFF800
0FFFFFFC00
0FFFFFFE00
1FF803FE00
3FE001FF00
3FC000FF00
7FC0007F80
7F80003F80
7F00003F80
7F00003FC0
7F00001FC0
7F00001FC0
0000001FC0
0000001FC0
0000003FC0
0000003FC0
0000003F80
0000007F80
000000FF80
000000FF00
000001FF00
000007FE00
00000FFC00
00001FF800
00003FF000
00007FE000
0000FFC000
0001FF8000
0003FF0000
0007FE0000
000FFC0000
003FF80000
007FF00000
00FFC00000
01FF800000
03FF000000
07FE000000
0FFC000000
1FF8000000
3FF0000000
7FFFFFFFC0
7FFFFFFFC0
7FFFFFFFC0
7FFFFFFFC0
7FFFFFFFC0
FFFFFFFFC0
FFFFFFFFC0
ENDCHAR
STARTCHAR 00B3
ENCODING 179
SWIDTH 391 0
DWIDTH 43 0
BBX 33 51 4 28
BITMAP
3FFFFFFF00
3FFFFFFF00
3FFFFFFF00
3FFFFFFF00
3FFFFFFF00
3FFFFFFF00
3FFFFFFF00
000003FE00
000007FC00
00000FF800
00001FF000
00003FE000
00007FC000
0000FF8000
0001FF0000
0003FE0000
0007FC0000
001FF80000
003FF00000
007FFC0000
00FFFF8000
007FFFC000
007FFFF000
003FFFF800
003FFFFC00
00180FFC00
000003FE00
000001FE00
000000FF00
000000FF00
0000007F00
0000007F00
0000007F80
0000003F80
0000003F80
0000003F80
0000007F80
0000007F00
1E00007F00
FF0000FF00
7F8000FF00
7FC001FE00
3FE007FE00
3FF81FFC00
1FFFFFF800
0FFFFFF000
07FFFFE000
03FFFFC000
00FFFF8000
003FFE0000
0003C00000
ENDCHAR
STARTCHAR 00B4
ENCODING 180
SWIDTH 510 0
DWIDTH 56 0
BBX 15 18 22 88
BITMAP
01FE
03FC
03FC
03FC
07F8
07F8
0FF0
0FF0
0FF0
1FE0
1FE0
3FC0
3FC0
3FC0
7F80
7F80
FF00
FF00
ENDCHAR
STARTCHAR 00B5
ENCODING 181
SWIDTH 610 0
DWIDTH 67 0
BBX 52 86 8 -27
BITMAP
FF800000003FF0
FF800000003FF0
FF800000003FF0
FF800000003FF0
FF800000003FF0
FF800000003FF0
FF800000003FF0
FF800000003FF0
FF800000003FF0
FF800000003FF0
FF800000003FF0
FF800000003FF0
FF800000003FF0
FF800000003FF0
FF800000003FF0
FF800000003FF0
FF800000003FF0
FF800000003FF0
FF800000003FF0
FF800000003FF0
FF800000003FF0
FF800000003FF0
FF800000003FF0
FF800000003FF0
FF800000003FF0
FF800000003FF0
FF800000003FF0
FF800000003FF0
FF800000003FF0
FF800000003FF0
FF800000003FF0
FFC00000003FF0
FFC00000003FF0
FFC00000003FF0
FFC00000003FF0
FFC00000003FF0
FFC00000007FF0
FFC00000007FF0
FFC00000007FF0
FFE00000007FF0
FFE00000007FF0
FFE0000000FFF0
FFF0000000FFF0
FFF0000001FFF0
FFF8000001FFF0
FFF8000003FFF0
FFFC000003FFF0
FFFE000007FFF0
FFFF00000FFFF0
FFFF80003FFFF0
FFFFE000FFFFF0
FFFFFE0FFFFFF0
FFFFFFFFFFDFF0
FFFFFFFFFF9FF0
FFFFFFFFFF9FF0
FF7FFFFFFF1FF0
FF3FFFFFFC1FF0
FF1FFFFFF81FF0
FF07FFFFE01FF0
FF01FFFF800000
FF003FF8000000
FF000000000000
FF000000000000
FF000000000000
FF000000000000
FF000000000000
FF000000000000
FF000000000000
FF000000000000
FF000000000000
FF000000000000
FF000000000000
FF000000000000
FF000000000000
FF000000000000
FF000000000000
FF000000000000
FF000000000000
FF000000000000
FF000000000000
FF000000000000
FF000000000000
FF000000000000
FF000000000000
FF000000000000
FF000000000000
ENDCHAR
STARTCHAR 00B6
ENCODING 182
SWIDTH 665 0
DWIDTH 73 0
BBX 58 94 7 -15
BITMAP
00001FFFFF007FC0
0001FFFFFF007FC0
0007FFFFFF007FC0
001FFFFFFF007FC0
007FFFFFFF007FC0
00FFFFFFFF007FC0
01FFFFFFFF007FC0
03FFFFFFFF007FC0
07FFFFFFFF007FC0
07FFFFFFFF007FC0
0FFFFFFFFF007FC0
1FFFFFFFFF007FC0
1FFFFFFFFF007FC0
3FFFFFFFFF007FC0
3FFFFFFFFF007FC0
3FFFFFFFFF007FC0
7FFFFFFFFF007FC0
7FFFFFFFFF007FC0
7FFFFFFFFF007FC0
7FFFFFFFFF007FC0
FFFFFFFFFF007FC0
FFFFFFFFFF007FC0
FFFFFFFFFF007FC0
FFFFFFFFFF007FC0
FFFFFFFFFF007FC0
FFFFFFFFFF007FC0
FFFFFFFFFF007FC0
FFFFFFFFFF007FC0
FFFFFFFFFF007FC0
FFFFFFFFFF007FC0
7FFFFFFFFF007FC0
7FFFFFFFFF007FC0
7FFFFFFFFF007FC0
7FFFFFFFFF007FC0
3FFFFFFFFF007FC0
3FFFFFFFFF007FC0
3FFFFFFFFF007FC0
1FFFFFFFFF007FC0
1FFFFFFFFF007FC0
0FFFFFFFFF007FC0
07FFFFFFFF007FC0
07FFFFFFFF007FC0
03FFFFFFFF007FC0
01FFFFFFFF007FC0
00FFFFFFFF007FC0
003FFFFFFF007FC0
001FFFFFFF007FC0
0007FFFFFF007FC0
0000FFFFFF007FC0
000007FFFF007FC0
00000003FF007FC0
00000003FF007FC0
00000003FF007FC0
00000003FF007FC0
00000003FF007FC0
00000003FF007FC0
00000003FF007FC0
00000003FF007FC0
00000003FF007FC0
00000003FF007FC0
00000003FF007FC0
00000003FF007FC0
00000003FF007FC0
00000003FF007FC0
00000003FF007FC0
00000003FF007FC0
00000003FF007FC0
00000003FF007FC0
00000003FF007FC0
00000003FF007FC0
00000003FF007FC0
00000003FF007FC0
00000003FF007FC0
00000003FF007FC0
00000003FF007FC0
00000003FF007FC0
00000003FF007FC0
00000003FF007FC0
00000003FF007FC0
00000003FF007FC0
00000003FF007FC0
00000003FF007FC0
00000003FF007FC0
00000003FF007FC0
00000003FF007FC0
00000003FF007FC0
00000003FF007FC0
00000003FF007FC0
00000003FF007FC0
00000003FF007FC0
00000003FF007FC0
00000003FF007FC0
00000003FF007FC0
00000003FF007FC0
ENDCHAR
STARTCHAR 00B7
ENCODING 183
SWIDTH 236 0
DWIDTH 26 0
BBX 13 13 7 28
BITMAP
1F80
3FE0
7FE0
FFF0
FFF0
FFF8
FFF8
FFF8
FFF0
FFF0
7FE0
3FC0
0F80
ENDCHAR
STARTCHAR 00B8
ENCODING 184
SWIDTH 401 0
DWIDTH 44 0
BBX 18 28 13 -26
BITMAP
003C00
01FC00
01F800
03F800
03F800
03F000
07F000
07F000
07F800
0FFC00
0FFE00
1FFF00
03FF80
00FF80
007FC0
003FC0
001FC0
001FC0
003FC0
003FC0
307FC0
3FFF80
3FFF80
7FFF00
7FFF00
7FFE00
FFF800
1FE000
ENDCHAR
STARTCHAR 00B9
ENCODING 185
SWIDTH 328 0
DWIDTH 36 0
BBX 16 49 7 30
BITMAP
00FF
03FF
07FF
1FFF
7FFF
FFFF
FFFF
FFFF
FE7F
FC7F
F07F
C07F
807F
007F
007F
007F
007F
007F
007F
007F
007F
007F
007F
007F
007F
007F
007F
007F
007F
007F
007F
007F
007F
007F
007F
007F
007F
007F
007F
007F
007F
007F
007F
007F
007F
007F
007F
007F
007F
ENDCHAR
STARTCHAR 00BA
ENCODING 186
SWIDTH 346 0
DWIDTH 38 0
BBX 30 31 4 30
BITMAP
001FE000
00FFFC00
01FFFF00
07FFFF80
0FFFFFC0
1FFFFFE0
1FE01FE0
3FC00FF0
3F8007F0
7F0003F8
7F0003F8
7E0001F8
7E0001F8
FE0001FC
FE0001FC
FE0001FC
FE0001FC
FE0001FC
7E0001F8
7E0001F8
7F0003F8
7F0003F8
3F8007F0
3FC00FF0
1FE03FE0
1FFFFFE0
0FFFFFC0
07FFFF80
03FFFF00
00FFFC00
001FE000
ENDCHAR
STARTCHAR 00BB
ENCODING 187
SWIDTH 555 0
DWIDTH 61 0
BBX 44 48 7 6
BITMAP
040000400000
0E0000E00000
1F0001F00000
7F8007F80000
FF800FF80000
7FC007FC0000
3FE003FE0000
1FF001FF0000
1FF001FF8000
0FF800FF8000
07FC007FC000
03FE003FE000
01FF001FF000
01FF001FF000
00FF800FF800
007FC007FC00
003FE003FE00
001FF001FF00
001FF001FF00
000FF800FF80
0007FC007FC0
0003FE003FE0
0001FF001FF0
0001FF001FF0
0001FF001FF0
0001FF001FF0
0003FE003FE0
0007FC007FC0
000FF800FF80
001FF001FF00
001FF001FF00
003FE003FE00
007FC007FC00
00FF800FF800
01FF001FF000
01FF001FF000
03FE003FE000
07FC007FC000
0FF800FF8000
1FF001FF8000
1FF001FF0000
3FE003FE0000
7FC007FC0000
FF800FF80000
7F0007F80000
1F0001F00000
0E0000E00000
040000400000
ENDCHAR
STARTCHAR 00BC
ENCODING 188
SWIDTH 993 0
DWIDTH 109 0
BBX 89 79 7 0
BITMAP
00FF00000000000020000000
03FF00000000000038000000
07FF0000000000007C000000
1FFF000000000000FE000000
7FFF000000000001FF800000
FFFF000000000001FF000000
FFFF000000000003FF000000
FFFF000000000007FE000000
FE7F00000000000FFC000000
FC7F00000000001FF8000000
F07F00000000001FF8000000
C07F00000000003FF0000000
807F00000000007FE0000000
007F0000000000FFC0000000
007F0000000000FFC0000000
007F0000000001FF80000000
007F0000000003FF00000000
007F0000000007FE00000000
007F0000000007FC00000000
007F000000000FFC00000000
007F000000001FF800000000
007F000000003FF000000000
007F000000003FE000000000
007F000000007FE000000000
007F00000000FFC000000000
007F00000001FF8000000000
007F00000001FF0000000000
007F00000003FF0000000000
007F00000007FE0000000000
007F0000000FFC0000000000
007F0000001FF80003FC0000
007F0000001FF80003FC0000
007F0000003FF00007F80000
007F0000007FE00007F80000
007F000000FFC0000FF00000
007F000000FFC0000FF00000
007F000001FF80001FE00000
007F000003FF00001FE00000
007F000007FE00003FC00000
007F000007FE00003FC00000
007F00000FFC00003F800000
007F00001FF800007F800000
007F00003FF000007F000000
007F00003FE00000FF000000
007F00007FE00000FE000000
007F0000FFC00001FE000000
007F0001FF800001FE000000
007F0001FF000003FC000000
007F0003FF000003FC000000
00000007FE000007F8000000
0000000FFC000007F807F000
0000001FF800000FF007F000
0000001FF800000FF007F000
0000003FF000001FE007F000
0000007FE000001FE007F000
000000FFC000003FC007F000
000000FFC000003FC007F000
000001FF8000007F8007F000
000003FF0000007F8007F000
000007FE000000FF0007F000
000007FE000000FF0007F000
00000FFC000001FE0007F000
00001FF8000001FE0007F000
00003FF0000001FFFFFFFF80
00003FF0000001FFFFFFFF80
00007FE0000001FFFFFFFF80
0000FFC0000001FFFFFFFF80
0001FF80000001FFFFFFFF80
0001FF80000001FFFFFFFF80
0003FF00000001FFFFFFFF80
0007FE00000000000007F000
000FFC00000000000007F000
001FF800000000000007F000
001FF800000000000007F000
001FF000000000000007F000
000FE000000000000007F000
0007C000000000000007F000
0001C000000000000007F000
00008000000000000007F000
ENDCHAR
STARTCHAR 00BD
ENCODING 189
SWIDTH 956 0
DWIDTH 105 0
BBX 93 79 7 0
BITMAP
00FF00000000000020000000
03FF00000000000038000000
07FF0000000000007C000000
1FFF000000000000FE000000
7FFF000000000001FF800000
FFFF000000000001FF000000
FFFF000000000003FF000000
FFFF000000000007FE000000
FE7F00000000000FFC000000
FC7F00000000001FF8000000
F07F00000000001FF8000000
C07F00000000003FF0000000
807F00000000007FE0000000
007F0000000000FFC0000000
007F0000000000FF80000000
007F0000000001FF80000000
007F0000000003FF00000000
007F0000000007FE00000000
007F0000000007FC00000000
007F000000000FFC00000000
007F000000001FF800000000
007F000000003FF000000000
007F000000003FE000000000
007F000000007FE000000000
007F00000000FFC000000000
007F00000001FF8000000000
007F00000001FF0000000000
007F00000003FF0000000000
007F00000007FE0000080000
007F0000000FFC0003FFC000
007F0000000FF8000FFFF800
007F0000001FF8003FFFFC00
007F0000003FF0007FFFFF00
007F0000007FE000FFFFFF80
007F000000FFC001FFFFFF80
007F000000FFC003FF80FFC0
007F000001FF8003FE003FE0
007F000003FF0007FC001FE0
007F000007FE0007F8000FF0
007F000007FE000FF0000FF0
007F00000FFC000FF00007F0
007F00001FF8000FE00007F8
007F00003FF0000FE00003F8
007F00003FE0000FE00003F8
007F00007FE0000FE00003F8
007F0000FFC00000000003F8
007F0001FF800000000003F8
007F0001FF000000000007F8
007F0003FF000000000007F8
00000007FE00000000000FF0
0000000FFC00000000000FF0
0000000FF800000000001FF0
0000001FF800000000003FE0
0000003FF000000000007FC0
0000007FE00000000000FFC0
000000FFC00000000001FF80
000000FFC00000000003FF00
000001FF800000000007FE00
000003FF00000000000FFC00
000007FE00000000003FF800
000007FE00000000007FF000
00000FFC0000000000FFC000
00001FF80000000001FF8000
00003FF00000000003FF0000
00003FF00000000007FE0000
00007FE0000000000FFC0000
0000FFC0000000001FF80000
0001FF80000000003FF00000
0001FF8000000000FFE00000
0003FF0000000001FFC00000
0007FE0000000003FF000000
000FFC0000000007FE000000
000FF8000000000FFFFFFFF8
001FF8000000000FFFFFFFF8
001FF0000000000FFFFFFFF8
000FE0000000000FFFFFFFF8
0007C0000000000FFFFFFFF8
0001C0000000000FFFFFFFF8
000080000000000FFFFFFFF8
ENDCHAR
STARTCHAR 00BE
ENCODING 190
SWIDTH 993 0
DWIDTH 109 0
BBX 99 79 4 0
BITMAP
3FFFFFFF000000000004000000
3FFFFFFF00000000000E000000
3FFFFFFF00000000001F000000
3FFFFFFF00000000003F800000
3FFFFFFF00000000007FE00000
3FFFFFFF00000000007FE00000
3FFFFFFF0000000000FFC00000
000003FE0000000001FF800000
000007FC0000000003FF000000
00000FF80000000003FF000000
00001FF00000000007FE000000
00003FE0000000000FFC000000
00007FC0000000001FF8000000
0000FF80000000001FF0000000
0001FF00000000003FF0000000
0003FE00000000007FE0000000
0007FC0000000000FFC0000000
001FF80000000000FF80000000
003FF00000000001FF80000000
007FFC0000000003FF00000000
00FFFF8000000007FE00000000
007FFFC000000007FC00000000
007FFFF00000000FFC00000000
003FFFF80000001FF800000000
003FFFFC0000003FF000000000
00180FFC0000003FE000000000
000003FE0000007FE000000000
000001FE000000FFC000000000
000000FF000001FF8000000000
000000FF000001FF0000000000
0000007F000003FF0000FF0000
0000007F000007FE0000FF0000
0000007F80000FFC0001FE0000
0000003F80001FF80001FE0000
0000003F80001FF80003FC0000
0000003F80003FF00003FC0000
0000007F80007FE00007F80000
0000007F0000FFC00007F80000
1E00007F0000FF80000FF00000
FF0000FF0001FF80000FF00000
7F8000FF0003FF00001FE00000
7FC001FE0007FE00001FE00000
3FE007FE0007FC00003FC00000
3FF81FFC000FFC00003FC00000
1FFFFFF8001FF800007F800000
0FFFFFF0003FF000007F800000
07FFFFE0003FE000007F000000
03FFFFC0007FE00000FF000000
00FFFF8000FFC00000FF000000
003FFE0001FF800001FE000000
0003C00001FF000001FE01FC00
0000000003FF000003FC01FC00
0000000007FE000003FC01FC00
000000000FFC000007F801FC00
000000000FF8000007F801FC00
000000001FF800000FF001FC00
000000003FF000000FF001FC00
000000007FE000001FE001FC00
000000007FC000001FE001FC00
00000000FFC000003FC001FC00
00000001FF8000003FC001FC00
00000003FF0000007F8001FC00
00000007FE0000007F8001FC00
00000007FE0000007F0001FC00
0000000FFC000000FFFFFFFFE0
0000001FF8000000FFFFFFFFE0
0000003FF0000000FFFFFFFFE0
0000003FE0000000FFFFFFFFE0
0000007FE0000000FFFFFFFFE0
000000FFC0000000FFFFFFFFE0
000001FF80000000FFFFFFFFE0
000001FF00000000000001FC00
000003FF00000000000001FC00
000007FE00000000000001FC00
000007FC00000000000001FC00
000003F800000000000001FC00
000001F800000000000001FC00
0000007000000000000001FC00
0000002000000000000001FC00
ENDCHAR
STARTCHAR 00BF
ENCODING 191
SWIDTH 537 0
DWIDTH 59 0
BBX 48 80 5 -21
BITMAP
00000FFE0000
00000FFE0000
00000FFE0000
00000FFE0000
00000FFE0000
00000FFE0000
00000FFE0000
00000FFE0000
00000FFE0000
00000FFE0000
00000FFE0000
00000FFE0000
000000000000
000000000000
000000000000
000000000000
000000000000
000000000000
000000000000
000000000000
000000000000
00000FFE0000
00000FFE0000
00000FFE0000
00000FFE0000
00000FFE0000
00000FFE0000
00000FFC0000
00000FFC0000
00000FFC0000
00001FFC0000
00001FFC0000
00003FF80000
00007FF80000
00007FF00000
0001FFF00000
0003FFE00000
0007FFE00000
000FFFC00000
001FFF800000
003FFF000000
00FFFE000000
01FFFC000000
01FFF0000000
03FFE0000000
07FFC0000000
0FFF80000000
0FFF00000000
1FFE00000000
1FFC00000000
3FF800000000
3FF000000000
7FF000000000
7FF000000000
7FE000000000
7FE000000000
7FE000000000
7FE000000000
FFE000000000
FFE0000003FF
FFE0000003FF
7FE0000003FF
7FE0000007FF
7FF0000007FE
7FF0000007FE
7FF000000FFE
3FF800001FFC
3FFC00001FFC
1FFE00007FF8
1FFF8000FFF8
0FFFF007FFF0
0FFFFFFFFFF0
07FFFFFFFFE0
03FFFFFFFFC0
01FFFFFFFF80
00FFFFFFFF00
003FFFFFFC00
001FFFFFF800
0003FFFFE000
00007FFE0000
ENDCHAR
STARTCHAR 00C0
ENCODING 192
SWIDTH 647 0
DWIDTH 71 0
BBX 67 106 2 0
BITMAP
000003FC0000000000
000003FC0000000000
000003FC0000000000
000001FE0000000000
000001FE0000000000
000000FF0000000000
000000FF0000000000
000000FF0000000000
0000007F8000000000
0000007F8000000000
0000003FC000000000
0000003FC000000000
0000003FC000000000
0000001FE000000000
0000001FE000000000
0000000FF000000000
0000000FF000000000
0000000FF000000000
000000000000000000
000000000000000000
000000000000000000
000000000000000000
000000000000000000
000000000000000000
000000000000000000
000000000000000000
000000000000000000
0000003FFF00000000
0000003FFF80000000
0000003FFF80000000
0000007FFF80000000
0000007FFFC0000000
0000007FFFC0000000
000000FFFFC0000000
000000FFFFE0000000
000000FFFFE0000000
000001FFFFE0000000
000001FFBFF0000000
000001FFBFF0000000
000003FFBFF0000000
000003FF1FF8000000
000003FF1FF8000000
000007FF1FF8000000
000007FE0FFC000000
000007FE0FFC000000
00000FFE0FFC000000
00000FFC07FE000000
00000FFC07FE000000
00001FFC07FE000000
00001FF803FF000000
00001FF803FF000000
00003FF803FF000000
00003FF001FF800000
00003FF001FF800000
00007FF001FF800000
00007FE000FFC00000
00007FE000FFC00000
0000FFE000FFC00000
0000FFC0007FE00000
0000FFC0007FE00000
0001FFC0007FE00000
0001FF80003FF00000
0001FF80003FF00000
0003FF80003FF00000
0003FF00001FF80000
0003FF00001FF80000
0007FF00001FF80000
0007FE00000FFC0000
0007FE00000FFC0000
000FFE00000FFC0000
000FFC000007FE0000
000FFC000007FE0000
001FFC000007FE0000
001FF8000003FF0000
001FF8000003FF0000
003FF8000003FF0000
003FF0000001FF8000
003FF0000001FF8000
007FFFFFFFFFFF8000
007FFFFFFFFFFFC000
007FFFFFFFFFFFC000
00FFFFFFFFFFFFC000
00FFFFFFFFFFFFE000
00FFFFFFFFFFFFE000
01FFFFFFFFFFFFE000
01FFFFFFFFFFFFF000
01FFFFFFFFFFFFF000
03FF000000003FF000
03FF000000001FF800
03FF000000001FF800
07FE000000001FF800
07FE000000000FFC00
07FE000000000FFC00
0FFC000000000FFC00
0FFC0000000007FE00
0FFC0000000007FE00
1FF80000000007FF00
1FF80000000003FF00
1FF80000000003FF00
3FF00000000003FF80
3FF00000000001FF80
3FF00000000001FF80
7FE00000000001FFC0
7FE00000000000FFC0
7FE00000000000FFC0
FFE00000000000FFE0
ENDCHAR
STARTCHAR 00C1
ENCODING 193
SWIDTH 647 0
DWIDTH 71 0
BBX 67 106 2 0
BITMAP
0000000007F8000000
0000000007F8000000
0000000007F8000000
000000000FF0000000
000000000FF0000000
000000001FE0000000
000000001FE0000000
000000001FE0000000
000000003FC0000000
000000003FC0000000
000000007F80000000
000000007F80000000
000000007F80000000
00000000FF00000000
00000000FF00000000
00000001FE00000000
00000001FE00000000
00000001FE00000000
000000000000000000
000000000000000000
000000000000000000
000000000000000000
000000000000000000
000000000000000000
000000000000000000
000000000000000000
000000000000000000
0000003FFF00000000
0000003FFF80000000
0000003FFF80000000
0000007FFF80000000
0000007FFFC0000000
0000007FFFC0000000
000000FFFFC0000000
000000FFFFE0000000
000000FFFFE0000000
000001FFFFE0000000
000001FFFFF0000000
000001FFBFF0000000
000003FFBFF0000000
000003FF3FF8000000
000003FF1FF8000000
000007FF1FF8000000
000007FE1FFC000000
000007FE0FFC000000
00000FFE0FFC000000
00000FFC0FFE000000
00000FFC07FE000000
00001FFC07FE000000
00001FF807FF000000
00001FF803FF000000
00003FF803FF000000
00003FF003FF800000
00003FF001FF800000
00007FF001FF800000
00007FE000FFC00000
00007FE000FFC00000
0000FFC000FFC00000
0000FFC0007FE00000
0000FFC0007FE00000
0001FF80007FE00000
0001FF80003FF00000
0001FF80003FF00000
0003FF00003FF00000
0003FF00001FF80000
0003FF00001FF80000
0007FE00001FF80000
0007FE00000FFC0000
0007FE00000FFC0000
000FFC00000FFC0000
000FFC000007FE0000
000FFC000007FE0000
001FF8000007FE0000
001FF8000003FF0000
001FF8000003FF0000
003FF0000003FF0000
003FF0000001FF8000
003FF0000001FF8000
007FFFFFFFFFFF8000
007FFFFFFFFFFFC000
007FFFFFFFFFFFC000
00FFFFFFFFFFFFC000
00FFFFFFFFFFFFE000
00FFFFFFFFFFFFE000
01FFFFFFFFFFFFE000
01FFFFFFFFFFFFF000
01FFFFFFFFFFFFF000
03FF000000003FF000
03FF000000001FF800
03FF000000001FF800
07FE000000001FF800
07FE000000000FFC00
07FE000000000FFC00
0FFC000000000FFC00
0FFC0000000007FE00
0FFC0000000007FE00
1FF80000000007FF00
1FF80000000003FF00
1FF80000000003FF00
3FF00000000003FF80
3FF00000000001FF80
3FF00000000001FF80
7FE00000000001FFC0
7FE00000000000FFC0
7FE00000000000FFC0
FFE00000000000FFE0
ENDCHAR
STARTCHAR 00C2
ENCODING 194
SWIDTH 647 0
DWIDTH 71 0
BBX 67 104 2 0
BITMAP
00000007FC00000000
0000000FFE00000000
0000001FFF00000000
0000003FFF00000000
0000003FFF80000000
0000007FFFC0000000
000000FFFFE0000000
000001FF3FF0000000
000003FF1FF8000000
000007FE0FFC000000
00000FFC07FC000000
00000FF803FE000000
00001FF001FF000000
00003FE001FF800000
00007FE000FFC00000
0000FFC0007FE00000
000000000000000000
000000000000000000
000000000000000000
000000000000000000
000000000000000000
000000000000000000
000000000000000000
000000000000000000
000000000000000000
0000003FFF00000000
0000003FFF80000000
0000003FFF80000000
0000007FFF80000000
0000007FFFC0000000
0000007FFFC0000000
000000FFFFC0000000
000000FFFFE0000000
000000FFFFE0000000
000001FFFFE0000000
000001FFFFF0000000
000001FFBFF0000000
000003FFBFF0000000
000003FF3FF8000000
000003FF1FF8000000
000007FF1FF8000000
000007FE1FFC000000
000007FE0FFC000000
00000FFE0FFC000000
00000FFC0FFE000000
00000FFC07FE000000
00001FFC07FE000000
00001FF807FF000000
00001FF803FF000000
00003FF803FF000000
00003FF003FF800000
00003FF001FF800000
00007FF001FF800000
00007FE000FFC00000
00007FE000FFC00000
0000FFC000FFC00000
0000FFC0007FE00000
0000FFC0007FE00000
0001FF80007FE00000
0001FF80003FF00000
0001FF80003FF00000
0003FF00003FF00000
0003FF00001FF80000
0003FF00001FF80000
0007FE00001FF80000
0007FE00000FFC0000
0007FE00000FFC0000
000FFC00000FFC0000
000FFC000007FE0000
000FFC000007FE0000
001FF8000007FE0000
001FF8000003FF0000
001FF8000003FF0000
003FF0000003FF0000
003FF0000001FF8000
003FF0000001FF8000
007FFFFFFFFFFF8000
007FFFFFFFFFFFC000
007FFFFFFFFFFFC000
00FFFFFFFFFFFFC000
00FFFFFFFFFFFFE000
00FFFFFFFFFFFFE000
01FFFFFFFFFFFFE000
01FFFFFFFFFFFFF000
01FFFFFFFFFFFFF000
03FF000000003FF000
03FF000000001FF800
03FF000000001FF800
07FE000000001FF800
07FE000000000FFC00
07FE000000000FFC00
0FFC000000000FFC00
0FFC0000000007FE00
0FFC0000000007FE00
1FF80000000007FF00
1FF80000000003FF00
1FF80000000003FF00
3FF00000000003FF80
3FF00000000001FF80
3FF00000000001FF80
7FE00000000001FFC0
7FE00000000000FFC0
7FE00000000000FFC0
FFE00000000000FFE0
ENDCHAR
STARTCHAR 00C3
ENCODING 195
SWIDTH 647 0
DWIDTH 71 0
BBX 67 105 2 0
BITMAP
000007F00000000000
00001FFE000FE00000
00003FFF000FE00000
00007FFFC00FE00000
00007FFFF00FE00000
0000FFFFFC1FE00000
0000FFFFFFFFE00000
0000FFFFFFFFE00000
0000FE07FFFFC00000
0000FE01FFFFC00000
0000FE007FFF800000
0000FE003FFF800000
0000FE000FFE000000
0000000001F8000000
000000000000000000
000000000000000000
000000000000000000
000000000000000000
000000000000000000
000000000000000000
000000000000000000
000000000000000000
000000000000000000
000000000000000000
000000000000000000
000000000000000000
0000003FFF00000000
0000003FFF80000000
0000003FFF80000000
0000007FFF80000000
0000007FFFC0000000
0000007FFFC0000000
000000FFFFC0000000
000000FFFFE0000000
000000FFFFE0000000
000001FFFFE0000000
000001FFFFF0000000
000001FFBFF0000000
000003FFBFF0000000
000003FF3FF8000000
000003FF1FF8000000
000007FF1FF8000000
000007FE1FFC000000
000007FE0FFC000000
00000FFE0FFC000000
00000FFC0FFE000000
00000FFC07FE000000
00001FFC07FE000000
00001FF807FF000000
00001FF803FF000000
00003FF803FF000000
00003FF003FF800000
00003FF001FF800000
00007FF001FF800000
00007FE000FFC00000
00007FE000FFC00000
0000FFC000FFC00000
0000FFC0007FE00000
0000FFC0007FE00000
0001FF80007FE00000
0001FF80003FF00000
0001FF80003FF00000
0003FF00003FF00000
0003FF00001FF80000
0003FF00001FF80000
0007FE00001FF80000
0007FE00000FFC0000
0007FE00000FFC0000
000FFC00000FFC0000
000FFC000007FE0000
000FFC000007FE0000
001FF8000007FE0000
001FF8000003FF0000
001FF8000003FF0000
003FF0000003FF0000
003FF0000001FF8000
003FF0000001FF8000
007FFFFFFFFFFF8000
007FFFFFFFFFFFC000
007FFFFFFFFFFFC000
00FFFFFFFFFFFFC000
00FFFFFFFFFFFFE000
00FFFFFFFFFFFFE000
01FFFFFFFFFFFFE000
01FFFFFFFFFFFFF000
01FFFFFFFFFFFFF000
03FF000000003FF000
03FF000000001FF800
03FF000000001FF800
07FE000000001FF800
07FE000000000FFC00
07FE000000000FFC00
0FFC000000000FFC00
0FFC0000000007FE00
0FFC0000000007FE00
1FF80000000007FF00
1FF80000000003FF00
1FF80000000003FF00
3FF00000000003FF80
3FF00000000001FF80
3FF00000000001FF80
7FE00000000001FFC0
7FE00000000000FFC0
7FE00000000000FFC0
FFE00000000000FFE0
ENDCHAR
STARTCHAR 00C4
ENCODING 196
SWIDTH 647 0
DWIDTH 71 0
BBX 67 100 2 0
BITMAP
00003FF001FF800000
00003FF001FF800000
00003FF001FF800000
00003FF001FF800000
00003FF001FF800000
00003FF001FF800000
00003FF001FF800000
00003FF001FF800000
00003FF001FF800000
00003FF001FF800000
000000000000000000
000000000000000000
000000000000000000
000000000000000000
000000000000000000
000000000000000000
000000000000000000
000000000000000000
000000000000000000
000000000000000000
000000000000000000
0000003FFF00000000
0000003FFF80000000
0000003FFF80000000
0000007FFF80000000
0000007FFFC0000000
0000007FFFC0000000
000000FFFFC0000000
000000FFFFE0000000
000000FFFFE0000000
000001FFFFE0000000
000001FFFFF0000000
000001FFBFF0000000
000003FFBFF0000000
000003FF3FF8000000
000003FF1FF8000000
000007FF1FF8000000
000007FE1FFC000000
000007FE0FFC000000
00000FFE0FFC000000
00000FFC0FFE000000
00000FFC07FE000000
00001FFC07FE000000
00001FF807FF000000
00001FF803FF000000
00003FF803FF000000
00003FF003FF800000
00003FF001FF800000
00007FF001FF800000
00007FE000FFC00000
00007FE000FFC00000
0000FFC000FFC00000
0000FFC0007FE00000
0000FFC0007FE00000
0001FF80007FE00000
0001FF80003FF00000
0001FF80003FF00000
0003FF00003FF00000
0003FF00001FF80000
0003FF00001FF80000
0007FE00001FF80000
0007FE00000FFC0000
0007FE00000FFC0000
000FFC00000FFC0000
000FFC000007FE0000
000FFC000007FE0000
001FF8000007FE0000
001FF8000003FF0000
001FF8000003FF0000
003FF0000003FF0000
003FF0000001FF8000
003FF0000001FF8000
007FFFFFFFFFFF8000
007FFFFFFFFFFFC000
007FFFFFFFFFFFC000
00FFFFFFFFFFFFC000
00FFFFFFFFFFFFE000
00FFFFFFFFFFFFE000
01FFFFFFFFFFFFE000
01FFFFFFFFFFFFF000
01FFFFFFFFFFFFF000
03FF000000003FF000
03FF000000001FF800
03FF000000001FF800
07FE000000001FF800
07FE000000000FFC00
07FE000000000FFC00
0FFC000000000FFC00
0FFC0000000007FE00
0FFC0000000007FE00
1FF80000000007FF00
1FF80000000003FF00
1FF80000000003FF00
3FF00000000003FF80
3FF00000000001FF80
3FF00000000001FF80
7FE00000000001FFC0
7FE00000000000FFC0
7FE00000000000FFC0
FFE00000000000FFE0
ENDCHAR
STARTCHAR 00C5
ENCODING 197
SWIDTH 647 0
DWIDTH 71 0
BBX 67 111 2 0
BITMAP
00000000F000000000
0000000FFE00000000
0000003FFF80000000
0000007FFFC0000000
000000FFFFE0000000
000001FFFFF0000000
000001FFFFF0000000
000003FE0FF8000000
000003FC07F8000000
000007F803FC000000
000007F001FC000000
000007F001FC000000
000007E001FC000000
000007E001FC000000
000007F001FC000000
000007F001FC000000
000007F803FC000000
000003FC07F8000000
000003FE0FF8000000
000001FFFFF0000000
000001FFFFF0000000
000000FFFFE0000000
0000007FFFC0000000
0000003FFF80000000
0000000FFE00000000
00000000F000000000
000000000000000000
000000000000000000
000000000000000000
000000000000000000
000000000000000000
000000000000000000
0000003FFF00000000
0000003FFF80000000
0000003FFF80000000
0000007FFF80000000
0000007FFFC0000000
0000007FFFC0000000
000000FFFFC0000000
000000FFFFE0000000
000000FFFFE0000000
000001FFFFE0000000
000001FFFFF0000000
000001FFBFF0000000
000003FFBFF0000000
000003FF3FF8000000
000003FF1FF8000000
000007FF1FF8000000
000007FE1FFC000000
000007FE0FFC000000
00000FFE0FFC000000
00000FFC0FFE000000
00000FFC07FE000000
00001FFC07FE000000
00001FF807FF000000
00001FF803FF000000
00003FF803FF000000
00003FF003FF800000
00003FF001FF800000
00007FF001FF800000
00007FE000FFC00000
00007FE000FFC00000
0000FFC000FFC00000
0000FFC0007FE00000
0000FFC0007FE00000
0001FF80007FE00000
0001FF80003FF00000
0001FF80003FF00000
0003FF00003FF00000
0003FF00001FF80000
0003FF00001FF80000
0007FE00001FF80000
0007FE00000FFC0000
0007FE00000FFC0000
000FFC00000FFC0000
000FFC000007FE0000
000FFC000007FE0000
001FF8000007FE0000
001FF8000003FF0000
001FF8000003FF0000
003FF0000003FF0000
003FF0000001FF8000
003FF0000001FF8000
007FFFFFFFFFFF8000
007FFFFFFFFFFFC000
007FFFFFFFFFFFC000
00FFFFFFFFFFFFC000
00FFFFFFFFFFFFE000
00FFFFFFFFFFFFE000
01FFFFFFFFFFFFE000
01FFFFFFFFFFFFF000
01FFFFFFFFFFFFF000
03FF000000003FF000
03FF000000001FF800
03FF000000001FF800
07FE000000001FF800
07FE000000000FFC00
07FE000000000FFC00
0FFC000000000FFC00
0FFC0000000007FE00
0FFC0000000007FE00
1FF80000000007FF00
1FF80000000003FF00
1FF80000000003FF00
3FF00000000003FF80
3FF00000000001FF80
3FF00000000001FF80
7FE00000000001FFC0
7FE00000000000FFC0
7FE00000000000FFC0
FFE00000000000FFE0
ENDCHAR
STARTCHAR 00C6
ENCODING 198
SWIDTH 920 0
DWIDTH 101 0
BBX 94 79 2 0
BITMAP
0000003FFFFFFFFFFFFFFFFC
0000003FFFFFFFFFFFFFFFFC
0000003FFFFFFFFFFFFFFFFC
0000007FFFFFFFFFFFFFFFFC
0000007FFFFFFFFFFFFFFFFC
0000007FFFFFFFFFFFFFFFFC
000000FFFFFFFFFFFFFFFFFC
000000FFFFFFFFFFFFFFFFFC
000000FFFFFFFFFFFFFFFFFC
000001FFC00FFC0000000000
000001FF800FFC0000000000
000001FF800FFC0000000000
000003FF800FFC0000000000
000003FF000FFC0000000000
000003FF000FFC0000000000
000007FF000FFC0000000000
000007FE000FFC0000000000
000007FE000FFC0000000000
00000FFE000FFC0000000000
00000FFC000FFC0000000000
00000FFC000FFC0000000000
00001FFC000FFC0000000000
00001FF8000FFC0000000000
00001FF8000FFC0000000000
00003FF8000FFC0000000000
00003FF0000FFC0000000000
00003FF0000FFC0000000000
00007FE0000FFC0000000000
00007FE0000FFC0000000000
00007FE0000FFC0000000000
0000FFC0000FFC0000000000
0000FFC0000FFC0000000000
0000FFC0000FFC0000000000
0001FF80000FFC0000000000
0001FF80000FFFFFFFFFFE00
0001FF80000FFFFFFFFFFE00
0003FF00000FFFFFFFFFFE00
0003FF00000FFFFFFFFFFE00
0003FF00000FFFFFFFFFFE00
0007FE00000FFFFFFFFFFE00
0007FE00000FFFFFFFFFFE00
0007FE00000FFFFFFFFFFE00
000FFC00000FFFFFFFFFFE00
000FFC00000FFC0000000000
000FFC00000FFC0000000000
001FF800000FFC0000000000
001FF800000FFC0000000000
001FF800000FFC0000000000
003FF000000FFC0000000000
003FF000000FFC0000000000
003FF000000FFC0000000000
007FFFFFFFFFFC0000000000
007FFFFFFFFFFC0000000000
007FFFFFFFFFFC0000000000
00FFFFFFFFFFFC0000000000
00FFFFFFFFFFFC0000000000
00FFFFFFFFFFFC0000000000
01FFFFFFFFFFFC0000000000
01FFFFFFFFFFFC0000000000
01FFFFFFFFFFFC0000000000
03FF0000000FFC0000000000
03FF0000000FFC0000000000
03FF0000000FFC0000000000
07FE0000000FFC0000000000
07FE0000000FFC0000000000
07FE0000000FFC0000000000
0FFC0000000FFC0000000000
0FFC0000000FFC0000000000
0FFC0000000FFC0000000000
1FF80000000FFC0000000000
1FF80000000FFFFFFFFFFFFC
1FF80000000FFFFFFFFFFFFC
3FF00000000FFFFFFFFFFFFC
3FF00000000FFFFFFFFFFFFC
3FF00000000FFFFFFFFFFFFC
7FE00000000FFFFFFFFFFFFC
7FE00000000FFFFFFFFFFFFC
7FE00000000FFFFFFFFFFFFC
FFE00000000FFFFFFFFFFFFC
ENDCHAR
STARTCHAR 00C7
ENCODING 199
SWIDTH 720 0
DWIDTH 79 0
BBX 72 108 3 -27
BITMAP
00000003FFF0000000
0000003FFFFF800000
000001FFFFFFF00000
00000FFFFFFFFC0000
00003FFFFFFFFF0000
00007FFFFFFFFFC000
0001FFFFFFFFFFE000
0003FFFFFFFFFFF000
0007FFFFFFFFFFFC00
000FFFFFC0FFFFFE00
001FFFF80007FFFE00
003FFFC00000FFFF00
007FFF0000003FFF80
00FFFC0000000FFFC0
00FFF800000007FFE0
01FFF000000003FFE0
03FFE000000001FFF0
03FFC000000000FFF0
07FF80000000007FF8
07FF00000000003FFC
0FFF00000000001FFC
0FFE00000000001FFC
1FFE00000000000FFE
1FFC00000000000FFE
1FFC000000000007FE
3FF8000000000007FF
3FF8000000000007FC
3FF8000000000003C0
3FF000000000000000
7FF000000000000000
7FF000000000000000
7FF000000000000000
7FE000000000000000
7FE000000000000000
7FE000000000000000
7FE000000000000000
FFE000000000000000
FFE000000000000000
FFE000000000000000
FFE000000000000000
FFE000000000000000
FFE000000000000000
FFE000000000000000
FFE000000000000000
FFE000000000000000
FFE000000000000000
FFE000000000000000
7FE000000000000000
7FE000000000000000
7FE000000000000000
7FE000000000000000
7FE000000000000000
7FF000000000000000
7FF000000000000000
3FF000000000000000
3FF0000000000003C0
3FF8000000000007FC
3FF8000000000007FF
1FFC000000000007FF
1FFC00000000000FFE
1FFC00000000000FFE
0FFE00000000001FFC
0FFF00000000001FFC
07FF00000000003FFC
07FF80000000007FF8
03FFC000000000FFF8
03FFE000000000FFF0
01FFF000000001FFE0
01FFF800000007FFE0
00FFFC0000000FFFC0
007FFF0000003FFF80
003FFFC00000FFFF00
001FFFF00003FFFF00
000FFFFF80FFFFFE00
0007FFFFFFFFFFFC00
0003FFFFFFFFFFF000
0001FFFFFFFFFFE000
00007FFFFFFFFFC000
00003FFFFFFFFF0000
00000FFFFFFFFC0000
000003FFFFFFF00000
0000003FFFFF800000
00000003FFF8000000
000000001FC0000000
000000001F80000000
000000003F80000000
000000003F80000000
000000003F80000000
000000007FC0000000
000000007FF0000000
000000007FF8000000
00000000FFF8000000
000000001FFC000000
0000000007FC000000
0000000001FE000000
0000000001FE000000
0000000001FE000000
0000000001FE000000
0000000001FE000000
0000000003FE000000
0000000187FC000000
00000001FFFC000000
00000003FFFC000000
00000003FFF8000000
00000003FFF0000000
00000007FFE0000000
00000003FFC0000000
00000000FF00000000
ENDCHAR
STARTCHAR 00C8
ENCODING 200
SWIDTH 574 0
DWIDTH 63 0
BBX 50 106 8 0
BITMAP
0001FE00000000
0000FF00000000
0000FF00000000
0000FF00000000
00007F80000000
00007F80000000
00003FC0000000
00003FC0000000
00003FC0000000
00001FE0000000
00001FE0000000
00000FF0000000
00000FF0000000
00000FF0000000
000007F8000000
000007F8000000
000003FC000000
000003FC000000
00000000000000
00000000000000
00000000000000
00000000000000
00000000000000
00000000000000
00000000000000
00000000000000
00000000000000
FFFFFFFFFFFFC0
FFFFFFFFFFFFC0
FFFFFFFFFFFFC0
FFFFFFFFFFFFC0
FFFFFFFFFFFFC0
FFFFFFFFFFFFC0
FFFFFFFFFFFFC0
FFFFFFFFFFFFC0
FFFFFFFFFFFFC0
FF800000000000
FF800000000000
FF800000000000
FF800000000000
FF800000000000
FF800000000000
FF800000000000
FF800000000000
FF800000000000
FF800000000000
FF800000000000
FF800000000000
FF800000000000
FF800000000000
FF800000000000
FF800000000000
FF800000000000
FF800000000000
FF800000000000
FF800000000000
FF800000000000
FF800000000000
FF800000000000
FF800000000000
FF800000000000
FFFFFFFFFFE000
FFFFFFFFFFE000
FFFFFFFFFFE000
FFFFFFFFFFE000
FFFFFFFFFFE000
FFFFFFFFFFE000
FFFFFFFFFFE000
FFFFFFFFFFE000
FFFFFFFFFFE000
FF800000000000
FF800000000000
FF800000000000
FF800000000000
FF800000000000
FF800000000000
FF800000000000
FF800000000000
FF800000000000
FF800000000000
FF800000000000
FF800000000000
FF800000000000
FF800000000000
FF800000000000
FF800000000000
FF800000000000
FF800000000000
FF800000000000
FF800000000000
FF800000000000
FF800000000000
FF800000000000
FF800000000000
FF800000000000
FF800000000000
FF800000000000
FFFFFFFFFFFFC0
FFFFFFFFFFFFC0
FFFFFFFFFFFFC0
FFFFFFFFFFFFC0
FFFFFFFFFFFFC0
FFFFFFFFFFFFC0
FFFFFFFFFFFFC0
FFFFFFFFFFFFC0
FFFFFFFFFFFFC0
ENDCHAR
STARTCHAR 00C9
ENCODING 201
SWIDTH 574 0
DWIDTH 63 0
BBX 50 106 8 0
BITMAP
00000007F80000
00000007F00000
0000000FF00000
0000000FF00000
0000001FE00000
0000001FE00000
0000001FE00000
0000003FC00000
0000003FC00000
0000007F800000
0000007F800000
0000007F800000
000000FF000000
000000FF000000
000001FE000000
000001FE000000
000001FE000000
000003FC000000
00000000000000
00000000000000
00000000000000
00000000000000
00000000000000
00000000000000
00000000000000
00000000000000
00000000000000
FFFFFFFFFFFFC0
FFFFFFFFFFFFC0
FFFFFFFFFFFFC0
FFFFFFFFFFFFC0
FFFFFFFFFFFFC0
FFFFFFFFFFFFC0
FFFFFFFFFFFFC0
FFFFFFFFFFFFC0
FFFFFFFFFFFFC0
FF800000000000
FF800000000000
FF800000000000
FF800000000000
FF800000000000
FF800000000000
FF800000000000
FF800000000000
FF800000000000
FF800000000000
FF800000000000
FF800000000000
FF800000000000
FF800000000000
FF800000000000
FF800000000000
FF800000000000
FF800000000000
FF800000000000
FF800000000000
FF800000000000
FF800000000000
FF800000000000
FF800000000000
FF800000000000
FFFFFFFFFFE000
FFFFFFFFFFE000
FFFFFFFFFFE000
FFFFFFFFFFE000
FFFFFFFFFFE000
FFFFFFFFFFE000
FFFFFFFFFFE000
FFFFFFFFFFE000
FFFFFFFFFFE000
FF800000000000
FF800000000000
FF800000000000
FF800000000000
FF800000000000
FF800000000000
FF800000000000
FF800000000000
FF800000000000
FF800000000000
FF800000000000
FF800000000000
FF800000000000
FF800000000000
FF800000000000
FF800000000000
FF800000000000
FF800000000000
FF800000000000
FF800000000000
FF800000000000
FF800000000000
FF800000000000
FF800000000000
FF800000000000
FF800000000000
FF800000000000
FFFFFFFFFFFFC0
FFFFFFFFFFFFC0
FFFFFFFFFFFFC0
FFFFFFFFFFFFC0
FFFFFFFFFFFFC0
FFFFFFFFFFFFC0
FFFFFFFFFFFFC0
FFFFFFFFFFFFC0
FFFFFFFFFFFFC0
ENDCHAR
STARTCHAR 00CA
ENCODING 202
SWIDTH 574 0
DWIDTH 63 0
BBX 50 104 8 0
BITMAP
00000FF0000000
00001FF8000000
00003FFC000000
00007FFE000000
0000FFFF000000
0001FFFF800000
0003FFFFC00000
0003FE7FC00000
0007FC3FE00000
000FF81FF00000
001FF81FF80000
003FF00FFC0000
007FE007FE0000
00FFC003FF0000
00FF8001FF0000
01FF0000FF8000
00000000000000
00000000000000
00000000000000
00000000000000
00000000000000
00000000000000
00000000000000
00000000000000
00000000000000
FFFFFFFFFFFFC0
FFFFFFFFFFFFC0
FFFFFFFFFFFFC0
FFFFFFFFFFFFC0
FFFFFFFFFFFFC0
FFFFFFFFFFFFC0
FFFFFFFFFFFFC0
FFFFFFFFFFFFC0
FFFFFFFFFFFFC0
FF800000000000
FF800000000000
FF800000000000
FF800000000000
FF800000000000
FF800000000000
FF800000000000
FF800000000000
FF800000000000
FF800000000000
FF800000000000
FF800000000000
FF800000000000
FF800000000000
FF800000000000
FF800000000000
FF800000000000
FF800000000000
FF800000000000
FF800000000000
FF800000000000
FF800000000000
FF800000000000
FF800000000000
FF800000000000
FFFFFFFFFFE000
FFFFFFFFFFE000
FFFFFFFFFFE000
FFFFFFFFFFE000
FFFFFFFFFFE000
FFFFFFFFFFE000
FFFFFFFFFFE000
FFFFFFFFFFE000
FFFFFFFFFFE000
FF800000000000
FF800000000000
FF800000000000
FF800000000000
FF800000000000
FF800000000000
FF800000000000
FF800000000000
FF800000000000
FF800000000000
FF800000000000
FF800000000000
FF800000000000
FF800000000000
FF800000000000
FF800000000000
FF800000000000
FF800000000000
FF800000000000
FF800000000000
FF800000000000
FF800000000000
FF800000000000
FF800000000000
FF800000000000
FF800000000000
FF800000000000
FFFFFFFFFFFFC0
FFFFFFFFFFFFC0
FFFFFFFFFFFFC0
FFFFFFFFFFFFC0
FFFFFFFFFFFFC0
FFFFFFFFFFFFC0
FFFFFFFFFFFFC0
FFFFFFFFFFFFC0
FFFFFFFFFFFFC0
ENDCHAR
STARTCHAR 00CB
ENCODING 203
SWIDTH 574 0
DWIDTH 63 0
BBX 50 100 8 0
BITMAP
00FFC003FE0000
00FFC003FE0000
00FFC003FE0000
00FFC003FE0000
00FFC003FE0000
00FFC003FE0000
00FFC003FE0000
00FFC003FE0000
00FFC003FE0000
00FFC003FE0000
00000000000000
00000000000000
00000000000000
00000000000000
00000000000000
00000000000000
00000000000000
00000000000000
00000000000000
00000000000000
00000000000000
FFFFFFFFFFFFC0
FFFFFFFFFFFFC0
FFFFFFFFFFFFC0
FFFFFFFFFFFFC0
FFFFFFFFFFFFC0
FFFFFFFFFFFFC0
FFFFFFFFFFFFC0
FFFFFFFFFFFFC0
FFFFFFFFFFFFC0
FF800000000000
FF800000000000
FF800000000000
FF800000000000
FF800000000000
FF800000000000
FF800000000000
FF800000000000
FF800000000000
FF800000000000
FF800000000000
FF800000000000
FF800000000000
FF800000000000
FF800000000000
FF800000000000
FF800000000000
FF800000000000
FF800000000000
FF800000000000
FF800000000000
FF800000000000
FF800000000000
FF800000000000
FF800000000000
FFFFFFFFFFE000
FFFFFFFFFFE000
FFFFFFFFFFE000
FFFFFFFFFFE000
FFFFFFFFFFE000
FFFFFFFFFFE000
FFFFFFFFFFE000
FFFFFFFFFFE000
FFFFFFFFFFE000
FF800000000000
FF800000000000
FF800000000000
FF800000000000
FF800000000000
FF800000000000
FF800000000000
FF800000000000
FF800000000000
FF800000000000
FF800000000000
FF800000000000
FF800000000000
FF800000000000
FF800000000000
FF800000000000
FF800000000000
FF800000000000
FF800000000000
FF800000000000
FF800000000000
FF800000000000
FF800000000000
FF800000000000
FF800000000000
FF800000000000
FF800000000000
FFFFFFFFFFFFC0
FFFFFFFFFFFFC0
FFFFFFFFFFFFC0
FFFFFFFFFFFFC0
FFFFFFFFFFFFC0
FFFFFFFFFFFFC0
FFFFFFFFFFFFC0
FFFFFFFFFFFFC0
FFFFFFFFFFFFC0
ENDCHAR
STARTCHAR 00CC
ENCODING 204
SWIDTH 246 0
DWIDTH 27 0
BBX 16 106 3 0
BITMAP
FF00
FF00
FF00
7F80
7F80
3FC0
3FC0
3FC0
1FE0
1FE0
0FF0
0FF0
0FF0
07F8
07F8
03FC
03FC
03FC
0000
0000
0000
0000
0000
0000
0000
0000
0000
03FF
03FF
03FF
03FF
03FF
03FF
03FF
03FF
03FF
03FF
03FF
03FF
03FF
03FF
03FF
03FF
03FF
03FF
03FF
03FF
03FF
03FF
03FF
03FF
03FF
03FF
03FF
03FF
03FF
03FF
03FF
03FF
03FF
03FF
03FF
03FF
03FF
03FF
03FF
03FF
03FF
03FF
03FF
03FF
03FF
03FF
03FF
03FF
03FF
03FF
03FF
03FF
03FF
03FF
03FF
03FF
03FF
03FF
03FF
03FF
03FF
03FF
03FF
03FF
03FF
03FF
03FF
03FF
03FF
03FF
03FF
03FF
03FF
03FF
03FF
03FF
03FF
03FF
03FF
ENDCHAR
STARTCHAR 00CD
ENCODING 205
SWIDTH 246 0
DWIDTH 27 0
BBX 16 106 9 0
BITMAP
00FF
01FE
01FE
01FE
03FC
03FC
07F8
07F8
07F8
0FF0
0FF0
1FE0
1FE0
1FE0
3FC0
3FC0
7F80
7F80
0000
0000
0000
0000
0000
0000
0000
0000
0000
FFC0
FFC0
FFC0
FFC0
FFC0
FFC0
FFC0
FFC0
FFC0
FFC0
FFC0
FFC0
FFC0
FFC0
FFC0
FFC0
FFC0
FFC0
FFC0
FFC0
FFC0
FFC0
FFC0
FFC0
FFC0
FFC0
FFC0
FFC0
FFC0
FFC0
FFC0
FFC0
FFC0
FFC0
FFC0
FFC0
FFC0
FFC0
FFC0
FFC0
FFC0
FFC0
FFC0
FFC0
FFC0
FFC0
FFC0
FFC0
FFC0
FFC0
FFC0
FFC0
FFC0
FFC0
FFC0
FFC0
FFC0
FFC0
FFC0
FFC0
FFC0
FFC0
FFC0
FFC0
FFC0
FFC0
FFC0
FFC0
FFC0
FFC0
FFC0
FFC0
FFC0
FFC0
FFC0
FFC0
FFC0
FFC0
FFC0
ENDCHAR
STARTCHAR 00CE
ENCODING 206
SWIDTH 246 0
DWIDTH 27 0
BBX 35 104 -4 0
BITMAP
0007FC0000
000FFE0000
001FFF0000
001FFF8000
003FFF8000
007FFFC000
00FFBFE000
01FFBFF000
03FF1FF800
07FE0FFC00
07FC07FE00
0FF803FE00
1FF001FF00
3FF000FF80
7FE000FFC0
FFC0007FE0
0000000000
0000000000
0000000000
0000000000
0000000000
0000000000
0000000000
0000000000
0000000000
0007FE0000
0007FE0000
0007FE0000
0007FE0000
0007FE0000
0007FE0000
0007FE0000
0007FE0000
0007FE0000
0007FE0000
0007FE0000
0007FE0000
0007FE0000
0007FE0000
0007FE0000
0007FE0000
0007FE0000
0007FE0000
0007FE0000
0007FE0000
0007FE0000
0007FE0000
0007FE0000
0007FE0000
0007FE0000
0007FE0000
0007FE0000
0007FE0000
0007FE0000
0007FE0000
0007FE0000
0007FE0000
0007FE0000
0007FE0000
0007FE0000
0007FE0000
0007FE0000
0007FE0000
0007FE0000
0007FE0000
0007FE0000
0007FE0000
0007FE0000
0007FE0000
0007FE0000
0007FE0000
0007FE0000
0007FE0000
0007FE0000
0007FE0000
0007FE0000
0007FE0000
0007FE0000
0007FE0000
0007FE0000
0007FE0000
0007FE0000
0007FE0000
0007FE0000
0007FE0000
0007FE0000
0007FE0000
0007FE0000
0007FE0000
0007FE0000
0007FE0000
0007FE0000
0007FE0000
0007FE0000
0007FE0000
0007FE0000
0007FE0000
0007FE0000
0007FE0000
0007FE0000
0007FE0000
0007FE0000
0007FE0000
0007FE0000
ENDCHAR
STARTCHAR 00CF
ENCODING 207
SWIDTH 246 0
DWIDTH 27 0
BBX 31 100 -2 0
BITMAP
FFC007FE
FFC007FE
FFC007FE
FFC007FE
FFC007FE
FFC007FE
FFC007FE
FFC007FE
FFC007FE
FFC007FE
00000000
00000000
00000000
00000000
00000000
00000000
00000000
00000000
00000000
00000000
00000000
001FF800
001FF800
001FF800
001FF800
001FF800
001FF800
001FF800
001FF800
001FF800
001FF800
001FF800
001FF800
001FF800
001FF800
001FF800
001FF800
001FF800
001FF800
001FF800
001FF800
001FF800
001FF800
001FF800
001FF800
001FF800
001FF800
001FF800
001FF800
001FF800
001FF800
001FF800
001FF800
001FF800
001FF800
001FF800
001FF800
001FF800
001FF800
001FF800
001FF800
001FF800
001FF800
001FF800
001FF800
001FF800
001FF800
001FF800
001FF800
001FF800
001FF800
001FF800
001FF800
001FF800
001FF800
001FF800
001FF800
001FF800
001FF800
001FF800
001FF800
001FF800
001FF800
001FF800
001FF800
001FF800
001FF800
001FF800
001FF800
001FF800
001FF800
001FF800
001FF800
001FF800
001FF800
001FF800
001FF800
001FF800
001FF800
001FF800
ENDCHAR
STARTCHAR 00D0
ENCODING 208
SWIDTH 674 0
DWIDTH 74 0
BBX 68 79 1 0
BITMAP
03FFFFFFFF80000000
03FFFFFFFFF8000000
03FFFFFFFFFF000000
03FFFFFFFFFFC00000
03FFFFFFFFFFF00000
03FFFFFFFFFFFC0000
03FFFFFFFFFFFE0000
03FFFFFFFFFFFF0000
03FFFFFFFFFFFF8000
03FF00000FFFFFC000
03FF0000003FFFE000
03FF00000007FFF000
03FF00000001FFF800
03FF00000000FFFC00
03FF000000007FFC00
03FF000000003FFE00
03FF000000001FFE00
03FF000000000FFF00
03FF0000000007FF00
03FF0000000007FF80
03FF0000000003FF80
03FF0000000001FF80
03FF0000000001FFC0
03FF0000000001FFC0
03FF0000000000FFC0
03FF0000000000FFE0
03FF0000000000FFE0
03FF00000000007FE0
03FF00000000007FE0
03FF00000000007FF0
03FF00000000007FF0
03FF00000000007FF0
03FF00000000003FF0
03FF00000000003FF0
03FF00000000003FF0
FFFFFFFFE000003FF0
FFFFFFFFE000003FF0
FFFFFFFFE000003FF0
FFFFFFFFE000003FF0
FFFFFFFFE000003FF0
FFFFFFFFE000003FF0
FFFFFFFFE000003FF0
FFFFFFFFE000003FF0
03FF00000000003FF0
03FF00000000003FF0
03FF00000000003FF0
03FF00000000007FF0
03FF00000000007FF0
03FF00000000007FF0
03FF00000000007FE0
03FF00000000007FE0
03FF00000000007FE0
03FF0000000000FFE0
03FF0000000000FFE0
03FF0000000000FFC0
03FF0000000001FFC0
03FF0000000001FFC0
03FF0000000003FF80
03FF0000000003FF80
03FF0000000007FF80
03FF0000000007FF00
03FF000000000FFF00
03FF000000001FFE00
03FF000000003FFE00
03FF000000007FFC00
03FF00000000FFF800
03FF00000003FFF800
03FF00000007FFF000
03FF0000003FFFE000
03FF00000FFFFFC000
03FFFFFFFFFFFF8000
03FFFFFFFFFFFF0000
03FFFFFFFFFFFE0000
03FFFFFFFFFFFC0000
03FFFFFFFFFFF00000
03FFFFFFFFFFC00000
03FFFFFFFFFF000000
03FFFFFFFFFC000000
03FFFFFFFF80000000
ENDCHAR
STARTCHAR 00D1
ENCODING 209
SWIDTH 692 0
DWIDTH 76 0
BBX 61 102 8 1
BITMAP
00003FE000000000
00007FFC003F8000
0000FFFE003F8000
0001FFFF803F8000
0001FFFFE03F8000
0003FFFFF03F8000
0003FFFFFFFF8000
0003FC7FFFFF8000
0003F80FFFFF0000
0003F807FFFF0000
0003F801FFFE0000
0003F800FFFE0000
0003F8003FF80000
0000000007E00000
0000000000000000
0000000000000000
0000000000000000
0000000000000000
0000000000000000
0000000000000000
0000000000000000
0000000000000000
0000000000000000
FFC0000000001FF8
FFE0000000001FF8
FFE0000000001FF8
FFF0000000001FF8
FFF8000000001FF8
FFF8000000001FF8
FFFC000000001FF8
FFFE000000001FF8
FFFE000000001FF8
FFFF000000001FF8
FFFF800000001FF8
FFFF800000001FF8
FFFFC00000001FF8
FFFFE00000001FF8
FFFFE00000001FF8
FFFFF00000001FF8
FFFFF80000001FF8
FFFFF80000001FF8
FFFFFC0000001FF8
FFDFFE0000001FF8
FFCFFE0000001FF8
FFCFFF0000001FF8
FFC7FF8000001FF8
FFC3FF8000001FF8
FFC3FFC000001FF8
FFC1FFE000001FF8
FFC0FFE000001FF8
FFC0FFF000001FF8
FFC07FF800001FF8
FFC03FF800001FF8
FFC03FFC00001FF8
FFC01FFE00001FF8
FFC00FFE00001FF8
FFC00FFF00001FF8
FFC007FF80001FF8
FFC003FF80001FF8
FFC003FFC0001FF8
FFC001FFE0001FF8
FFC000FFE0001FF8
FFC000FFF0001FF8
FFC0007FF8001FF8
FFC0003FF8001FF8
FFC0003FFC001FF8
FFC0001FFE001FF8
FFC0000FFE001FF8
FFC0000FFF001FF8
FFC00007FF801FF8
FFC00003FF801FF8
FFC00003FFC01FF8
FFC00001FFE01FF8
FFC00000FFE01FF8
FFC00000FFF01FF8
FFC000007FF81FF8
FFC000003FF81FF8
FFC000003FFC1FF8
FFC000001FFE1FF8
FFC000000FFE1FF8
FFC000000FFF1FF8
FFC0000007FF9FF8
FFC0000003FF9FF8
FFC0000003FFDFF8
FFC0000001FFFFF8
FFC0000000FFFFF8
FFC0000000FFFFF8
FFC00000007FFFF8
FFC00000003FFFF8
FFC00000003FFFF8
FFC00000001FFFF8
FFC00000000FFFF8
FFC00000000FFFF8
FFC000000007FFF8
FFC000000003FFF8
FFC000000003FFF8
FFC000000001FFF8
FFC000000000FFF8
FFC000000000FFF8
FFC0000000007FF8
FFC0000000003FF8
FFC0000000003FF8
ENDCHAR
STARTCHAR 00D2
ENCODING 210
SWIDTH 729 0
DWIDTH 80 0
BBX 74 109 3 -2
BITMAP
0000007F800000000000
0000003FC00000000000
0000003FC00000000000
0000001FE00000000000
0000001FE00000000000
0000001FE00000000000
0000000FF00000000000
0000000FF00000000000
00000007F80000000000
00000007F80000000000
00000007F80000000000
00000003FC0000000000
00000003FC0000000000
00000001FE0000000000
00000001FE0000000000
00000001FE0000000000
00000000FF0000000000
00000000FF0000000000
000000007F8000000000
00000000000000000000
00000000000000000000
00000000000000000000
00000000000000000000
00000000000000000000
00000000000000000000
00000000000000000000
00000003FFF000000000
0000003FFFFF80000000
000001FFFFFFF0000000
00000FFFFFFFFC000000
00003FFFFFFFFF000000
00007FFFFFFFFF800000
0001FFFFFFFFFFE00000
0003FFFFFFFFFFF00000
0007FFFFFFFFFFF80000
000FFFFFC0FFFFFE0000
001FFFF80003FFFE0000
003FFFC00000FFFF0000
007FFF0000003FFF8000
00FFFC0000000FFFC000
00FFF800000007FFE000
01FFF000000003FFE000
03FFE000000001FFF000
03FFC000000000FFF800
07FF80000000007FF800
07FF00000000003FFC00
0FFF00000000001FFC00
0FFE00000000001FFC00
1FFE00000000000FFE00
1FFC00000000000FFE00
1FFC000000000007FF00
3FF8000000000007FF00
3FF8000000000007FF00
3FF8000000000003FF00
3FF0000000000003FF80
7FF0000000000003FF80
7FF0000000000003FF80
7FF0000000000001FF80
7FE0000000000001FF80
7FE0000000000001FFC0
7FE0000000000001FFC0
7FE0000000000001FFC0
FFE0000000000001FFC0
FFE0000000000001FFC0
FFE0000000000000FFC0
FFE0000000000000FFC0
FFE0000000000000FFC0
FFE0000000000000FFC0
FFE0000000000000FFC0
FFE0000000000000FFC0
FFE0000000000000FFC0
FFE0000000000001FFC0
FFE0000000000001FFC0
7FE0000000000001FFC0
7FE0000000000001FFC0
7FE0000000000001FF80
7FE0000000000001FF80
7FF0000000000001FF80
7FF0000000000003FF80
7FF0000000000003FF80
3FF0000000000003FF80
3FF8000000000003FF00
3FF8000000000007FF00
3FF8000000000007FF00
1FFC000000000007FF00
1FFC00000000000FFE00
1FFE00000000000FFE00
0FFE00000000001FFC00
0FFF00000000001FFC00
07FF00000000003FFC00
07FF80000000007FF800
03FFC000000000FFF800
03FFE000000000FFF000
01FFF000000001FFE000
00FFF800000007FFE000
00FFFC0000000FFFC000
007FFF0000003FFF8000
003FFFC00000FFFF0000
001FFFF80003FFFF0000
000FFFFFC07FFFFE0000
0007FFFFFFFFFFFC0000
0003FFFFFFFFFFF00000
0001FFFFFFFFFFE00000
00007FFFFFFFFFC00000
00003FFFFFFFFF000000
00000FFFFFFFFC000000
000001FFFFFFF0000000
0000003FFFFF80000000
00000003FFF000000000
ENDCHAR
STARTCHAR 00D3
ENCODING 211
SWIDTH 729 0
DWIDTH 80 0
BBX 74 109 3 -2
BITMAP
00000000007F80000000
00000000007F80000000
0000000000FF00000000
0000000000FF00000000
0000000000FF00000000
0000000001FE00000000
0000000001FE00000000
0000000003FC00000000
0000000003FC00000000
0000000003FC00000000
0000000007F800000000
0000000007F800000000
000000000FF000000000
000000000FF000000000
000000000FF000000000
000000001FE000000000
000000001FE000000000
000000003FC000000000
000000003FC000000000
00000000000000000000
00000000000000000000
00000000000000000000
00000000000000000000
00000000000000000000
00000000000000000000
00000000000000000000
00000003FFF000000000
0000003FFFFF80000000
000001FFFFFFF0000000
00000FFFFFFFFC000000
00003FFFFFFFFF000000
00007FFFFFFFFF800000
0001FFFFFFFFFFE00000
0003FFFFFFFFFFF00000
0007FFFFFFFFFFF80000
000FFFFFC0FFFFFE0000
001FFFF80003FFFE0000
003FFFC00000FFFF0000
007FFF0000003FFF8000
00FFFC0000000FFFC000
00FFF800000007FFE000
01FFF000000003FFE000
03FFE000000001FFF000
03FFC000000000FFF800
07FF80000000007FF800
07FF00000000003FFC00
0FFF00000000001FFC00
0FFE00000000001FFC00
1FFE00000000000FFE00
1FFC00000000000FFE00
1FFC000000000007FF00
3FF8000000000007FF00
3FF8000000000007FF00
3FF8000000000003FF00
3FF0000000000003FF80
7FF0000000000003FF80
7FF0000000000003FF80
7FF0000000000001FF80
7FE0000000000001FF80
7FE0000000000001FFC0
7FE0000000000001FFC0
7FE0000000000001FFC0
FFE0000000000001FFC0
FFE0000000000001FFC0
FFE0000000000000FFC0
FFE0000000000000FFC0
FFE0000000000000FFC0
FFE0000000000000FFC0
FFE0000000000000FFC0
FFE0000000000000FFC0
FFE0000000000000FFC0
FFE0000000000001FFC0
FFE0000000000001FFC0
7FE0000000000001FFC0
7FE0000000000001FFC0
7FE0000000000001FF80
7FE0000000000001FF80
7FF0000000000001FF80
7FF0000000000003FF80
7FF0000000000003FF80
3FF0000000000003FF80
3FF8000000000003FF00
3FF8000000000007FF00
3FF8000000000007FF00
1FFC000000000007FF00
1FFC00000000000FFE00
1FFE00000000000FFE00
0FFE00000000001FFC00
0FFF00000000001FFC00
07FF00000000003FFC00
07FF80000000007FF800
03FFC000000000FFF800
03FFE000000000FFF000
01FFF000000001FFE000
00FFF800000007FFE000
00FFFC0000000FFFC000
007FFF0000003FFF8000
003FFFC00000FFFF0000
001FFFF80003FFFF0000
000FFFFFC07FFFFE0000
0007FFFFFFFFFFFC0000
0003FFFFFFFFFFF00000
0001FFFFFFFFFFE00000
00007FFFFFFFFFC00000
00003FFFFFFFFF000000
00000FFFFFFFFC000000
000001FFFFFFF0000000
0000003FFFFF80000000
00000003FFF000000000
ENDCHAR
STARTCHAR 00D4
ENCODING 212
SWIDTH 729 0
DWIDTH 80 0
BBX 74 106 3 -2
BITMAP
00000000FFC000000000
00000001FFE000000000
00000001FFF000000000
00000003FFF000000000
00000007FFF800000000
0000000FFFFC00000000
0000001FFFFE00000000
0000003FF3FF00000000
0000007FE1FF80000000
0000007FC0FFC0000000
000000FF807FC0000000
000001FF003FE0000000
000003FF003FF0000000
000007FE001FF8000000
00000FFC000FFC000000
00001FF80007FE000000
00000000000000000000
00000000000000000000
00000000000000000000
00000000000000000000
00000000000000000000
00000000000000000000
00000000000000000000
00000003FFF000000000
0000003FFFFF80000000
000001FFFFFFF0000000
00000FFFFFFFFC000000
00003FFFFFFFFF000000
00007FFFFFFFFF800000
0001FFFFFFFFFFE00000
0003FFFFFFFFFFF00000
0007FFFFFFFFFFF80000
000FFFFFC0FFFFFE0000
001FFFF80003FFFE0000
003FFFC00000FFFF0000
007FFF0000003FFF8000
00FFFC0000000FFFC000
00FFF800000007FFE000
01FFF000000003FFE000
03FFE000000001FFF000
03FFC000000000FFF800
07FF80000000007FF800
07FF00000000003FFC00
0FFF00000000001FFC00
0FFE00000000001FFC00
1FFE00000000000FFE00
1FFC00000000000FFE00
1FFC000000000007FF00
3FF8000000000007FF00
3FF8000000000007FF00
3FF8000000000003FF00
3FF0000000000003FF80
7FF0000000000003FF80
7FF0000000000003FF80
7FF0000000000001FF80
7FE0000000000001FF80
7FE0000000000001FFC0
7FE0000000000001FFC0
7FE0000000000001FFC0
FFE0000000000001FFC0
FFE0000000000001FFC0
FFE0000000000000FFC0
FFE0000000000000FFC0
FFE0000000000000FFC0
FFE0000000000000FFC0
FFE0000000000000FFC0
FFE0000000000000FFC0
FFE0000000000000FFC0
FFE0000000000001FFC0
FFE0000000000001FFC0
7FE0000000000001FFC0
7FE0000000000001FFC0
7FE0000000000001FF80
7FE0000000000001FF80
7FF0000000000001FF80
7FF0000000000003FF80
7FF0000000000003FF80
3FF0000000000003FF80
3FF8000000000003FF00
3FF8000000000007FF00
3FF8000000000007FF00
1FFC000000000007FF00
1FFC00000000000FFE00
1FFE00000000000FFE00
0FFE00000000001FFC00
0FFF00000000001FFC00
07FF00000000003FFC00
07FF80000000007FF800
03FFC000000000FFF800
03FFE000000000FFF000
01FFF000000001FFE000
00FFF800000007FFE000
00FFFC0000000FFFC000
007FFF0000003FFF8000
003FFFC00000FFFF0000
001FFFF80003FFFF0000
000FFFFFC07FFFFE0000
0007FFFFFFFFFFFC0000
0003FFFFFFFFFFF00000
0001FFFFFFFFFFE00000
00007FFFFFFFFFC00000
00003FFFFFFFFF000000
00000FFFFFFFFC000000
000001FFFFFFF0000000
0000003FFFFF80000000
00000003FFF000000000
ENDCHAR
STARTCHAR 00D5
ENCODING 213
SWIDTH 729 0
DWIDTH 80 0
BBX 74 105 3 -2
BITMAP
0000003F000000000000
000000FFE000FE000000
000001FFF8007E000000
000003FFFE007E000000
000007FFFF007F000000
000007FFFFC0FF000000
000007FFFFF1FE000000
00000FFFFFFFFE000000
00000FF07FFFFE000000
00000FE01FFFFE000000
00000FE00FFFFC000000
00000FE003FFFC000000
000007E000FFF8000000
00000000003FE0000000
00000000000300000000
00000000000000000000
00000000000000000000
00000000000000000000
00000000000000000000
00000000000000000000
00000000000000000000
00000000000000000000
00000003FFF000000000
0000003FFFFF80000000
000001FFFFFFF0000000
00000FFFFFFFFC000000
00003FFFFFFFFF000000
00007FFFFFFFFF800000
0001FFFFFFFFFFE00000
0003FFFFFFFFFFF00000
0007FFFFFFFFFFF80000
000FFFFFC0FFFFFE0000
001FFFF80003FFFE0000
003FFFC00000FFFF0000
007FFF0000003FFF8000
00FFFC0000000FFFC000
00FFF800000007FFE000
01FFF000000003FFE000
03FFE000000001FFF000
03FFC000000000FFF800
07FF80000000007FF800
07FF00000000003FFC00
0FFF00000000001FFC00
0FFE00000000001FFC00
1FFE00000000000FFE00
1FFC00000000000FFE00
1FFC000000000007FF00
3FF8000000000007FF00
3FF8000000000007FF00
3FF8000000000003FF00
3FF0000000000003FF80
7FF0000000000003FF80
7FF0000000000003FF80
7FF0000000000001FF80
7FE0000000000001FF80
7FE0000000000001FFC0
7FE0000000000001FFC0
7FE0000000000001FFC0
FFE0000000000001FFC0
FFE0000000000001FFC0
FFE0000000000000FFC0
FFE0000000000000FFC0
FFE0000000000000FFC0
FFE0000000000000FFC0
FFE0000000000000FFC0
FFE0000000000000FFC0
FFE0000000000000FFC0
FFE0000000000001FFC0
FFE0000000000001FFC0
7FE0000000000001FFC0
7FE0000000000001FFC0
7FE0000000000001FF80
7FE0000000000001FF80
7FF0000000000001FF80
7FF0000000000003FF80
7FF0000000000003FF80
3FF0000000000003FF80
3FF8000000000003FF00
3FF8000000000007FF00
3FF8000000000007FF00
1FFC000000000007FF00
1FFC00000000000FFE00
1FFE00000000000FFE00
0FFE00000000001FFC00
0FFF00000000001FFC00
07FF00000000003FFC00
07FF80000000007FF800
03FFC000000000FFF800
03FFE000000000FFF000
01FFF000000001FFE000
00FFF800000007FFE000
00FFFC0000000FFFC000
007FFF0000003FFF8000
003FFFC00000FFFF0000
001FFFF80003FFFF0000
000FFFFFC07FFFFE0000
0007FFFFFFFFFFFC0000
0003FFFFFFFFFFF00000
0001FFFFFFFFFFE00000
00007FFFFFFFFFC00000
00003FFFFFFFFF000000
00000FFFFFFFFC000000
000001FFFFFFF0000000
0000003FFFFF80000000
00000003FFF000000000
ENDCHAR
STARTCHAR 00D6
ENCODING 214
SWIDTH 729 0
DWIDTH 80 0
BBX 74 102 3 -2
BITMAP
000007FE001FF8000000
000007FE001FF8000000
000007FE001FF8000000
000007FE001FF8000000
000007FE001FF8000000
000007FE001FF8000000
000007FE001FF8000000
000007FE001FF8000000
000007FE001FF8000000
000007FE001FF8000000
00000000000000000000
00000000000000000000
00000000000000000000
00000000000000000000
00000000000000000000
00000000000000000000
00000000000000000000
00000000000000000000
00000000000000000000
00000003FFF000000000
0000003FFFFF80000000
000001FFFFFFF0000000
00000FFFFFFFFC000000
00003FFFFFFFFF000000
00007FFFFFFFFF800000
0001FFFFFFFFFFE00000
0003FFFFFFFFFFF00000
0007FFFFFFFFFFF80000
000FFFFFC0FFFFFE0000
001FFFF80003FFFE0000
003FFFC00000FFFF0000
007FFF0000003FFF8000
00FFFC0000000FFFC000
00FFF800000007FFE000
01FFF000000003FFE000
03FFE000000001FFF000
03FFC000000000FFF800
07FF80000000007FF800
07FF00000000003FFC00
0FFF00000000001FFC00
0FFE00000000001FFC00
1FFE00000000000FFE00
1FFC00000000000FFE00
1FFC000000000007FF00
3FF8000000000007FF00
3FF8000000000007FF00
3FF8000000000003FF00
3FF0000000000003FF80
7FF0000000000003FF80
7FF0000000000003FF80
7FF0000000000001FF80
7FE0000000000001FF80
7FE0000000000001FFC0
7FE0000000000001FFC0
7FE0000000000001FFC0
FFE0000000000001FFC0
FFE0000000000001FFC0
FFE0000000000000FFC0
FFE0000000000000FFC0
FFE0000000000000FFC0
FFE0000000000000FFC0
FFE0000000000000FFC0
FFE0000000000000FFC0
FFE0000000000000FFC0
FFE0000000000001FFC0
FFE0000000000001FFC0
7FE0000000000001FFC0
7FE0000000000001FFC0
7FE0000000000001FF80
7FE0000000000001FF80
7FF0000000000001FF80
7FF0000000000003FF80
7FF0000000000003FF80
3FF0000000000003FF80
3FF8000000000003FF00
3FF8000000000007FF00
3FF8000000000007FF00
1FFC000000000007FF00
1FFC00000000000FFE00
1FFE00000000000FFE00
0FFE00000000001FFC00
0FFF00000000001FFC00
07FF00000000003FFC00
07FF80000000007FF800
03FFC000000000FFF800
03FFE000000000FFF000
01FFF000000001FFE000
00FFF800000007FFE000
00FFFC0000000FFFC000
007FFF0000003FFF8000
003FFFC00000FFFF0000
001FFFF80003FFFF0000
000FFFFFC07FFFFE0000
0007FFFFFFFFFFFC0000
0003FFFFFFFFFFF00000
0001FFFFFFFFFFE00000
00007FFFFFFFFFC00000
00003FFFFFFFFF000000
00000FFFFFFFFC000000
000001FFFFFFF0000000
0000003FFFFF80000000
00000003FFF000000000
ENDCHAR
STARTCHAR 00D7
ENCODING 215
SWIDTH 492 0
DWIDTH 54 0
BBX 40 41 7 19
BITMAP
0400000020
0E00000070
1F000000F8
3F800001FC
7FC00003FE
FFE00007FF
FFF0000FFF
7FF8001FFE
3FFC003FFC
1FFE007FF8
0FFF00FFF0
07FF81FFE0
03FFC3FFC0
01FFE7FF80
00FFFFFF00
007FFFFE00
003FFFFC00
001FFFF800
000FFFF000
0007FFE000
0003FFC000
0007FFE000
000FFFF000
001FFFF800
003FFFFC00
007FFFFE00
00FFFFFF00
01FFE7FF80
03FFC3FFC0
07FF81FFE0
0FFF00FFF0
1FFE007FF8
3FFC003FFC
7FF8001FFE
FFF0000FFF
FFE00007FF
7FC00003FE
3F800001FC
1F000000F8
0E00000070
0400000020
ENDCHAR
STARTCHAR 00D8
ENCODING 216
SWIDTH 729 0
DWIDTH 80 0
BBX 75 83 3 -2
BITMAP
00000003FFF000000000
0000003FFFFF00000800
000001FFFFFFE0001C00
00000FFFFFFFFC003E00
00003FFFFFFFFE007F00
00007FFFFFFFFF807FC0
0001FFFFFFFFFFE0FFE0
0003FFFFFFFFFFF1FFE0
0007FFFFFFFFFFFBFFC0
000FFFFFC1FFFFFFFFC0
001FFFF80003FFFFFF80
003FFFC00000FFFFFF00
007FFF0000003FFFFE00
00FFFC0000000FFFFC00
00FFF800000007FFF800
01FFF000000003FFF000
03FFE000000003FFF000
03FFC000000007FFF000
07FF800000000FFFF800
07FF000000001FFFF800
0FFF000000001FFFFC00
0FFE000000003FFFFC00
1FFE000000007FFFFE00
1FFC00000000FFFFFE00
1FFC00000001FFE7FE00
3FF800000003FFC7FF00
3FF800000007FF87FF00
3FF80000000FFF03FF00
3FF00000001FFF03FF80
7FF00000003FFE03FF80
7FF00000003FFC03FF80
7FF00000007FF801FF80
7FE0000000FFF001FF80
7FE0000001FFE001FF80
7FE0000003FFC001FFC0
7FE0000007FF8001FFC0
FFE000000FFF0001FFC0
FFE000001FFE0001FFC0
FFE000003FFE0000FFC0
FFE000007FFC0000FFC0
FFE000007FF80000FFC0
FFE00000FFF00000FFC0
FFE00001FFE00000FFC0
FFE00003FFC00000FFC0
FFE00007FF800000FFC0
FFE0000FFF000001FFC0
FFE0001FFE000001FFC0
7FE0003FFE000001FFC0
7FE0007FFC000001FFC0
7FE000FFF8000001FFC0
7FE000FFF0000001FF80
7FF001FFE0000001FF80
7FF003FFC0000003FF80
7FF007FF80000003FF80
3FF00FFF00000003FF80
3FF81FFE00000003FF00
3FF83FFC00000007FF00
3FF87FFC00000007FF00
1FFCFFF800000007FF00
1FFDFFF00000000FFE00
1FFFFFE00000000FFE00
0FFFFFC00000001FFC00
0FFFFF800000001FFC00
07FFFF000000003FFC00
07FFFE000000007FF800
03FFFC00000000FFF800
03FFF800000000FFF000
01FFF800000001FFE000
01FFF800000007FFE000
03FFFC0000000FFFC000
07FFFF0000003FFF8000
0FFFFFC00000FFFF8000
1FFFFFF80003FFFF0000
1FFFFFFFE07FFFFE0000
3FFFFFFFFFFFFFFC0000
7FF9FFFFFFFFFFF00000
FFF0FFFFFFFFFFE00000
7FE07FFFFFFFFFC00000
3FC01FFFFFFFFF000000
0F8007FFFFFFFC000000
070001FFFFFFF0000000
0200003FFFFF80000000
00000001FFF000000000
ENDCHAR
STARTCHAR 00D9
ENCODING 217
SWIDTH 710 0
DWIDTH 78 0
BBX 62 108 8 -2
BITMAP
000007F800000000
000007F800000000
000003FC00000000
000003FC00000000
000001FE00000000
000001FE00000000
000001FE00000000
000000FF00000000
000000FF00000000
0000007F80000000
0000007F80000000
0000007F80000000
0000003FC0000000
0000003FC0000000
0000001FE0000000
0000001FE0000000
0000001FE0000000
0000000FF0000000
0000000000000000
0000000000000000
0000000000000000
0000000000000000
0000000000000000
0000000000000000
0000000000000000
0000000000000000
0000000000000000
FFC0000000000FFC
FFC0000000000FFC
FFC0000000000FFC
FFC0000000000FFC
FFC0000000000FFC
FFC0000000000FFC
FFC0000000000FFC
FFC0000000000FFC
FFC0000000000FFC
FFC0000000000FFC
FFC0000000000FFC
FFC0000000000FFC
FFC0000000000FFC
FFC0000000000FFC
FFC0000000000FFC
FFC0000000000FFC
FFC0000000000FFC
FFC0000000000FFC
FFC0000000000FFC
FFC0000000000FFC
FFC0000000000FFC
FFC0000000000FFC
FFC0000000000FFC
FFC0000000000FFC
FFC0000000000FFC
FFC0000000000FFC
FFC0000000000FFC
FFC0000000000FFC
FFC0000000000FFC
FFC0000000000FFC
FFC0000000000FFC
FFC0000000000FFC
FFC0000000000FFC
FFC0000000000FFC
FFC0000000000FFC
FFC0000000000FFC
FFC0000000000FFC
FFC0000000000FFC
FFC0000000000FFC
FFC0000000000FFC
FFC0000000000FFC
FFC0000000000FFC
FFC0000000000FFC
FFC0000000000FFC
FFC0000000000FFC
FFC0000000000FFC
FFC0000000000FFC
FFC0000000000FFC
FFC0000000000FFC
FFC0000000000FFC
FFC0000000000FFC
FFC0000000000FFC
FFC0000000000FFC
FFC0000000000FFC
FFC0000000000FFC
FFC0000000001FFC
FFC0000000001FF8
FFE0000000001FF8
7FE0000000001FF8
7FF0000000003FF8
7FF0000000003FF8
7FF0000000007FF0
3FF800000000FFF0
3FFC00000000FFE0
1FFE00000001FFE0
1FFF00000003FFE0
0FFF80000007FFC0
0FFFC000000FFF80
07FFE000003FFF80
03FFF80000FFFF00
03FFFE0003FFFE00
01FFFFE03FFFFC00
00FFFFFFFFFFF800
007FFFFFFFFFF000
003FFFFFFFFFE000
000FFFFFFFFFC000
0007FFFFFFFF0000
0001FFFFFFFC0000
00007FFFFFF00000
00000FFFFFC00000
000000FFF8000000
ENDCHAR
STARTCHAR 00DA
ENCODING 218
SWIDTH 710 0
DWIDTH 78 0
BBX 62 108 8 -2
BITMAP
000000007F800000
000000007F800000
00000000FF000000
00000000FF000000
00000000FE000000
00000001FE000000
00000001FE000000
00000003FC000000
00000003FC000000
00000003F8000000
00000007F8000000
00000007F8000000
0000000FF0000000
0000000FF0000000
0000000FF0000000
0000001FE0000000
0000001FE0000000
0000003FC0000000
0000000000000000
0000000000000000
0000000000000000
0000000000000000
0000000000000000
0000000000000000
0000000000000000
0000000000000000
0000000000000000
FFC0000000000FFC
FFC0000000000FFC
FFC0000000000FFC
FFC0000000000FFC
FFC0000000000FFC
FFC0000000000FFC
FFC0000000000FFC
FFC0000000000FFC
FFC0000000000FFC
FFC0000000000FFC
FFC0000000000FFC
FFC0000000000FFC
FFC0000000000FFC
FFC0000000000FFC
FFC0000000000FFC
FFC0000000000FFC
FFC0000000000FFC
FFC0000000000FFC
FFC0000000000FFC
FFC0000000000FFC
FFC0000000000FFC
FFC0000000000FFC
FFC0000000000FFC
FFC0000000000FFC
FFC0000000000FFC
FFC0000000000FFC
FFC0000000000FFC
FFC0000000000FFC
FFC0000000000FFC
FFC0000000000FFC
FFC0000000000FFC
FFC0000000000FFC
FFC0000000000FFC
FFC0000000000FFC
FFC0000000000FFC
FFC0000000000FFC
FFC0000000000FFC
FFC0000000000FFC
FFC0000000000FFC
FFC0000000000FFC
FFC0000000000FFC
FFC0000000000FFC
FFC0000000000FFC
FFC0000000000FFC
FFC0000000000FFC
FFC0000000000FFC
FFC0000000000FFC
FFC0000000000FFC
FFC0000000000FFC
FFC0000000000FFC
FFC0000000000FFC
FFC0000000000FFC
FFC0000000000FFC
FFC0000000000FFC
FFC0000000000FFC
FFC0000000001FFC
FFC0000000001FF8
FFE0000000001FF8
7FE0000000001FF8
7FF0000000003FF8
7FF0000000003FF8
7FF0000000007FF0
3FF800000000FFF0
3FFC00000000FFE0
1FFE00000001FFE0
1FFF00000003FFE0
0FFF80000007FFC0
0FFFC000000FFF80
07FFE000003FFF80
03FFF80000FFFF00
03FFFE0003FFFE00
01FFFFE03FFFFC00
00FFFFFFFFFFF800
007FFFFFFFFFF000
003FFFFFFFFFE000
000FFFFFFFFFC000
0007FFFFFFFF0000
0001FFFFFFFC0000
00007FFFFFF00000
00000FFFFFC00000
000000FFF8000000
ENDCHAR
STARTCHAR 00DB
ENCODING 219
SWIDTH 710 0
DWIDTH 78 0
BBX 62 106 8 -2
BITMAP
0000003FE0000000
0000007FF0000000
0000007FF8000000
000000FFFC000000
000001FFFE000000
000003FFFE000000
000007FFFF000000
00000FFCFF800000
00001FF8FFC00000
00001FF07FE00000
00003FE03FF00000
00007FC01FF80000
0000FFC00FF80000
0001FF8007FC0000
0003FF0003FE0000
0007FE0003FF0000
0000000000000000
0000000000000000
0000000000000000
0000000000000000
0000000000000000
0000000000000000
0000000000000000
0000000000000000
0000000000000000
FFC0000000000FFC
FFC0000000000FFC
FFC0000000000FFC
FFC0000000000FFC
FFC0000000000FFC
FFC0000000000FFC
FFC0000000000FFC
FFC0000000000FFC
FFC0000000000FFC
FFC0000000000FFC
FFC0000000000FFC
FFC0000000000FFC
FFC0000000000FFC
FFC0000000000FFC
FFC0000000000FFC
FFC0000000000FFC
FFC0000000000FFC
FFC0000000000FFC
FFC0000000000FFC
FFC0000000000FFC
FFC0000000000FFC
FFC0000000000FFC
FFC0000000000FFC
FFC0000000000FFC
FFC0000000000FFC
FFC0000000000FFC
FFC0000000000FFC
FFC0000000000FFC
FFC0000000000FFC
FFC0000000000FFC
FFC0000000000FFC
FFC0000000000FFC
FFC0000000000FFC
FFC0000000000FFC
FFC0000000000FFC
FFC0000000000FFC
FFC0000000000FFC
FFC0000000000FFC
FFC0000000000FFC
FFC0000000000FFC
FFC0000000000FFC
FFC0000000000FFC
FFC0000000000FFC
FFC0000000000FFC
FFC0000000000FFC
FFC0000000000FFC
FFC0000000000FFC
FFC0000000000FFC
FFC0000000000FFC
FFC0000000000FFC
FFC0000000000FFC
FFC0000000000FFC
FFC0000000000FFC
FFC0000000000FFC
FFC0000000000FFC
FFC0000000001FFC
FFC0000000001FF8
FFE0000000001FF8
7FE0000000001FF8
7FF0000000003FF8
7FF0000000003FF8
7FF0000000007FF0
3FF800000000FFF0
3FFC00000000FFE0
1FFE00000001FFE0
1FFF00000003FFE0
0FFF80000007FFC0
0FFFC000000FFF80
07FFE000003FFF80
03FFF80000FFFF00
03FFFE0003FFFE00
01FFFFE03FFFFC00
00FFFFFFFFFFF800
007FFFFFFFFFF000
003FFFFFFFFFE000
000FFFFFFFFFC000
0007FFFFFFFF0000
0001FFFFFFFC0000
00007FFFFFF00000
00000FFFFFC00000
000000FFF8000000
ENDCHAR
STARTCHAR 00DC
ENCODING 220
SWIDTH 710 0
DWIDTH 78 0
BBX 62 102 8 -2
BITMAP
0001FF8007FE0000
0001FF8007FE0000
0001FF8007FE0000
0001FF8007FE0000
0001FF8007FE0000
0001FF8007FE0000
0001FF8007FE0000
0001FF8007FE0000
0001FF8007FE0000
0001FF8007FE0000
0000000000000000
0000000000000000
0000000000000000
0000000000000000
0000000000000000
0000000000000000
0000000000000000
0000000000000000
0000000000000000
0000000000000000
0000000000000000
FFC0000000000FFC
FFC0000000000FFC
FFC0000000000FFC
FFC0000000000FFC
FFC0000000000FFC
FFC0000000000FFC
FFC0000000000FFC
FFC0000000000FFC
FFC0000000000FFC
FFC0000000000FFC
FFC0000000000FFC
FFC0000000000FFC
FFC0000000000FFC
FFC0000000000FFC
FFC0000000000FFC
FFC0000000000FFC
FFC0000000000FFC
FFC0000000000FFC
FFC0000000000FFC
FFC0000000000FFC
FFC0000000000FFC
FFC0000000000FFC
FFC0000000000FFC
FFC0000000000FFC
FFC0000000000FFC
FFC0000000000FFC
FFC0000000000FFC
FFC0000000000FFC
FFC0000000000FFC
FFC0000000000FFC
FFC0000000000FFC
FFC0000000000FFC
FFC0000000000FFC
FFC0000000000FFC
FFC0000000000FFC
FFC0000000000FFC
FFC0000000000FFC
FFC0000000000FFC
FFC0000000000FFC
FFC0000000000FFC
FFC0000000000FFC
FFC0000000000FFC
FFC0000000000FFC
FFC0000000000FFC
FFC0000000000FFC
FFC0000000000FFC
FFC0000000000FFC
FFC0000000000FFC
FFC0000000000FFC
FFC0000000000FFC
FFC0000000000FFC
FFC0000000000FFC
FFC0000000000FFC
FFC0000000000FFC
FFC0000000000FFC
FFC0000000001FFC
FFC0000000001FF8
FFE0000000001FF8
7FE0000000001FF8
7FF0000000003FF8
7FF0000000003FF8
7FF0000000007FF0
3FF800000000FFF0
3FFC00000000FFE0
1FFE00000001FFE0
1FFF00000003FFE0
0FFF80000007FFC0
0FFFC000000FFF80
07FFE000003FFF80
03FFF80000FFFF00
03FFFE0003FFFE00
01FFFFE03FFFFC00
00FFFFFFFFFFF800
007FFFFFFFFFF000
003FFFFFFFFFE000
000FFFFFFFFFC000
0007FFFFFFFF0000
0001FFFFFFFC0000
00007FFFFFF00000
00000FFFFFC00000
000000FFF8000000
ENDCHAR
STARTCHAR 00DD
ENCODING 221
SWIDTH 574 0
DWIDTH 63 0
BBX 63 106 0 0
BITMAP
000000003FC00000
000000007F800000
000000007F800000
00000000FF000000
00000000FF000000
00000000FF000000
00000001FE000000
00000001FE000000
00000003FC000000
00000003FC000000
00000003FC000000
00000007F8000000
00000007F8000000
0000000FF0000000
0000000FF0000000
0000000FF0000000
0000001FE0000000
0000001FE0000000
0000000000000000
0000000000000000
0000000000000000
0000000000000000
0000000000000000
0000000000000000
0000000000000000
0000000000000000
0000000000000000
FFF0000000001FFE
7FF0000000001FFC
7FF8000000003FFC
3FF8000000003FF8
1FFC000000007FF0
1FFE00000000FFF0
0FFE00000000FFE0
0FFF00000001FFE0
07FF00000001FFC0
07FF80000003FFC0
03FF80000003FF80
01FFC0000007FF00
01FFE000000FFF00
00FFE000000FFE00
00FFF000001FFE00
007FF000001FFC00
007FF800003FFC00
003FF800003FF800
001FFC00007FF000
001FFE0000FFF000
000FFE0000FFE000
000FFF0001FFE000
0007FF0001FFC000
0003FF8003FF8000
0003FFC003FF8000
0001FFC007FF0000
0001FFE00FFF0000
0000FFE00FFE0000
0000FFF01FFE0000
00007FF01FFC0000
00003FF83FF80000
00003FFC3FF80000
00001FFC7FF00000
00001FFEFFF00000
00000FFEFFE00000
00000FFFFFE00000
000007FFFFC00000
000003FFFF800000
000003FFFF800000
000001FFFF000000
000001FFFF000000
000000FFFE000000
000000FFFE000000
0000007FFC000000
0000003FF8000000
0000003FF8000000
0000001FF0000000
0000001FF0000000
0000001FF0000000
0000001FF0000000
0000001FF0000000
0000001FF0000000
0000001FF0000000
0000001FF0000000
0000001FF0000000
0000001FF0000000
0000001FF0000000
0000001FF0000000
0000001FF0000000
0000001FF0000000
0000001FF0000000
0000001FF0000000
0000001FF0000000
0000001FF0000000
0000001FF0000000
0000001FF0000000
0000001FF0000000
0000001FF0000000
0000001FF0000000
0000001FF0000000
0000001FF0000000
0000001FF0000000
0000001FF0000000
0000001FF0000000
0000001FF0000000
0000001FF0000000
0000001FF0000000
0000001FF0000000
0000001FF0000000
ENDCHAR
STARTCHAR 00DE
ENCODING 222
SWIDTH 610 0
DWIDTH 67 0
BBX 55 79 8 0
BITMAP
FFC00000000000
FFC00000000000
FFC00000000000
FFC00000000000
FFC00000000000
FFC00000000000
FFC00000000000
FFC00000000000
FFC00000000000
FFC00000000000
FFC00000000000
FFC00000000000
FFC00000000000
FFC00000000000
FFC00000000000
FFFFFFFFF00000
FFFFFFFFFE0000
FFFFFFFFFFC000
FFFFFFFFFFE000
FFFFFFFFFFF800
FFFFFFFFFFFC00
FFFFFFFFFFFE00
FFFFFFFFFFFF00
FFFFFFFFFFFF80
FFC000003FFFC0
FFC000000FFFE0
FFC0000003FFE0
FFC0000001FFF0
FFC00000007FF8
FFC00000007FF8
FFC00000003FF8
FFC00000001FFC
FFC00000001FFC
FFC00000000FFC
FFC00000000FFE
FFC000000007FE
FFC000000007FE
FFC000000007FE
FFC000000007FE
FFC000000007FE
FFC000000007FE
FFC000000007FE
FFC000000007FE
FFC000000007FE
FFC00000000FFE
FFC00000000FFC
FFC00000000FFC
FFC00000001FFC
FFC00000003FF8
FFC00000007FF8
FFC00000007FF8
FFC0000001FFF0
FFC0000003FFE0
FFC000000FFFE0
FFC000003FFFC0
FFFFFFFFFFFF80
FFFFFFFFFFFF00
FFFFFFFFFFFE00
FFFFFFFFFFFC00
FFFFFFFFFFF800
FFFFFFFFFFE000
FFFFFFFFFFC000
FFFFFFFFFE0000
FFFFFFFFF00000
FFC00000000000
FFC00000000000
FFC00000000000
FFC00000000000
FFC00000000000
FFC00000000000
FFC00000000000
FFC00000000000
FFC00000000000
FFC00000000000
FFC00000000000
FFC00000000000
FFC00000000000
FFC00000000000
FFC00000000000
ENDCHAR
STARTCHAR 00DF
ENCODING 223
SWIDTH 610 0
DWIDTH 67 0
BBX 52 83 8 -2
BITMAP
00007FF0000000
0007FFFF000000
001FFFFFC00000
007FFFFFF00000
01FFFFFFF80000
03FFFFFFFE0000
07FFFFFFFF0000
0FFFFFFFFF8000
1FFFFFFFFF8000
1FFFF87FFFC000
3FFF8007FFE000
3FFE0001FFE000
7FFC0000FFF000
7FF800007FF000
7FF000003FF800
FFE000003FF800
FFE000001FF800
FFE000001FF800
FFC000001FF800
FFC000001FFC00
FFC000000FFC00
FFC000000FFC00
FFC000000FFC00
FFC000000FFC00
FFC000001FF800
FFC000001FF800
FFC000001FF800
FFC000003FF800
FFC000003FF800
FFC000007FF000
FFC00000FFF000
FFC00001FFE000
FFC00007FFE000
FFC0003FFFC000
FFC001FFFF8000
FFC001FFFF0000
FFC001FFFE0000
FFC001FFF80000
FFC001FFFF0000
FFC001FFFFC000
FFC001FFFFE000
FFC001FFFFF800
FFC001FFFFFC00
FFC0000FFFFE00
FFC00000FFFF00
FFC000001FFF00
FFC000000FFF80
FFC0000003FFC0
FFC0000001FFC0
FFC0000000FFE0
FFC0000000FFE0
FFC00000007FE0
FFC00000007FF0
FFC00000003FF0
FFC00000003FF0
FFC00000003FF0
FFC00000003FF0
FFC00000003FF0
FFC00000003FF0
FFC00000003FF0
FFC00000003FF0
FFC00000003FF0
FFC00000003FF0
FFC00000003FF0
FFC00000007FF0
FFC00000007FF0
FFC0000000FFE0
FFC0000000FFE0
FFC0000001FFE0
FFC0000003FFC0
FFC0000007FFC0
FFC000001FFFC0
FFC07000FFFF80
FFC07FFFFFFF00
FFC07FFFFFFF00
FFC07FFFFFFE00
FFC07FFFFFFC00
FFC07FFFFFF800
FFC07FFFFFF000
FFC07FFFFFC000
FFC07FFFFF0000
00003FFFFC0000
000007FFC00000
ENDCHAR
STARTCHAR 00E0
ENCODING 224
SWIDTH 565 0
DWIDTH 62 0
BBX 51 88 4 -2
BITMAP
00007F80000000
00007F80000000
00003FC0000000
00003FC0000000
00003FC0000000
00001FE0000000
00001FE0000000
00000FF0000000
00000FF0000000
00000FF0000000
000007F8000000
000007F8000000
000003FC000000
000003FC000000
000003FC000000
000001FE000000
000001FE000000
000000FF000000
00000000000000
00000000000000
00000000000000
00000000000000
00000000000000
00000000000000
00000000000000
000007FF800000
00007FFFF80000
0003FFFFFF0000
000FFFFFFFC000
001FFFFFFFE000
007FFFFFFFF800
00FFFFFFFFFC00
01FFFFFFFFFE00
01FFFFFFFFFE00
03FFFE00FFFF00
07FFF0001FFF80
07FFC00007FF80
0FFF000003FFC0
0FFE000001FFC0
1FFC000001FFC0
1FFC000000FFC0
1FF8000000FFE0
07F80000007FE0
00F00000007FE0
00100000007FE0
00000000007FE0
00000000007FE0
00000000007FE0
0000000000FFE0
00000000FFFFE0
0000007FFFFFE0
00000FFFFFFFE0
0000FFFFFFFFE0
000FFFFFFFFFE0
003FFFFFFFFFE0
00FFFFFFFFFFE0
01FFFFFFFFFFE0
03FFFFFFE07FE0
07FFFFF0007FE0
0FFFFE00007FE0
1FFFE000007FE0
3FFF0000007FE0
3FFC0000007FE0
7FF80000007FE0
7FF00000007FE0
7FE00000007FE0
7FE0000000FFE0
7FC0000000FFE0
FFC0000000FFE0
FFC0000001FFE0
FFC0000001FFE0
FFC0000003FFE0
FFC0000003FFE0
7FE0000007FFE0
7FE000000FFFE0
7FF000001FFFE0
7FF800003FFFE0
3FFC0000FFFFE0
3FFE0003FFBFE0
1FFFC03FFFBFE0
1FFFFFFFFF3FE0
0FFFFFFFFE3FE0
07FFFFFFFC3FE0
03FFFFFFF03FE0
00FFFFFFE03FE0
007FFFFF803FE0
001FFFFE000000
0001FFE0000000
ENDCHAR
STARTCHAR 00E1
ENCODING 225
SWIDTH 565 0
DWIDTH 62 0
BBX 51 88 4 -2
BITMAP
00000001FE0000
00000003FC0000
00000003FC0000
00000007F80000
00000007F80000
00000007F80000
0000000FF00000
0000000FF00000
0000001FE00000
0000001FE00000
0000001FE00000
0000003FC00000
0000003FC00000
0000007F800000
0000007F800000
0000007F800000
000000FF000000
000000FF000000
00000000000000
00000000000000
00000000000000
00000000000000
00000000000000
00000000000000
00000000000000
000007FF800000
00007FFFF80000
0003FFFFFF0000
000FFFFFFFC000
001FFFFFFFE000
007FFFFFFFF800
00FFFFFFFFFC00
01FFFFFFFFFE00
01FFFFFFFFFE00
03FFFE00FFFF00
07FFF0001FFF80
07FFC00007FF80
0FFF000003FFC0
0FFE000001FFC0
1FFC000001FFC0
1FFC000000FFC0
1FF8000000FFE0
07F80000007FE0
00F00000007FE0
00100000007FE0
00000000007FE0
00000000007FE0
00000000007FE0
0000000000FFE0
00000000FFFFE0
0000007FFFFFE0
00000FFFFFFFE0
0000FFFFFFFFE0
000FFFFFFFFFE0
003FFFFFFFFFE0
00FFFFFFFFFFE0
01FFFFFFFFFFE0
03FFFFFFE07FE0
07FFFFF0007FE0
0FFFFE00007FE0
1FFFE000007FE0
3FFF0000007FE0
3FFC0000007FE0
7FF80000007FE0
7FF00000007FE0
7FE00000007FE0
7FE0000000FFE0
7FC0000000FFE0
FFC0000000FFE0
FFC0000001FFE0
FFC0000001FFE0
FFC0000003FFE0
FFC0000003FFE0
7FE0000007FFE0
7FE000000FFFE0
7FF000001FFFE0
7FF800003FFFE0
3FFC0000FFFFE0
3FFE0003FFBFE0
1FFFC03FFFBFE0
1FFFFFFFFF3FE0
0FFFFFFFFE3FE0
07FFFFFFFC3FE0
03FFFFFFF03FE0
00FFFFFFE03FE0
007FFFFF803FE0
001FFFFE000000
0001FFE0000000
ENDCHAR
STARTCHAR 00E2
ENCODING 226
SWIDTH 565 0
DWIDTH 62 0
BBX 51 86 4 -2
BITMAP
000001FF000000
000003FF800000
000007FFC00000
00000FFFE00000
00001FFFF00000
00001FFFF80000
00003FEFFC0000
00007FC7FC0000
0000FFC3FE0000
0001FF81FF0000
0003FF01FF8000
0007FE00FFC000
0007FC007FE000
000FF8003FF000
001FF8001FF000
003FF0000FF800
00000000000000
00000000000000
00000000000000
00000000000000
00000000000000
00000000000000
00000000000000
000007FF800000
00007FFFF80000
0003FFFFFF0000
000FFFFFFFC000
001FFFFFFFE000
007FFFFFFFF800
00FFFFFFFFFC00
01FFFFFFFFFE00
01FFFFFFFFFE00
03FFFE00FFFF00
07FFF0001FFF80
07FFC00007FF80
0FFF000003FFC0
0FFE000001FFC0
1FFC000001FFC0
1FFC000000FFC0
1FF8000000FFE0
07F80000007FE0
00F00000007FE0
00100000007FE0
00000000007FE0
00000000007FE0
00000000007FE0
0000000000FFE0
00000000FFFFE0
0000007FFFFFE0
00000FFFFFFFE0
0000FFFFFFFFE0
000FFFFFFFFFE0
003FFFFFFFFFE0
00FFFFFFFFFFE0
01FFFFFFFFFFE0
03FFFFFFE07FE0
07FFFFF0007FE0
0FFFFE00007FE0
1FFFE000007FE0
3FFF0000007FE0
3FFC0000007FE0
7FF80000007FE0
7FF00000007FE0
7FE00000007FE0
7FE0000000FFE0
7FC0000000FFE0
FFC0000000FFE0
FFC0000001FFE0
FFC0000001FFE0
FFC0000003FFE0
FFC0000003FFE0
7FE0000007FFE0
7FE000000FFFE0
7FF000001FFFE0
7FF800003FFFE0
3FFC0000FFFFE0
3FFE0003FFBFE0
1FFFC03FFFBFE0
1FFFFFFFFF3FE0
0FFFFFFFFE3FE0
07FFFFFFFC3FE0
03FFFFFFF03FE0
00FFFFFFE03FE0
007FFFFF803FE0
001FFFFE000000
0001FFE0000000
ENDCHAR
STARTCHAR 00E3
ENCODING 227
SWIDTH 565 0
DWIDTH 62 0
BBX 51 85 4 -2
BITMAP
0000FE00000000
0003FF8001FC00
0007FFE001FC00
000FFFF801FC00
000FFFFE01FC00
001FFFFF01FC00
001FFFFFC3FC00
001FFFFFFFFC00
001FC1FFFFFC00
001FC07FFFF800
001FC01FFFF800
001FC007FFF000
001FC003FFE000
00000000FFC000
00000000000000
00000000000000
00000000000000
00000000000000
00000000000000
00000000000000
00000000000000
00000000000000
000007FF800000
00007FFFF80000
0003FFFFFF0000
000FFFFFFFC000
001FFFFFFFE000
007FFFFFFFF800
00FFFFFFFFFC00
01FFFFFFFFFE00
01FFFFFFFFFE00
03FFFE00FFFF00
07FFF0001FFF80
07FFC00007FF80
0FFF000003FFC0
0FFE000001FFC0
1FFC000001FFC0
1FFC000000FFC0
1FF8000000FFE0
07F80000007FE0
00F00000007FE0
00100000007FE0
00000000007FE0
00000000007FE0
00000000007FE0
0000000000FFE0
00000000FFFFE0
0000007FFFFFE0
00000FFFFFFFE0
0000FFFFFFFFE0
000FFFFFFFFFE0
003FFFFFFFFFE0
00FFFFFFFFFFE0
01FFFFFFFFFFE0
03FFFFFFE07FE0
07FFFFF0007FE0
0FFFFE00007FE0
1FFFE000007FE0
3FFF0000007FE0
3FFC0000007FE0
7FF80000007FE0
7FF00000007FE0
7FE00000007FE0
7FE0000000FFE0
7FC0000000FFE0
FFC0000000FFE0
FFC0000001FFE0
FFC0000001FFE0
FFC0000003FFE0
FFC0000003FFE0
7FE0000007FFE0
7FE000000FFFE0
7FF000001FFFE0
7FF800003FFFE0
3FFC0000FFFFE0
3FFE0003FFBFE0
1FFFC03FFFBFE0
1FFFFFFFFF3FE0
0FFFFFFFFE3FE0
07FFFFFFFC3FE0
03FFFFFFF03FE0
00FFFFFFE03FE0
007FFFFF803FE0
001FFFFE000000
0001FFE0000000
ENDCHAR
STARTCHAR 00E4
ENCODING 228
SWIDTH 565 0
DWIDTH 62 0
BBX 51 82 4 -2
BITMAP
000FFC003FF000
000FFC003FF000
000FFC003FF000
000FFC003FF000
000FFC003FF000
000FFC003FF000
000FFC003FF000
000FFC003FF000
000FFC003FF000
000FFC003FF000
00000000000000
00000000000000
00000000000000
00000000000000
00000000000000
00000000000000
00000000000000
00000000000000
00000000000000
000007FF800000
00007FFFF80000
0003FFFFFF0000
000FFFFFFFC000
001FFFFFFFE000
007FFFFFFFF800
00FFFFFFFFFC00
01FFFFFFFFFE00
01FFFFFFFFFE00
03FFFE00FFFF00
07FFF0001FFF80
07FFC00007FF80
0FFF000003FFC0
0FFE000001FFC0
1FFC000001FFC0
1FFC000000FFC0
1FF8000000FFE0
07F80000007FE0
00F00000007FE0
00100000007FE0
00000000007FE0
00000000007FE0
00000000007FE0
0000000000FFE0
00000000FFFFE0
0000007FFFFFE0
00000FFFFFFFE0
0000FFFFFFFFE0
000FFFFFFFFFE0
003FFFFFFFFFE0
00FFFFFFFFFFE0
01FFFFFFFFFFE0
03FFFFFFE07FE0
07FFFFF0007FE0
0FFFFE00007FE0
1FFFE000007FE0
3FFF0000007FE0
3FFC0000007FE0
7FF80000007FE0
7FF00000007FE0
7FE00000007FE0
7FE0000000FFE0
7FC0000000FFE0
FFC0000000FFE0
FFC0000001FFE0
FFC0000001FFE0
FFC0000003FFE0
FFC0000003FFE0
7FE0000007FFE0
7FE000000FFFE0
7FF000001FFFE0
7FF800003FFFE0
3FFC0000FFFFE0
3FFE0003FFBFE0
1FFFC03FFFBFE0
1FFFFFFFFF3FE0
0FFFFFFFFE3FE0
07FFFFFFFC3FE0
03FFFFFFF03FE0
00FFFFFFE03FE0
007FFFFF803FE0
001FFFFE000000
0001FFE0000000
ENDCHAR
STARTCHAR 00E5
ENCODING 229
SWIDTH 565 0
DWIDTH 62 0
BBX 51 93 4 -2
BITMAP
000000FE000000
000003FFC00000
00000FFFE00000
00001FFFF00000
00003FFFF80000
00007FFFFC0000
0000FFFFFE0000
0000FF81FE0000
0000FE00FF0000
0001FE007F0000
0001FC007F0000
0001FC003F0000
0001FC003F0000
0001FC003F0000
0001FC007F0000
0001FE007F0000
0000FE00FF0000
0000FF81FE0000
0000FFFFFE0000
00007FFFFC0000
00003FFFF80000
00001FFFF00000
00000FFFE00000
000003FFC00000
000000FE000000
00000000000000
00000000000000
00000000000000
00000000000000
00000000000000
000007FF800000
00007FFFF80000
0003FFFFFF0000
000FFFFFFFC000
001FFFFFFFE000
007FFFFFFFF800
00FFFFFFFFFC00
01FFFFFFFFFE00
01FFFFFFFFFE00
03FFFE00FFFF00
07FFF0001FFF80
07FFC00007FF80
0FFF000003FFC0
0FFE000001FFC0
1FFC000001FFC0
1FFC000000FFC0
1FF8000000FFE0
07F80000007FE0
00F00000007FE0
00100000007FE0
00000000007FE0
00000000007FE0
00000000007FE0
0000000000FFE0
00000000FFFFE0
0000007FFFFFE0
00000FFFFFFFE0
0000FFFFFFFFE0
000FFFFFFFFFE0
003FFFFFFFFFE0
00FFFFFFFFFFE0
01FFFFFFFFFFE0
03FFFFFFE07FE0
07FFFFF0007FE0
0FFFFE00007FE0
1FFFE000007FE0
3FFF0000007FE0
3FFC0000007FE0
7FF80000007FE0
7FF00000007FE0
7FE00000007FE0
7FE0000000FFE0
7FC0000000FFE0
FFC0000000FFE0
FFC0000001FFE0
FFC0000001FFE0
FFC0000003FFE0
FFC0000003FFE0
7FE0000007FFE0
7FE000000FFFE0
7FF000001FFFE0
7FF800003FFFE0
3FFC0000FFFFE0
3FFE0003FFBFE0
1FFFC03FFFBFE0
1FFFFFFFFF3FE0
0FFFFFFFFE3FE0
07FFFFFFFC3FE0
03FFFFFFF03FE0
00FFFFFFE03FE0
007FFFFF803FE0
001FFFFE000000
0001FFE0000000
ENDCHAR
STARTCHAR 00E6
ENCODING 230
SWIDTH 938 0
DWIDTH 103 0
BBX 95 63 4 -2
BITMAP
000003FF80000001FFC00000
00007FFFF800001FFFFC0000
0001FFFFFF00007FFFFF0000
0007FFFFFF8001FFFFFFC000
001FFFFFFFE003FFFFFFF000
003FFFFFFFF00FFFFFFFF800
007FFFFFFFF81FFFFFFFFC00
00FFFFFFFFFC3FFFFFFFFE00
01FFFFFFFFFE7FFFFFFFFF00
03FFFE01FFFFFFFF003FFF80
07FFF0003FFFFFF80007FF80
07FFC0000FFFFFE00003FFC0
0FFF000007FFFFC00000FFE0
0FFE000003FFFF8000007FE0
1FFC000001FFFF0000007FE0
1FF8000001FFFE0000003FF0
1FF8000000FFFE0000003FF0
03F0000000FFFC0000001FF8
00300000007FFC0000001FF8
00000000007FF80000000FF8
00000000007FF80000000FF8
00000000007FF80000000FFC
00000000007FF00000000FFC
00000000007FF000000007FC
00000000007FF000000007FC
00000000007FF000000007FC
0000000000FFFFFFFFFFFFFC
000001FFFFFFFFFFFFFFFFFC
00007FFFFFFFFFFFFFFFFFFE
0007FFFFFFFFFFFFFFFFFFFE
003FFFFFFFFFFFFFFFFFFFFE
00FFFFFFFFFFFFFFFFFFFFFE
01FFFFFFFFFFFFFFFFFFFFFE
07FFFFFFFFFFFFFFFFFFFFFE
0FFFFFC0007FF00000000000
0FFFE000007FF00000000000
1FFF0000007FF00000000000
3FFC0000007FF00000000000
3FF80000007FF00000000000
7FF00000007FF00000000000
7FE00000007FF80000000000
7FE00000007FF80000000000
7FC0000000FFF80000000000
FFC0000000FFFC0000000400
FFC0000000FFFC0000000F80
FFC0000001FFFE0000000FE0
FFC0000001FFFE0000001FFC
FFC0000003FFFF0000003FF8
7FE0000007FFFF8000007FF8
7FE000000FFFFFC00000FFF0
7FF000001FFBFFE00001FFF0
7FF000003FF1FFF00003FFE0
3FFC0000FFF0FFFC001FFFC0
3FFE0003FFE0FFFFC0FFFFC0
1FFFC03FFFC07FFFFFFFFF80
1FFFFFFFFF803FFFFFFFFF00
0FFFFFFFFF001FFFFFFFFE00
07FFFFFFFE000FFFFFFFF800
03FFFFFFFC0003FFFFFFF000
01FFFFFFF00001FFFFFFE000
007FFFFFC000007FFFFF8000
000FFFFF0000000FFFFC0000
0000FFE000000001FFC00000
ENDCHAR
STARTCHAR 00E7
ENCODING 231
SWIDTH 565 0
DWIDTH 62 0
BBX 54 87 4 -26
BITMAP
000001FFC00000
00001FFFFC0000
0000FFFFFF8000
0003FFFFFFE000
0007FFFFFFF800
001FFFFFFFFC00
003FFFFFFFFE00
007FFFFFFFFF00
00FFFFFFFFFF80
01FFFFC0FFFFC0
03FFFC001FFFE0
03FFF00007FFE0
07FFC00001FFF0
07FF800000FFF8
0FFF0000007FF8
0FFE0000003FF8
1FFC0000001FFC
1FFC0000001FF8
3FF80000000FC0
3FF80000000C00
3FF00000000000
7FF00000000000
7FF00000000000
7FF00000000000
7FE00000000000
7FE00000000000
7FE00000000000
7FE00000000000
FFE00000000000
FFE00000000000
FFE00000000000
FFE00000000000
FFE00000000000
FFE00000000000
FFE00000000000
7FE00000000000
7FE00000000000
7FE00000000000
7FF00000000000
7FF00000000000
7FF00000000000
3FF00000000000
3FF80000000000
3FF80000000E00
1FFC0000001FE0
1FFC0000001FFC
1FFE0000003FF8
0FFF0000007FF8
0FFF800000FFF8
07FFC00001FFF0
03FFE00003FFE0
03FFF8000FFFE0
01FFFF007FFFC0
00FFFFFFFFFF80
007FFFFFFFFF00
003FFFFFFFFE00
001FFFFFFFFC00
000FFFFFFFF800
0003FFFFFFE000
0000FFFFFF8000
00003FFFFE0000
000003FFE00000
0000007F000000
0000007E000000
000000FE000000
000000FE000000
000000FC000000
000001FF000000
000001FFC00000
000001FFE00000
000003FFE00000
0000007FF00000
0000001FF00000
00000007F80000
00000007F80000
00000007F80000
00000007F80000
00000007F80000
0000000FF80000
0000061FF00000
000007FFF00000
00000FFFF00000
00000FFFE00000
00000FFFC00000
00001FFF800000
00000FFF000000
000003FC000000
ENDCHAR
ENDFONT
